<mxfile host="app.diagrams.net" modified="2024-07-14T13:34:21.994Z" agent="Mozilla/5.0 (Macintosh; Intel Mac OS X 10_15_7) AppleWebKit/537.36 (KHTML, like Gecko) Chrome/126.0.0.0 Safari/537.36" etag="yLu0-p9wrhIjXtXjXERL" version="24.6.5" type="github">
  <diagram name="第 1 页" id="H3rkJcEj338JZq8r3_St">
    <mxGraphModel dx="1406" dy="651" grid="1" gridSize="8" guides="1" tooltips="1" connect="1" arrows="1" fold="1" page="1" pageScale="1" pageWidth="827" pageHeight="1169" math="0" shadow="0">
      <root>
        <mxCell id="0" />
        <mxCell id="1" parent="0" />
        <mxCell id="rggu2RhGOUVgy3bwYuPT-10" value="" style="whiteSpace=wrap;html=1;aspect=fixed;" parent="1" vertex="1">
          <mxGeometry x="218" y="304" width="360" height="360" as="geometry" />
        </mxCell>
        <mxCell id="rggu2RhGOUVgy3bwYuPT-2" value="spring cloud gateway 源码" style="text;html=1;align=center;verticalAlign=middle;whiteSpace=wrap;rounded=0;fontSize=20;" parent="1" vertex="1">
          <mxGeometry x="235" y="24" width="365" height="54" as="geometry" />
        </mxCell>
        <mxCell id="rggu2RhGOUVgy3bwYuPT-8" style="edgeStyle=orthogonalEdgeStyle;rounded=0;orthogonalLoop=1;jettySize=auto;html=1;exitX=0.5;exitY=1;exitDx=0;exitDy=0;fontSize=12;" parent="1" source="rggu2RhGOUVgy3bwYuPT-7" target="rggu2RhGOUVgy3bwYuPT-10" edge="1">
          <mxGeometry relative="1" as="geometry">
            <mxPoint x="380" y="288" as="targetPoint" />
          </mxGeometry>
        </mxCell>
        <mxCell id="rggu2RhGOUVgy3bwYuPT-7" value="客户端发起请求" style="rounded=1;whiteSpace=wrap;html=1;" parent="1" vertex="1">
          <mxGeometry x="338" y="136" width="120" height="60" as="geometry" />
        </mxCell>
        <mxCell id="rggu2RhGOUVgy3bwYuPT-29" style="edgeStyle=orthogonalEdgeStyle;rounded=0;orthogonalLoop=1;jettySize=auto;html=1;exitX=0.5;exitY=1;exitDx=0;exitDy=0;" parent="1" edge="1">
          <mxGeometry relative="1" as="geometry">
            <mxPoint x="350" y="664" as="sourcePoint" />
            <mxPoint x="350" y="808" as="targetPoint" />
            <Array as="points">
              <mxPoint x="350" y="720" />
              <mxPoint x="350" y="720" />
            </Array>
          </mxGeometry>
        </mxCell>
        <mxCell id="rggu2RhGOUVgy3bwYuPT-34" value="请求" style="edgeLabel;html=1;align=center;verticalAlign=middle;resizable=0;points=[];" parent="rggu2RhGOUVgy3bwYuPT-29" vertex="1" connectable="0">
          <mxGeometry x="-0.25" y="1" relative="1" as="geometry">
            <mxPoint x="-21" y="17" as="offset" />
          </mxGeometry>
        </mxCell>
        <mxCell id="rggu2RhGOUVgy3bwYuPT-12" value="spring cloud gateway&lt;div style=&quot;font-size: 16px;&quot;&gt;转发&lt;/div&gt;" style="text;html=1;align=center;verticalAlign=middle;whiteSpace=wrap;rounded=0;fontSize=16;" parent="1" vertex="1">
          <mxGeometry x="200" y="256" width="160" height="40" as="geometry" />
        </mxCell>
        <mxCell id="rggu2RhGOUVgy3bwYuPT-13" value="Gateway Handler Mapping" style="rounded=0;whiteSpace=wrap;html=1;" parent="1" vertex="1">
          <mxGeometry x="318" y="352" width="160" height="51" as="geometry" />
        </mxCell>
        <mxCell id="rggu2RhGOUVgy3bwYuPT-14" value="&lt;div&gt;根据过滤规则&lt;/div&gt;&lt;span style=&quot;color: rgb(0, 0, 0); font-family: Helvetica; font-size: 12px; font-style: normal; font-variant-ligatures: normal; font-variant-caps: normal; font-weight: 400; letter-spacing: normal; orphans: 2; text-indent: 0px; text-transform: none; widows: 2; word-spacing: 0px; -webkit-text-stroke-width: 0px; white-space: normal; background-color: rgb(251, 251, 251); text-decoration-thickness: initial; text-decoration-style: initial; text-decoration-color: initial; float: none; display: inline !important;&quot;&gt;获取对应适配器&lt;/span&gt;" style="text;html=1;align=left;verticalAlign=middle;whiteSpace=wrap;rounded=0;" parent="1" vertex="1">
          <mxGeometry x="489" y="368" width="104" height="32" as="geometry" />
        </mxCell>
        <mxCell id="rggu2RhGOUVgy3bwYuPT-18" value="Gateway Web Handler" style="rounded=0;whiteSpace=wrap;html=1;" parent="1" vertex="1">
          <mxGeometry x="318" y="440" width="160" height="56" as="geometry" />
        </mxCell>
        <mxCell id="rggu2RhGOUVgy3bwYuPT-19" value="处理器" style="text;html=1;align=left;verticalAlign=middle;whiteSpace=wrap;rounded=0;" parent="1" vertex="1">
          <mxGeometry x="492" y="458" width="80" height="20" as="geometry" />
        </mxCell>
        <mxCell id="rggu2RhGOUVgy3bwYuPT-20" value="Filter ......" style="rounded=0;whiteSpace=wrap;html=1;" parent="1" vertex="1">
          <mxGeometry x="300" y="552" width="160" height="38" as="geometry" />
        </mxCell>
        <mxCell id="rggu2RhGOUVgy3bwYuPT-21" value="Filter ......" style="rounded=0;whiteSpace=wrap;html=1;" parent="1" vertex="1">
          <mxGeometry x="308" y="560" width="160" height="38" as="geometry" />
        </mxCell>
        <mxCell id="rggu2RhGOUVgy3bwYuPT-22" value="Filter ......" style="rounded=0;whiteSpace=wrap;html=1;" parent="1" vertex="1">
          <mxGeometry x="316" y="568" width="160" height="38" as="geometry" />
        </mxCell>
        <mxCell id="rggu2RhGOUVgy3bwYuPT-23" value="Filter ......" style="rounded=0;whiteSpace=wrap;html=1;" parent="1" vertex="1">
          <mxGeometry x="324" y="576" width="160" height="38" as="geometry" />
        </mxCell>
        <mxCell id="rggu2RhGOUVgy3bwYuPT-24" value="Filter ......" style="rounded=0;whiteSpace=wrap;html=1;" parent="1" vertex="1">
          <mxGeometry x="332" y="584" width="160" height="38" as="geometry" />
        </mxCell>
        <mxCell id="rggu2RhGOUVgy3bwYuPT-25" value="Filter ......" style="rounded=0;whiteSpace=wrap;html=1;" parent="1" vertex="1">
          <mxGeometry x="340" y="592" width="160" height="38" as="geometry" />
        </mxCell>
        <mxCell id="rggu2RhGOUVgy3bwYuPT-26" value="Filter ......" style="rounded=0;whiteSpace=wrap;html=1;" parent="1" vertex="1">
          <mxGeometry x="348" y="600" width="160" height="38" as="geometry" />
        </mxCell>
        <mxCell id="rggu2RhGOUVgy3bwYuPT-27" value="过滤器&lt;div&gt;责任链&lt;/div&gt;" style="text;html=1;align=left;verticalAlign=middle;whiteSpace=wrap;rounded=0;" parent="1" vertex="1">
          <mxGeometry x="492" y="532" width="56" height="36" as="geometry" />
        </mxCell>
        <mxCell id="rggu2RhGOUVgy3bwYuPT-28" value="最终服务端&lt;div&gt;处理逻辑&lt;/div&gt;" style="rounded=0;whiteSpace=wrap;html=1;" parent="1" vertex="1">
          <mxGeometry x="316" y="807" width="160" height="56" as="geometry" />
        </mxCell>
        <mxCell id="rggu2RhGOUVgy3bwYuPT-31" style="edgeStyle=orthogonalEdgeStyle;rounded=0;orthogonalLoop=1;jettySize=auto;html=1;exitX=0.869;exitY=0;exitDx=0;exitDy=0;exitPerimeter=0;" parent="1" source="rggu2RhGOUVgy3bwYuPT-28" edge="1">
          <mxGeometry relative="1" as="geometry">
            <mxPoint x="434" y="807" as="sourcePoint" />
            <mxPoint x="455" y="665" as="targetPoint" />
          </mxGeometry>
        </mxCell>
        <mxCell id="rggu2RhGOUVgy3bwYuPT-32" value="返回" style="text;html=1;align=center;verticalAlign=middle;resizable=0;points=[];autosize=1;strokeColor=none;fillColor=none;" parent="1" vertex="1">
          <mxGeometry x="458" y="727" width="48" height="32" as="geometry" />
        </mxCell>
        <mxCell id="rggu2RhGOUVgy3bwYuPT-36" value="GatewayAutoConfiguration&amp;nbsp; 自动配置类" style="text;html=1;align=left;verticalAlign=middle;whiteSpace=wrap;rounded=0;fontSize=14;" parent="1" vertex="1">
          <mxGeometry x="44" y="944" width="264" height="56" as="geometry" />
        </mxCell>
        <mxCell id="rggu2RhGOUVgy3bwYuPT-37" value="version 4.0.0" style="text;html=1;align=left;verticalAlign=middle;whiteSpace=wrap;rounded=0;fontSize=14;fontColor=#FF3333;" parent="1" vertex="1">
          <mxGeometry x="40" y="880" width="112" height="32" as="geometry" />
        </mxCell>
        <mxCell id="rggu2RhGOUVgy3bwYuPT-39" style="edgeStyle=orthogonalEdgeStyle;rounded=0;orthogonalLoop=1;jettySize=auto;html=1;exitX=1;exitY=0.5;exitDx=0;exitDy=0;entryX=0;entryY=0.5;entryDx=0;entryDy=0;" parent="1" source="rggu2RhGOUVgy3bwYuPT-38" target="rggu2RhGOUVgy3bwYuPT-40" edge="1">
          <mxGeometry relative="1" as="geometry">
            <mxPoint x="376" y="1040" as="targetPoint" />
          </mxGeometry>
        </mxCell>
        <mxCell id="rggu2RhGOUVgy3bwYuPT-38" value="PropertiesRouteDefinitionLocator" style="rounded=0;whiteSpace=wrap;html=1;align=center;" parent="1" vertex="1">
          <mxGeometry x="96" y="1000" width="200" height="56" as="geometry" />
        </mxCell>
        <mxCell id="rggu2RhGOUVgy3bwYuPT-40" value="GatewayProperties" style="rounded=0;whiteSpace=wrap;html=1;" parent="1" vertex="1">
          <mxGeometry x="380" y="998" width="164" height="59" as="geometry" />
        </mxCell>
        <UserObject label="&lt;div style=&quot;color: rgb(169, 183, 198); font-family: &amp;quot;JetBrains Mono&amp;quot;, monospace; font-size: 10.5pt; white-space: pre;&quot;&gt;&lt;span style=&quot;background-color: rgb(255, 255, 255);&quot;&gt;&lt;span style=&quot;color: rgb(204, 120, 50);&quot;&gt;public static final &lt;/span&gt;String &lt;span style=&quot;color: rgb(152, 118, 170); font-style: italic;&quot;&gt;PREFIX &lt;/span&gt;= &lt;span style=&quot;color: rgb(106, 135, 89);&quot;&gt;&quot;spring.cloud.gateway&quot;&lt;/span&gt;&lt;span style=&quot;color: rgb(204, 120, 50);&quot;&gt;;&lt;/span&gt;&lt;/span&gt;&lt;/div&gt;" id="rggu2RhGOUVgy3bwYuPT-41">
          <mxCell style="text;html=1;align=center;verticalAlign=middle;whiteSpace=wrap;rounded=0;" parent="1" vertex="1">
            <mxGeometry x="458" y="956" width="528" height="32" as="geometry" />
          </mxCell>
        </UserObject>
        <mxCell id="rggu2RhGOUVgy3bwYuPT-43" value="路由配置信息 承载类&lt;div&gt;如 yml/properties 配置文件&lt;/div&gt;" style="text;html=1;align=left;verticalAlign=middle;whiteSpace=wrap;rounded=0;" parent="1" vertex="1">
          <mxGeometry x="600" y="1016" width="176" height="40" as="geometry" />
        </mxCell>
        <mxCell id="rggu2RhGOUVgy3bwYuPT-51" style="edgeStyle=orthogonalEdgeStyle;rounded=0;orthogonalLoop=1;jettySize=auto;html=1;exitX=1;exitY=0.5;exitDx=0;exitDy=0;" parent="1" source="rggu2RhGOUVgy3bwYuPT-44" target="rggu2RhGOUVgy3bwYuPT-50" edge="1">
          <mxGeometry relative="1" as="geometry" />
        </mxCell>
        <mxCell id="rggu2RhGOUVgy3bwYuPT-44" value="DispatcherHandler&lt;div&gt;.handle(ServerWebExchange)&lt;/div&gt;" style="rounded=0;whiteSpace=wrap;html=1;align=center;" parent="1" vertex="1">
          <mxGeometry x="92" y="1320" width="232" height="88" as="geometry" />
        </mxCell>
        <mxCell id="rggu2RhGOUVgy3bwYuPT-45" value="org.springframework.web.reactive.DispatcherHandler" style="text;html=1;align=left;verticalAlign=middle;whiteSpace=wrap;rounded=0;" parent="1" vertex="1">
          <mxGeometry x="80" y="1440" width="296" height="32" as="geometry" />
        </mxCell>
        <mxCell id="rggu2RhGOUVgy3bwYuPT-48" style="edgeStyle=orthogonalEdgeStyle;rounded=0;orthogonalLoop=1;jettySize=auto;html=1;exitX=0.5;exitY=1;exitDx=0;exitDy=0;" parent="1" source="rggu2RhGOUVgy3bwYuPT-47" target="rggu2RhGOUVgy3bwYuPT-44" edge="1">
          <mxGeometry relative="1" as="geometry" />
        </mxCell>
        <mxCell id="rggu2RhGOUVgy3bwYuPT-47" value="请求被封装为特定对象：&lt;span style=&quot;color: rgb(169, 183, 198); font-family: &amp;quot;JetBrains Mono&amp;quot;, monospace; font-size: 10.5pt; white-space: pre; background-color: rgb(255, 255, 255);&quot;&gt;ServerWebExchange&lt;/span&gt;" style="rounded=0;whiteSpace=wrap;html=1;align=center;" parent="1" vertex="1">
          <mxGeometry x="100" y="1144" width="216" height="80" as="geometry" />
        </mxCell>
        <mxCell id="rggu2RhGOUVgy3bwYuPT-49" value="&lt;div style=&quot;color: rgb(169, 183, 198); font-family: &amp;quot;JetBrains Mono&amp;quot;, monospace; font-size: 10.5pt; white-space: pre;&quot;&gt;&lt;span style=&quot;background-color: rgb(255, 255, 255);&quot;&gt;handlePreFlight&lt;/span&gt;&lt;/div&gt;" style="rounded=0;whiteSpace=wrap;html=1;align=center;" parent="1" vertex="1">
          <mxGeometry x="482" y="1480" width="204" height="80" as="geometry" />
        </mxCell>
        <mxCell id="rggu2RhGOUVgy3bwYuPT-54" style="edgeStyle=orthogonalEdgeStyle;rounded=0;orthogonalLoop=1;jettySize=auto;html=1;" parent="1" source="rggu2RhGOUVgy3bwYuPT-50" target="rggu2RhGOUVgy3bwYuPT-49" edge="1">
          <mxGeometry relative="1" as="geometry" />
        </mxCell>
        <mxCell id="rggu2RhGOUVgy3bwYuPT-55" value="是" style="edgeLabel;html=1;align=center;verticalAlign=middle;resizable=0;points=[];" parent="rggu2RhGOUVgy3bwYuPT-54" vertex="1" connectable="0">
          <mxGeometry x="-0.1522" relative="1" as="geometry">
            <mxPoint as="offset" />
          </mxGeometry>
        </mxCell>
        <mxCell id="rggu2RhGOUVgy3bwYuPT-56" style="edgeStyle=orthogonalEdgeStyle;rounded=0;orthogonalLoop=1;jettySize=auto;html=1;" parent="1" source="rggu2RhGOUVgy3bwYuPT-50" target="rggu2RhGOUVgy3bwYuPT-57" edge="1">
          <mxGeometry relative="1" as="geometry">
            <mxPoint x="776" y="1364" as="targetPoint" />
          </mxGeometry>
        </mxCell>
        <mxCell id="rggu2RhGOUVgy3bwYuPT-58" value="否" style="edgeLabel;html=1;align=center;verticalAlign=middle;resizable=0;points=[];" parent="rggu2RhGOUVgy3bwYuPT-56" vertex="1" connectable="0">
          <mxGeometry x="-0.0729" relative="1" as="geometry">
            <mxPoint as="offset" />
          </mxGeometry>
        </mxCell>
        <mxCell id="rggu2RhGOUVgy3bwYuPT-50" value="&lt;div style=&quot;color: rgb(169, 183, 198); font-family: &amp;quot;JetBrains Mono&amp;quot;, monospace; font-size: 10.5pt; white-space: pre;&quot;&gt;&lt;span style=&quot;font-style: italic; background-color: rgb(255, 255, 255);&quot;&gt;isPreFlightRequest&lt;/span&gt;&lt;/div&gt;" style="rhombus;whiteSpace=wrap;html=1;" parent="1" vertex="1">
          <mxGeometry x="544" y="1324" width="80" height="80" as="geometry" />
        </mxCell>
        <mxCell id="rggu2RhGOUVgy3bwYuPT-53" value="&lt;div style=&quot;color: rgb(169, 183, 198); font-family: &amp;quot;JetBrains Mono&amp;quot;, monospace; font-size: 10.5pt; white-space: pre;&quot;&gt;&lt;span style=&quot;background-color: rgb(255, 255, 255);&quot;&gt;   request.getMethod() == HttpMethod.&lt;span style=&quot;color: rgb(152, 118, 170); font-style: italic;&quot;&gt;OPTIONS &lt;/span&gt;&lt;/span&gt;&lt;/div&gt;&lt;div style=&quot;color: rgb(169, 183, 198); font-family: &amp;quot;JetBrains Mono&amp;quot;, monospace; font-size: 10.5pt; white-space: pre;&quot;&gt;&lt;span style=&quot;background-color: rgb(255, 255, 255);&quot;&gt;&amp;amp;&amp;amp; headers.containsKey(&lt;span style=&quot;color: rgb(106, 135, 89);&quot;&gt;&quot;Origin&quot;&lt;/span&gt;) &lt;/span&gt;&lt;/div&gt;&lt;div style=&quot;color: rgb(169, 183, 198); font-family: &amp;quot;JetBrains Mono&amp;quot;, monospace; font-size: 10.5pt; white-space: pre;&quot;&gt;&lt;span style=&quot;background-color: rgb(255, 255, 255);&quot;&gt;&amp;amp;&amp;amp; headers.containsKey(&lt;span style=&quot;color: rgb(106, 135, 89);&quot;&gt;&quot;Access-Control-Request-Method&quot;&lt;/span&gt;)&lt;/span&gt;&lt;/div&gt;" style="text;html=1;align=left;verticalAlign=middle;whiteSpace=wrap;rounded=0;" parent="1" vertex="1">
          <mxGeometry x="368" y="1232" width="474" height="72" as="geometry" />
        </mxCell>
        <mxCell id="rggu2RhGOUVgy3bwYuPT-61" style="edgeStyle=orthogonalEdgeStyle;rounded=0;orthogonalLoop=1;jettySize=auto;html=1;exitX=0.5;exitY=1;exitDx=0;exitDy=0;" parent="1" source="rggu2RhGOUVgy3bwYuPT-57" target="rggu2RhGOUVgy3bwYuPT-60" edge="1">
          <mxGeometry relative="1" as="geometry" />
        </mxCell>
        <mxCell id="rggu2RhGOUVgy3bwYuPT-62" value="&lt;font style=&quot;font-size: 13px;&quot;&gt;HandlerMapping 负责路径到handler的映射&lt;/font&gt;" style="edgeLabel;html=1;align=center;verticalAlign=middle;resizable=0;points=[];" parent="rggu2RhGOUVgy3bwYuPT-61" vertex="1" connectable="0">
          <mxGeometry x="-0.3784" y="-3" relative="1" as="geometry">
            <mxPoint x="3" y="22" as="offset" />
          </mxGeometry>
        </mxCell>
        <mxCell id="tno-QMCIabjcAEofRb9Y-2" style="edgeStyle=orthogonalEdgeStyle;rounded=0;orthogonalLoop=1;jettySize=auto;html=1;" edge="1" parent="1" source="rggu2RhGOUVgy3bwYuPT-57" target="tno-QMCIabjcAEofRb9Y-1">
          <mxGeometry relative="1" as="geometry" />
        </mxCell>
        <mxCell id="tno-QMCIabjcAEofRb9Y-3" value="&lt;span style=&quot;font-size: 12px; text-wrap: wrap; background-color: rgb(251, 251, 251);&quot;&gt;FilteringWebHandler&lt;/span&gt;" style="edgeLabel;html=1;align=center;verticalAlign=middle;resizable=0;points=[];" vertex="1" connectable="0" parent="tno-QMCIabjcAEofRb9Y-2">
          <mxGeometry x="-0.0863" y="-1" relative="1" as="geometry">
            <mxPoint as="offset" />
          </mxGeometry>
        </mxCell>
        <mxCell id="rggu2RhGOUVgy3bwYuPT-57" value="&lt;div style=&quot;&quot;&gt;&lt;font face=&quot;JetBrains Mono, monospace&quot; color=&quot;#a9b7c6&quot;&gt;&lt;span style=&quot;font-size: 14px; white-space: pre;&quot;&gt;mapping.getHandler(exchange)&lt;/span&gt;&lt;/font&gt;&lt;/div&gt;" style="rounded=0;whiteSpace=wrap;html=1;align=center;" parent="1" vertex="1">
          <mxGeometry x="994" y="1324" width="328" height="80" as="geometry" />
        </mxCell>
        <mxCell id="rggu2RhGOUVgy3bwYuPT-59" value="&lt;font style=&quot;font-size: 13px;&quot;&gt;HandlerMapping&lt;/font&gt;&lt;div style=&quot;font-size: 13px;&quot;&gt;&lt;span style=&quot;color: rgb(169, 183, 198); font-family: &amp;quot;JetBrains Mono&amp;quot;, monospace; white-space: pre;&quot;&gt;&lt;font style=&quot;font-size: 13px;&quot;&gt;获取一个适合当前请求的handler&lt;/font&gt;&lt;/span&gt;&lt;br&gt;&lt;/div&gt;" style="text;html=1;align=center;verticalAlign=middle;whiteSpace=wrap;rounded=0;" parent="1" vertex="1">
          <mxGeometry x="1048" y="1269" width="256" height="35" as="geometry" />
        </mxCell>
        <mxCell id="rggu2RhGOUVgy3bwYuPT-64" style="edgeStyle=orthogonalEdgeStyle;rounded=0;orthogonalLoop=1;jettySize=auto;html=1;fontSize=15;" parent="1" source="rggu2RhGOUVgy3bwYuPT-60" target="rggu2RhGOUVgy3bwYuPT-63" edge="1">
          <mxGeometry relative="1" as="geometry" />
        </mxCell>
        <mxCell id="rggu2RhGOUVgy3bwYuPT-66" value="&lt;font style=&quot;font-size: 13px;&quot;&gt;gateway 实现的是&amp;nbsp;RoutePredicateHandlerMapping&lt;/font&gt;" style="edgeLabel;html=1;align=center;verticalAlign=middle;resizable=0;points=[];" parent="rggu2RhGOUVgy3bwYuPT-64" vertex="1" connectable="0">
          <mxGeometry y="-1" relative="1" as="geometry">
            <mxPoint as="offset" />
          </mxGeometry>
        </mxCell>
        <mxCell id="rggu2RhGOUVgy3bwYuPT-60" value="&lt;div style=&quot;&quot;&gt;AbstractHandlerMapping.getHandler&lt;/div&gt;&lt;div style=&quot;&quot;&gt;(ServerWebExchange exchange)&lt;br&gt;&lt;/div&gt;" style="rounded=0;whiteSpace=wrap;html=1;align=center;" parent="1" vertex="1">
          <mxGeometry x="994" y="1552" width="328" height="80" as="geometry" />
        </mxCell>
        <mxCell id="rggu2RhGOUVgy3bwYuPT-69" style="edgeStyle=orthogonalEdgeStyle;rounded=0;orthogonalLoop=1;jettySize=auto;html=1;entryX=0.5;entryY=1;entryDx=0;entryDy=0;" parent="1" source="rggu2RhGOUVgy3bwYuPT-63" target="rggu2RhGOUVgy3bwYuPT-67" edge="1">
          <mxGeometry relative="1" as="geometry" />
        </mxCell>
        <mxCell id="rggu2RhGOUVgy3bwYuPT-70" value="&lt;font style=&quot;font-size: 13px;&quot;&gt;extends&lt;/font&gt;" style="edgeLabel;html=1;align=center;verticalAlign=middle;resizable=0;points=[];" parent="rggu2RhGOUVgy3bwYuPT-69" vertex="1" connectable="0">
          <mxGeometry x="-0.0682" y="1" relative="1" as="geometry">
            <mxPoint as="offset" />
          </mxGeometry>
        </mxCell>
        <mxCell id="rggu2RhGOUVgy3bwYuPT-79" style="rounded=0;orthogonalLoop=1;jettySize=auto;html=1;entryX=0.5;entryY=0;entryDx=0;entryDy=0;exitX=0.5;exitY=1;exitDx=0;exitDy=0;" parent="1" source="rggu2RhGOUVgy3bwYuPT-63" target="rggu2RhGOUVgy3bwYuPT-78" edge="1">
          <mxGeometry relative="1" as="geometry" />
        </mxCell>
        <mxCell id="rggu2RhGOUVgy3bwYuPT-80" value="&lt;font style=&quot;font-size: 13px;&quot;&gt;1、获取路由信息&lt;/font&gt;&lt;div style=&quot;font-size: 13px;&quot;&gt;&lt;font style=&quot;font-size: 13px;&quot;&gt;2、通过断言判断路由是否可用&lt;/font&gt;&lt;/div&gt;" style="edgeLabel;html=1;align=left;verticalAlign=middle;resizable=0;points=[];" parent="rggu2RhGOUVgy3bwYuPT-79" vertex="1" connectable="0">
          <mxGeometry x="0.0182" y="1" relative="1" as="geometry">
            <mxPoint x="-62" y="-7" as="offset" />
          </mxGeometry>
        </mxCell>
        <mxCell id="rggu2RhGOUVgy3bwYuPT-63" value="&lt;div style=&quot;&quot;&gt;RoutePredicateHandlerMapping.getHandlerInternal&lt;br&gt;&lt;/div&gt;&lt;div style=&quot;&quot;&gt;获取handler&lt;/div&gt;" style="rounded=0;whiteSpace=wrap;html=1;align=center;" parent="1" vertex="1">
          <mxGeometry x="994" y="1754" width="328" height="80" as="geometry" />
        </mxCell>
        <mxCell id="rggu2RhGOUVgy3bwYuPT-76" style="edgeStyle=orthogonalEdgeStyle;rounded=0;orthogonalLoop=1;jettySize=auto;html=1;exitX=0.5;exitY=0;exitDx=0;exitDy=0;dashed=1;" parent="1" source="rggu2RhGOUVgy3bwYuPT-67" target="rggu2RhGOUVgy3bwYuPT-68" edge="1">
          <mxGeometry relative="1" as="geometry" />
        </mxCell>
        <mxCell id="rggu2RhGOUVgy3bwYuPT-77" value="&lt;span style=&quot;font-size: 13px;&quot;&gt;implements&lt;/span&gt;" style="edgeLabel;html=1;align=center;verticalAlign=middle;resizable=0;points=[];" parent="rggu2RhGOUVgy3bwYuPT-76" vertex="1" connectable="0">
          <mxGeometry x="0.0556" y="-4" relative="1" as="geometry">
            <mxPoint x="-4" as="offset" />
          </mxGeometry>
        </mxCell>
        <mxCell id="rggu2RhGOUVgy3bwYuPT-67" value="&lt;div style=&quot;&quot;&gt;AbstractHandlerMapping&lt;br&gt;&lt;/div&gt;" style="rounded=0;whiteSpace=wrap;html=1;align=center;" parent="1" vertex="1">
          <mxGeometry x="760" y="1704" width="184" height="40" as="geometry" />
        </mxCell>
        <mxCell id="rggu2RhGOUVgy3bwYuPT-68" value="&lt;div style=&quot;&quot;&gt;AbstractHandlerMapping&lt;br&gt;&lt;/div&gt;" style="rounded=0;whiteSpace=wrap;html=1;align=center;" parent="1" vertex="1">
          <mxGeometry x="760" y="1584" width="184" height="36" as="geometry" />
        </mxCell>
        <mxCell id="rggu2RhGOUVgy3bwYuPT-83" style="rounded=0;orthogonalLoop=1;jettySize=auto;html=1;entryX=0.5;entryY=0;entryDx=0;entryDy=0;exitX=0.5;exitY=1;exitDx=0;exitDy=0;" parent="1" source="rggu2RhGOUVgy3bwYuPT-78" target="rggu2RhGOUVgy3bwYuPT-82" edge="1">
          <mxGeometry relative="1" as="geometry" />
        </mxCell>
        <mxCell id="rggu2RhGOUVgy3bwYuPT-84" value="1、获取配置的路由信息" style="edgeLabel;html=1;align=center;verticalAlign=middle;resizable=0;points=[];fontSize=13;" parent="rggu2RhGOUVgy3bwYuPT-83" vertex="1" connectable="0">
          <mxGeometry x="-0.0243" y="2" relative="1" as="geometry">
            <mxPoint as="offset" />
          </mxGeometry>
        </mxCell>
        <mxCell id="rggu2RhGOUVgy3bwYuPT-101" style="rounded=0;orthogonalLoop=1;jettySize=auto;html=1;exitX=0.5;exitY=1;exitDx=0;exitDy=0;entryX=0.5;entryY=0;entryDx=0;entryDy=0;" parent="1" source="rggu2RhGOUVgy3bwYuPT-78" target="rggu2RhGOUVgy3bwYuPT-100" edge="1">
          <mxGeometry relative="1" as="geometry" />
        </mxCell>
        <mxCell id="rggu2RhGOUVgy3bwYuPT-102" value="&lt;span style=&quot;font-size: 13px; text-align: left;&quot;&gt;2、通过断言判断路由是否可用&lt;/span&gt;" style="edgeLabel;html=1;align=center;verticalAlign=middle;resizable=0;points=[];" parent="rggu2RhGOUVgy3bwYuPT-101" vertex="1" connectable="0">
          <mxGeometry x="-0.1139" y="-1" relative="1" as="geometry">
            <mxPoint as="offset" />
          </mxGeometry>
        </mxCell>
        <mxCell id="rggu2RhGOUVgy3bwYuPT-78" value="&lt;div style=&quot;&quot;&gt;RoutePredicateHandlerMapping&lt;/div&gt;&lt;div style=&quot;&quot;&gt;.lookupRoute&lt;/div&gt;" style="rounded=0;whiteSpace=wrap;html=1;align=center;" parent="1" vertex="1">
          <mxGeometry x="632" y="1952" width="328" height="80" as="geometry" />
        </mxCell>
        <mxCell id="rggu2RhGOUVgy3bwYuPT-95" style="rounded=0;orthogonalLoop=1;jettySize=auto;html=1;entryX=0.5;entryY=0;entryDx=0;entryDy=0;exitX=0.5;exitY=1;exitDx=0;exitDy=0;" parent="1" source="rggu2RhGOUVgy3bwYuPT-97" target="rggu2RhGOUVgy3bwYuPT-94" edge="1">
          <mxGeometry relative="1" as="geometry">
            <mxPoint x="600" y="2424" as="sourcePoint" />
          </mxGeometry>
        </mxCell>
        <mxCell id="rggu2RhGOUVgy3bwYuPT-96" value="2、转换为Route" style="edgeLabel;html=1;align=center;verticalAlign=middle;resizable=0;points=[];" parent="rggu2RhGOUVgy3bwYuPT-95" vertex="1" connectable="0">
          <mxGeometry x="-0.2098" y="2" relative="1" as="geometry">
            <mxPoint x="11" y="17" as="offset" />
          </mxGeometry>
        </mxCell>
        <mxCell id="rggu2RhGOUVgy3bwYuPT-98" style="edgeStyle=orthogonalEdgeStyle;rounded=0;orthogonalLoop=1;jettySize=auto;html=1;dashed=1;dashPattern=1 4;" parent="1" source="rggu2RhGOUVgy3bwYuPT-82" target="rggu2RhGOUVgy3bwYuPT-97" edge="1">
          <mxGeometry relative="1" as="geometry" />
        </mxCell>
        <mxCell id="rggu2RhGOUVgy3bwYuPT-99" value="gateway 启动时缓存数据" style="edgeLabel;html=1;align=center;verticalAlign=middle;resizable=0;points=[];" parent="rggu2RhGOUVgy3bwYuPT-98" vertex="1" connectable="0">
          <mxGeometry x="-0.0192" y="-1" relative="1" as="geometry">
            <mxPoint as="offset" />
          </mxGeometry>
        </mxCell>
        <mxCell id="rggu2RhGOUVgy3bwYuPT-82" value="&lt;div style=&quot;&quot;&gt;this.routeLocator.getRoutes()&lt;br&gt;&lt;/div&gt;&lt;div style=&quot;&quot;&gt;CachingRouteLocator.getRoutes() 缓存中获取&lt;br&gt;&lt;/div&gt;&lt;div style=&quot;&quot;&gt;RouteDefinitionRouteLocator.getRoutes&lt;br&gt;&lt;/div&gt;" style="rounded=0;whiteSpace=wrap;html=1;align=center;" parent="1" vertex="1">
          <mxGeometry x="388" y="2176" width="328" height="80" as="geometry" />
        </mxCell>
        <mxCell id="rggu2RhGOUVgy3bwYuPT-89" style="rounded=0;orthogonalLoop=1;jettySize=auto;html=1;entryX=0.5;entryY=0;entryDx=0;entryDy=0;exitX=0.5;exitY=1;exitDx=0;exitDy=0;" parent="1" source="rggu2RhGOUVgy3bwYuPT-97" target="rggu2RhGOUVgy3bwYuPT-88" edge="1">
          <mxGeometry relative="1" as="geometry">
            <mxPoint x="600" y="2424" as="sourcePoint" />
          </mxGeometry>
        </mxCell>
        <mxCell id="rggu2RhGOUVgy3bwYuPT-90" value="1、读取配置" style="edgeLabel;html=1;align=center;verticalAlign=middle;resizable=0;points=[];" parent="rggu2RhGOUVgy3bwYuPT-89" vertex="1" connectable="0">
          <mxGeometry x="0.009" y="-2" relative="1" as="geometry">
            <mxPoint as="offset" />
          </mxGeometry>
        </mxCell>
        <mxCell id="rggu2RhGOUVgy3bwYuPT-88" value="&lt;div style=&quot;&quot;&gt;PropertiesRouteDefinitionLocator&lt;/div&gt;&lt;div style=&quot;&quot;&gt;.getRouteDefinitions&lt;/div&gt;" style="rounded=0;whiteSpace=wrap;html=1;align=center;" parent="1" vertex="1">
          <mxGeometry x="80" y="2600" width="328" height="80" as="geometry" />
        </mxCell>
        <mxCell id="rggu2RhGOUVgy3bwYuPT-92" value="&lt;div&gt;配置中的routes规则&lt;/div&gt;GatewayProperties.routes" style="text;html=1;align=left;verticalAlign=middle;whiteSpace=wrap;rounded=0;" parent="1" vertex="1">
          <mxGeometry x="138" y="2536" width="168" height="48" as="geometry" />
        </mxCell>
        <mxCell id="rggu2RhGOUVgy3bwYuPT-93" value="&lt;div style=&quot;forced-color-adjust: none; color: rgb(0, 0, 0); font-family: Helvetica; font-size: 12px; font-style: normal; font-variant-ligatures: normal; font-variant-caps: normal; font-weight: 400; letter-spacing: normal; orphans: 2; text-indent: 0px; text-transform: none; widows: 2; word-spacing: 0px; -webkit-text-stroke-width: 0px; white-space: normal; background-color: rgb(251, 251, 251); text-decoration-thickness: initial; text-decoration-style: initial; text-decoration-color: initial;&quot;&gt;1、读取配置&lt;/div&gt;&lt;div style=&quot;forced-color-adjust: none; color: rgb(0, 0, 0); font-family: Helvetica; font-size: 12px; font-style: normal; font-variant-ligatures: normal; font-variant-caps: normal; font-weight: 400; letter-spacing: normal; orphans: 2; text-indent: 0px; text-transform: none; widows: 2; word-spacing: 0px; -webkit-text-stroke-width: 0px; white-space: normal; background-color: rgb(251, 251, 251); text-decoration-thickness: initial; text-decoration-style: initial; text-decoration-color: initial;&quot;&gt;2、转换为Route&lt;/div&gt;" style="text;html=1;align=left;verticalAlign=middle;whiteSpace=wrap;rounded=0;" parent="1" vertex="1">
          <mxGeometry x="244" y="2408" width="112" height="40" as="geometry" />
        </mxCell>
        <mxCell id="rggu2RhGOUVgy3bwYuPT-94" value="&lt;div style=&quot;&quot;&gt;RouteDefinitionRouteLocator&lt;br&gt;&lt;/div&gt;&lt;div style=&quot;&quot;&gt;.convertToRoute&lt;/div&gt;" style="rounded=0;whiteSpace=wrap;html=1;align=center;" parent="1" vertex="1">
          <mxGeometry x="484" y="2600" width="328" height="80" as="geometry" />
        </mxCell>
        <mxCell id="rggu2RhGOUVgy3bwYuPT-97" value="&lt;div style=&quot;&quot;&gt;启动时，路由信息缓存起来&lt;/div&gt;&lt;div style=&quot;&quot;&gt;RouteDefinitionRouteLocator.getRoutes&lt;br&gt;&lt;/div&gt;" style="rounded=0;whiteSpace=wrap;html=1;align=center;" parent="1" vertex="1">
          <mxGeometry x="388" y="2360" width="328" height="80" as="geometry" />
        </mxCell>
        <mxCell id="rggu2RhGOUVgy3bwYuPT-104" style="edgeStyle=orthogonalEdgeStyle;rounded=0;orthogonalLoop=1;jettySize=auto;html=1;exitX=0.5;exitY=1;exitDx=0;exitDy=0;" parent="1" source="rggu2RhGOUVgy3bwYuPT-100" target="rggu2RhGOUVgy3bwYuPT-103" edge="1">
          <mxGeometry relative="1" as="geometry" />
        </mxCell>
        <mxCell id="rggu2RhGOUVgy3bwYuPT-100" value="&lt;div style=&quot;&quot;&gt;filterWhen&lt;br&gt;&lt;/div&gt;&lt;div style=&quot;&quot;&gt;请求上下文绑定路由id&lt;/div&gt;&lt;div style=&quot;&quot;&gt;put(GATEWAY_PREDICATE_ROUTE_ATTR, r.getId());&lt;br&gt;&lt;/div&gt;" style="rounded=0;whiteSpace=wrap;html=1;align=center;" parent="1" vertex="1">
          <mxGeometry x="920" y="2176" width="328" height="80" as="geometry" />
        </mxCell>
        <mxCell id="rggu2RhGOUVgy3bwYuPT-107" style="edgeStyle=orthogonalEdgeStyle;rounded=0;orthogonalLoop=1;jettySize=auto;html=1;exitX=0.5;exitY=1;exitDx=0;exitDy=0;" parent="1" source="rggu2RhGOUVgy3bwYuPT-103" target="rggu2RhGOUVgy3bwYuPT-106" edge="1">
          <mxGeometry relative="1" as="geometry" />
        </mxCell>
        <mxCell id="rggu2RhGOUVgy3bwYuPT-108" value="&lt;span style=&quot;color: rgba(0, 0, 0, 0); font-family: monospace; font-size: 0px; text-align: start; background-color: rgb(251, 251, 251);&quot;&gt;%3CmxGraphModel%3E%3Croot%3E%3CmxCell%20id%3D%220%22%2F%3E%3CmxCell%20id%3D%221%22%20parent%3D%220%22%2F%3E%3CmxCell%20id%3D%222%22%20value%3D%22%26lt%3Bdiv%20style%3D%26quot%3B%26quot%3B%26gt%3B%E8%B0%83%E7%94%A8%E6%96%AD%E8%A8%80%E5%B7%A5%E5%8E%82apply%E6%96%B9%E6%B3%95%26lt%3B%2Fdiv%26gt%3B%26lt%3Bdiv%20style%3D%26quot%3B%26quot%3B%26gt%3Br.getPredicate().apply(exchange)%3B%26lt%3Bbr%26gt%3B%26lt%3B%2Fdiv%26gt%3B%22%20style%3D%22rounded%3D0%3BwhiteSpace%3Dwrap%3Bhtml%3D1%3Balign%3Dcenter%3B%22%20vertex%3D%221%22%20parent%3D%221%22%3E%3CmxGeometry%20x%3D%22920%22%20y%3D%222352%22%20width%3D%22328%22%20height%3D%2280%22%20as%3D%22geometry%22%2F%3E%3C%2FmxCell%3E%3C%2Froot%3E%3C%2FmxGraphModel%3&lt;/span&gt;" style="edgeLabel;html=1;align=center;verticalAlign=middle;resizable=0;points=[];" parent="rggu2RhGOUVgy3bwYuPT-107" vertex="1" connectable="0">
          <mxGeometry x="0.0208" y="-2" relative="1" as="geometry">
            <mxPoint as="offset" />
          </mxGeometry>
        </mxCell>
        <mxCell id="rggu2RhGOUVgy3bwYuPT-109" value="断言 Predicate.test()" style="edgeLabel;html=1;align=center;verticalAlign=middle;resizable=0;points=[];" parent="rggu2RhGOUVgy3bwYuPT-107" vertex="1" connectable="0">
          <mxGeometry x="-0.0208" y="-2" relative="1" as="geometry">
            <mxPoint as="offset" />
          </mxGeometry>
        </mxCell>
        <mxCell id="rggu2RhGOUVgy3bwYuPT-103" value="&lt;div style=&quot;&quot;&gt;调用断言工厂apply方法&lt;/div&gt;&lt;div style=&quot;&quot;&gt;r.getPredicate().apply(exchange);&lt;br&gt;&lt;/div&gt;" style="rounded=0;whiteSpace=wrap;html=1;align=center;" parent="1" vertex="1">
          <mxGeometry x="920" y="2352" width="328" height="80" as="geometry" />
        </mxCell>
        <mxCell id="rggu2RhGOUVgy3bwYuPT-114" value="" style="edgeStyle=orthogonalEdgeStyle;rounded=0;orthogonalLoop=1;jettySize=auto;html=1;dashed=1;dashPattern=1 4;" parent="1" source="rggu2RhGOUVgy3bwYuPT-106" target="rggu2RhGOUVgy3bwYuPT-113" edge="1">
          <mxGeometry relative="1" as="geometry" />
        </mxCell>
        <mxCell id="rggu2RhGOUVgy3bwYuPT-115" value="&lt;font style=&quot;font-size: 15px;&quot;&gt;例如&lt;/font&gt;" style="edgeLabel;html=1;align=center;verticalAlign=middle;resizable=0;points=[];" parent="rggu2RhGOUVgy3bwYuPT-114" vertex="1" connectable="0">
          <mxGeometry x="0.1458" y="1" relative="1" as="geometry">
            <mxPoint as="offset" />
          </mxGeometry>
        </mxCell>
        <mxCell id="rggu2RhGOUVgy3bwYuPT-106" value="&lt;div style=&quot;&quot;&gt;内部调用GatewayPredicate.test()方法&lt;/div&gt;" style="rounded=0;whiteSpace=wrap;html=1;align=center;" parent="1" vertex="1">
          <mxGeometry x="920" y="2544" width="328" height="80" as="geometry" />
        </mxCell>
        <mxCell id="rggu2RhGOUVgy3bwYuPT-116" style="edgeStyle=orthogonalEdgeStyle;rounded=0;orthogonalLoop=1;jettySize=auto;html=1;" parent="1" source="rggu2RhGOUVgy3bwYuPT-113" target="rggu2RhGOUVgy3bwYuPT-117" edge="1">
          <mxGeometry relative="1" as="geometry">
            <mxPoint x="1084" y="2864" as="targetPoint" />
          </mxGeometry>
        </mxCell>
        <mxCell id="rggu2RhGOUVgy3bwYuPT-113" value="PathRoutePredicateFactory" style="rounded=0;whiteSpace=wrap;html=1;" parent="1" vertex="1">
          <mxGeometry x="920" y="2720" width="328" height="80" as="geometry" />
        </mxCell>
        <mxCell id="rggu2RhGOUVgy3bwYuPT-117" value="apply 方法 返回的为： Predicate 对象&lt;div&gt;具体实现为： GatewayPredicate 对象&lt;/div&gt;&lt;div&gt;实现了具体断言test方法&lt;/div&gt;" style="rounded=0;whiteSpace=wrap;html=1;" parent="1" vertex="1">
          <mxGeometry x="920" y="2872" width="328" height="80" as="geometry" />
        </mxCell>
        <mxCell id="tno-QMCIabjcAEofRb9Y-8" style="edgeStyle=orthogonalEdgeStyle;rounded=0;orthogonalLoop=1;jettySize=auto;html=1;exitX=0.5;exitY=1;exitDx=0;exitDy=0;" edge="1" parent="1" source="tno-QMCIabjcAEofRb9Y-1" target="tno-QMCIabjcAEofRb9Y-7">
          <mxGeometry relative="1" as="geometry" />
        </mxCell>
        <mxCell id="tno-QMCIabjcAEofRb9Y-9" value="适配 WebHandler" style="edgeLabel;html=1;align=center;verticalAlign=middle;resizable=0;points=[];" vertex="1" connectable="0" parent="tno-QMCIabjcAEofRb9Y-8">
          <mxGeometry x="0.0806" y="1" relative="1" as="geometry">
            <mxPoint as="offset" />
          </mxGeometry>
        </mxCell>
        <mxCell id="tno-QMCIabjcAEofRb9Y-14" style="edgeStyle=orthogonalEdgeStyle;rounded=0;orthogonalLoop=1;jettySize=auto;html=1;exitX=1;exitY=0.5;exitDx=0;exitDy=0;" edge="1" parent="1" source="tno-QMCIabjcAEofRb9Y-1" target="tno-QMCIabjcAEofRb9Y-13">
          <mxGeometry relative="1" as="geometry" />
        </mxCell>
        <UserObject label="SimpleHandlerAdapter&lt;div&gt;.handle&lt;/div&gt;" link="SimpleHandlerAdapter.handle" id="tno-QMCIabjcAEofRb9Y-1">
          <mxCell style="rounded=0;whiteSpace=wrap;html=1;align=center;" vertex="1" parent="1">
            <mxGeometry x="1832" y="1324" width="328" height="80" as="geometry" />
          </mxCell>
        </UserObject>
        <UserObject label="org.springframework.cloud.gateway.handler.FilteringWebHandler" link="org.springframework.cloud.gateway.handler.FilteringWebHandler" id="tno-QMCIabjcAEofRb9Y-4">
          <mxCell style="text;html=1;align=center;verticalAlign=middle;whiteSpace=wrap;rounded=0;" vertex="1" parent="1">
            <mxGeometry x="1400" y="1312" width="376" height="24" as="geometry" />
          </mxCell>
        </UserObject>
        <mxCell id="tno-QMCIabjcAEofRb9Y-6" value="HandlerAdapter 负责适配 HandlerMapping返回的handler，&lt;div&gt;调用handle方法生成HandlerResult&lt;/div&gt;" style="text;html=1;align=left;verticalAlign=middle;whiteSpace=wrap;rounded=0;" vertex="1" parent="1">
          <mxGeometry x="1832" y="1248" width="344" height="56" as="geometry" />
        </mxCell>
        <mxCell id="tno-QMCIabjcAEofRb9Y-11" style="rounded=0;orthogonalLoop=1;jettySize=auto;html=1;exitX=0.5;exitY=1;exitDx=0;exitDy=0;entryX=0.5;entryY=0;entryDx=0;entryDy=0;" edge="1" parent="1" source="tno-QMCIabjcAEofRb9Y-7" target="tno-QMCIabjcAEofRb9Y-10">
          <mxGeometry relative="1" as="geometry" />
        </mxCell>
        <mxCell id="tno-QMCIabjcAEofRb9Y-12" value="&lt;font color=&quot;#ff1434&quot;&gt;2、返回处理&lt;/font&gt;" style="edgeLabel;html=1;align=center;verticalAlign=middle;resizable=0;points=[];" vertex="1" connectable="0" parent="tno-QMCIabjcAEofRb9Y-11">
          <mxGeometry x="-0.0996" y="-4" relative="1" as="geometry">
            <mxPoint as="offset" />
          </mxGeometry>
        </mxCell>
        <mxCell id="tno-QMCIabjcAEofRb9Y-16" style="rounded=0;orthogonalLoop=1;jettySize=auto;html=1;entryX=0.5;entryY=0;entryDx=0;entryDy=0;" edge="1" parent="1" source="tno-QMCIabjcAEofRb9Y-7" target="tno-QMCIabjcAEofRb9Y-15">
          <mxGeometry relative="1" as="geometry" />
        </mxCell>
        <mxCell id="tno-QMCIabjcAEofRb9Y-17" value="1、HandlerAdapter 负责适配 HandlerMapping返回的handler，&lt;div&gt;生成对应的HandlerResult&lt;/div&gt;" style="edgeLabel;html=1;align=center;verticalAlign=middle;resizable=0;points=[];" vertex="1" connectable="0" parent="tno-QMCIabjcAEofRb9Y-16">
          <mxGeometry x="-0.0347" y="1" relative="1" as="geometry">
            <mxPoint as="offset" />
          </mxGeometry>
        </mxCell>
        <UserObject label="SimpleHandlerAdapter&lt;div&gt;.handle&lt;/div&gt;" link="SimpleHandlerAdapter.handle" id="tno-QMCIabjcAEofRb9Y-7">
          <mxCell style="rounded=0;whiteSpace=wrap;html=1;align=center;" vertex="1" parent="1">
            <mxGeometry x="1832" y="1528" width="328" height="80" as="geometry" />
          </mxCell>
        </UserObject>
        <UserObject label="返回 mono.then(Mono.empty())&lt;div&gt;返回Mono.empty() 表示不会触发handleResult&lt;/div&gt;" link="SimpleHandlerAdapter.handle" id="tno-QMCIabjcAEofRb9Y-10">
          <mxCell style="rounded=0;whiteSpace=wrap;html=1;align=center;fillColor=#b1ddf0;strokeColor=#10739e;" vertex="1" parent="1">
            <mxGeometry x="2192" y="1704" width="328" height="80" as="geometry" />
          </mxCell>
        </UserObject>
        <UserObject label="&lt;div&gt;DispatcherHandler&lt;/div&gt;.handleResult()" link="SimpleHandlerAdapter.handle" id="tno-QMCIabjcAEofRb9Y-13">
          <mxCell style="rounded=0;whiteSpace=wrap;html=1;align=center;" vertex="1" parent="1">
            <mxGeometry x="2512" y="1324" width="328" height="80" as="geometry" />
          </mxCell>
        </UserObject>
        <mxCell id="tno-QMCIabjcAEofRb9Y-18" style="edgeStyle=orthogonalEdgeStyle;rounded=0;orthogonalLoop=1;jettySize=auto;html=1;exitX=0;exitY=0.5;exitDx=0;exitDy=0;dashed=1;" edge="1" parent="1" source="tno-QMCIabjcAEofRb9Y-15" target="tno-QMCIabjcAEofRb9Y-19">
          <mxGeometry relative="1" as="geometry">
            <mxPoint x="1520" y="1616" as="targetPoint" />
          </mxGeometry>
        </mxCell>
        <mxCell id="tno-QMCIabjcAEofRb9Y-20" value="implements" style="edgeLabel;html=1;align=center;verticalAlign=middle;resizable=0;points=[];" vertex="1" connectable="0" parent="tno-QMCIabjcAEofRb9Y-18">
          <mxGeometry x="0.2111" y="3" relative="1" as="geometry">
            <mxPoint as="offset" />
          </mxGeometry>
        </mxCell>
        <mxCell id="tno-QMCIabjcAEofRb9Y-22" style="edgeStyle=orthogonalEdgeStyle;rounded=0;orthogonalLoop=1;jettySize=auto;html=1;exitX=0.5;exitY=1;exitDx=0;exitDy=0;" edge="1" parent="1" source="tno-QMCIabjcAEofRb9Y-15" target="tno-QMCIabjcAEofRb9Y-21">
          <mxGeometry relative="1" as="geometry" />
        </mxCell>
        <UserObject label="SimpleHandlerAdapter&lt;span style=&quot;background-color: initial;&quot;&gt;.handle&lt;/span&gt;&lt;div&gt;获取过滤器责任链，并处理&lt;/div&gt;" link="SimpleHandlerAdapter.handle" id="tno-QMCIabjcAEofRb9Y-15">
          <mxCell style="rounded=0;whiteSpace=wrap;html=1;align=center;" vertex="1" parent="1">
            <mxGeometry x="1560" y="1720" width="328" height="80" as="geometry" />
          </mxCell>
        </UserObject>
        <UserObject label="WebHandler" link="SimpleHandlerAdapter.handle" id="tno-QMCIabjcAEofRb9Y-19">
          <mxCell style="rounded=0;whiteSpace=wrap;html=1;align=center;" vertex="1" parent="1">
            <mxGeometry x="1408" y="1584" width="216" height="40" as="geometry" />
          </mxCell>
        </UserObject>
        <mxCell id="tno-QMCIabjcAEofRb9Y-24" style="edgeStyle=orthogonalEdgeStyle;rounded=0;orthogonalLoop=1;jettySize=auto;html=1;exitX=0.5;exitY=1;exitDx=0;exitDy=0;entryX=0.5;entryY=0;entryDx=0;entryDy=0;" edge="1" parent="1" source="tno-QMCIabjcAEofRb9Y-21" target="tno-QMCIabjcAEofRb9Y-23">
          <mxGeometry relative="1" as="geometry" />
        </mxCell>
        <UserObject label="获取路由过滤器&lt;div&gt;List&amp;lt;GatewayFilter&amp;gt; gatewayFilters = route.getFilters()&lt;/div&gt;" link="SimpleHandlerAdapter.handle" id="tno-QMCIabjcAEofRb9Y-21">
          <mxCell style="rounded=0;whiteSpace=wrap;html=1;align=center;" vertex="1" parent="1">
            <mxGeometry x="1560" y="1904" width="328" height="80" as="geometry" />
          </mxCell>
        </UserObject>
        <mxCell id="tno-QMCIabjcAEofRb9Y-26" style="edgeStyle=orthogonalEdgeStyle;rounded=0;orthogonalLoop=1;jettySize=auto;html=1;exitX=1;exitY=0.5;exitDx=0;exitDy=0;shape=flexArrow;" edge="1" parent="1" source="tno-QMCIabjcAEofRb9Y-23" target="tno-QMCIabjcAEofRb9Y-25">
          <mxGeometry relative="1" as="geometry" />
        </mxCell>
        <mxCell id="tno-QMCIabjcAEofRb9Y-27" value="初始化时加载" style="edgeLabel;html=1;align=center;verticalAlign=middle;resizable=0;points=[];" vertex="1" connectable="0" parent="tno-QMCIabjcAEofRb9Y-26">
          <mxGeometry x="-0.1222" y="4" relative="1" as="geometry">
            <mxPoint x="9" y="4" as="offset" />
          </mxGeometry>
        </mxCell>
        <mxCell id="tno-QMCIabjcAEofRb9Y-37" style="edgeStyle=orthogonalEdgeStyle;rounded=0;orthogonalLoop=1;jettySize=auto;html=1;exitX=0.5;exitY=1;exitDx=0;exitDy=0;" edge="1" parent="1" source="tno-QMCIabjcAEofRb9Y-23" target="tno-QMCIabjcAEofRb9Y-36">
          <mxGeometry relative="1" as="geometry" />
        </mxCell>
        <UserObject label="获取全局过滤器&lt;div&gt;private final List&amp;lt;GatewayFilter&amp;gt; globalFilters;&lt;br&gt;&lt;/div&gt;" link="SimpleHandlerAdapter.handle" id="tno-QMCIabjcAEofRb9Y-23">
          <mxCell style="rounded=0;whiteSpace=wrap;html=1;align=center;" vertex="1" parent="1">
            <mxGeometry x="1560" y="2088" width="328" height="80" as="geometry" />
          </mxCell>
        </UserObject>
        <UserObject label="调用 loadFilters方法&lt;div&gt;通过适配器模式，将GlobalFilter对象适配为&lt;/div&gt;&lt;div&gt;GatewayFilter对象&lt;/div&gt;" link="SimpleHandlerAdapter.handle" id="tno-QMCIabjcAEofRb9Y-25">
          <mxCell style="rounded=0;whiteSpace=wrap;html=1;align=center;" vertex="1" parent="1">
            <mxGeometry x="2068" y="2088" width="328" height="80" as="geometry" />
          </mxCell>
        </UserObject>
        <mxCell id="tno-QMCIabjcAEofRb9Y-32" value="" style="shape=image;verticalLabelPosition=bottom;labelBackgroundColor=default;verticalAlign=top;aspect=fixed;imageAspect=0;image=data:image/png,iVBORw0KGgoAAAANSUhEUgAABCIAAAHYCAYAAACY4EmLAAABRWlDQ1BJQ0MgUHJvZmlsZQAAKJFjYGASSSwoyGFhYGDIzSspCnJ3UoiIjFJgf8HAzsDHwMUgzcCWmFxc4BgQ4ANUwgCjUcG3awyMIPqyLsis2LxH8Tmn2VN8pl66lh2UL4+pHgVwpaQWJwPpP0CcllxQVMLAwJgCZCuXlxSA2B1AtkgR0FFA9hwQOx3C3gBiJ0HYR8BqQoKcgewbQLZAckYi0AzGF0C2ThKSeDoSG2ovCPAEpabkZioYmSv4uRFwLumgJLWiBEQ75xdUFmWmZ5QoOAJDKVXBMy9ZT0fByMDIhIEBFOYQ1Z9vgMOSUYwDIZZ1l4HB7AcDAzMjQiytlIFhTw8DA/8GhJhqC9ArNQwMB2oKEosS4Q5g/MZSnGZsBGFzb2dgYJ32///ncAYGdk0Ghr/X////vf3//7/LgObfAur9BgALLmBDDnv13gAAADhlWElmTU0AKgAAAAgAAYdpAAQAAAABAAAAGgAAAAAAAqACAAQAAAABAAAEIqADAAQAAAABAAAB2AAAAADjws8xAABAAElEQVR4Aey9B3hcZ7X3uzTq3ZJtWZIlq7hb7jV24ribNJNCQkggARII9QAHDod7KR+H8vGd3MPhwnkI5QCXAIeQAKmkJ3bsuJfEXe6yLbnIltV7v+v/jvZoNJrZeyTNOHb8X37k2bPf/tsze/a73rXWGzFrzrxuCZOMK8yX4uJiv7UPy08252tO1ftN58n3L4HMGenSWtcu1SevzmsfGe2SpKwEqS1tGPhFihAZNiZJ6s83SWdb18DLswQJkAAJkAAJkAAJkAAJkMBVR6CwsFBKSkquun6Hq8NR4aqY9ZJAIALle6sCJV0V5zvbuwanhMDoVO1Xc3oQCoyrggw7SQIkQAIkQAIkQAIkQAIkQALOBFzOWZiDBEiABEiABEiABEiABEiABEiABEiABEJDgIqI0HBkLSRAAiRAAiRAAiRAAiRAAiRAAiRAAkEQoCIiCEjMQgIkQAIkQAIkQAIkQAIkQAIkQAIkEBoCVESEhiNrIQESIAESIAESIAESIAESIAESIAESCIIAFRFBQGIWEiABEiABEiABEiABEiABEiABEiCB0BB4z3bN4LadobmArIUESIAESIAESIAESIAESIAESIAEriYCtIi4mq4W+0oCJEACJEACJEACJEACJEACJEACVzkBKiKu8gvI7pMACZAACZAACZAACZAACZAACZDA1USAioir6WqxryRAAiRAAiRAAiRAAiRAAiRAAiRwlROgIuIqv4DsPgmQAAmQAAmQAAmQAAmQAAmQAAlcTQSoiLiarhb7SgIkQAIkQAIkQAIkQAIkQAIkQAJXOQEqIq7yC8jukwAJkAAJkAAJkAAJkAAJkAAJkMDVRICKiKvparGvJEACJEACJEACJEACJEACJEACJHCVE3BFUBVxlV9Cdp8ESIAESIAESIAESIAESIAESIAErh4CUVkrYqV8fZt0tXdfPb0OQ09TY0Rq28JQ8TVSZWJyijTW112xo73S+3fFgrtCOsbv5xVyIdiNQRGYv3ilTJwyQ9JHZshbrzwn+97ZOqh6WIgESIAESIAESIAE3i8EouIzImXU4hgpf6tNuruvLmXEA0VR0qwKlL8f7ex3Pe6ZGCnD4yM8509Ud8sbp/vnQ4avzY+WogyXrD/ZKX882OEpE86DgfQvnP2wq3v17fdKYmJyvyylJ4/LO1vXe87f9/CXZOzEIj23QV559glzfvktd0nqsHRPnjOlJbJz0zrPe+sgNi5BhqWPkIb6mrApMvz1z2p/sK+r1nxYOjs7ZN3Lz8j1y2+RkaOy5Lm//E7GTZ4u02bNly3rX5cL50ptq7/pzvultblJ3nr1Ob/5brrjPmlrbZV1rzxj0idNmy2T9W+vTmJKjhz0W2YoJydOnSVTps+R3Ts2SeGEKUFdv6G0F2zZcHw/r4bvH/gkRImM1PtYTWt3SBWl/PwG++kber7c/HGy4uY7pUPvFxfPn5GGhitXYTv00bIGEiABEiABEiABEgiOgD7m6sNuVqSkTo6SmuL24EpdIbnmZrukTh/Q/SkipqpiITvZ7XcSEykSFdmpigj/HW9UZQYUGq2dl08RM5D++e91+M9O0olpSmqadHX2VeBEuFx9FBEtOplubWmWtrZWT6fG6kR25Khs8z4qOloio6L8KiKKZs6V2+5+QLa9/aa8/sJTnvKhPPDXv6HWXzhhssTExBpFBJQD2bl5su/dbZI/dqJMm71Adm5+y7EJlIMVSSBFBBQPzY0NHkVEVk6eqfv8mdKwKCIyR48x9V/QyVKw189xkCHIEI7v59Xw/QO6BVku+cTMaHntRKc8URw6JSk/vyH4YAZZRYHeK6JjYmTHW+tk7UtPB1mK2UiABEiABEiABEjg/U3AKCIwxGHToqXuWMd75qKBlb+mITxn+5b/7sZepcof1sTaXsVf7XZu2Ld+2wr9JPqWH0j/UJ1veT9NhOVURfk5+fVPvmdb97NP/LZf+m9++kPPuf/14994jgd7AMuJ1pamgMXt0v31z7ciu/L+0pqbGiUpOdVUk5CYaKyJRmXl6LkU6WhvlzOnT/Rpwl8d3hmc0r3z+jt2Km+X7i9toNfPXx3e/XRK987re+z0/Qzmu+GbJ5TfP9+6ffuP9055nNL91TmUc/z89qXn9Pl0Su9bW993zY2N5oQrUjXiFBIgARIgARIgARIgAUPAo4iI1KOk/EijjLhcbB5dFiMtHd0SGxkhIxMjpKq5W3ac7ZS/HXGvwP/H8hhz7v9sdSsVbiqIlDsnRck/jnbIi7pCCHFFRMi/L40x5SubumW7ln/aj6uGvzF9c2G05A3rjdb52okOecarbLb26Z7JkVKY5pLEmAg5X98lO891yQvH+1oI+Ksb54ZaPi85Qh6YFiW5qS6J0m6eb3DzsdpH+oPToyRLXxOiIqS6pVsOX+qSX+9xK1ac0gP1O9jzH//81wWr6JZsV6uG9a89b721fV15690yZ9ESidDrB5mz8EaZteAGc7z/3e3y8tP/I4jrcM+Dn5VRWbkSrVYVdbXVsvmtV40LCDJ+9NNfMVYXNdWVxiKhpalJSo4dMi4SSHfq3xe+8QNVbrRIXLy6h6QNF9RzcM9Oj4VCnlo3LFm9RkbnFkh7e5ucKzsluQXj1AriWWlSS4XY2Dg0I7FaHn2DK0pCYpKxDsF5p/4jjyvSJZ//1x9I2vCRUlN1SQ7u3SXrA7hqIL+3jMoeIzffeZ9kZudKpE5yLlWUa/93yaa1L5lsTuMrVHeaxStuMeNrbW2R82cCmAx5N+p17DQ+p+vjVZXfQ7vv55qxkXLbhCip1nsG7h37L3TJpBEuae/qlmcOdchbZV3idH/x26jXScSl+OLcaPP9i9HvX5V+v15WZe260i4Jpn278mgG/YMlVoLeW0ao+8Ul3P/OdBoLr3snRcrygihxfztElum9eUmeeyK7taxTHj/QIUP5fvPz6/z9HOrn1/ooVV66YA4TEpKsU3wlARIgARIgARIggWueQO8sXFHEqTvD5ZRYfa7OV0VAkz6M71QFQrwqQ5apssGSOH0PtwpLorV7OIdJuSU5KRHS0Kblz3XqA73ow7tXAStTgNcT1V1y8GKnnNRX1Iv6veW2cZEyKzNSKhq7ZZfWnxobIat1AhSsDLX8RzQGxrh0lxyv6jIKllQ17FjpNb47NA7GWFWSHK/slrdOdeqkRk25R0fKvEz3QJzSgx1HoHxnTpdIydFiM0HHpBzuF8EKHs5RFnVALpw/a97jXPnZUnPujvselpy8sVJ26rjGRdgmUdExsvK2u80EHxmi1TUiZViaxCckyIHdOwWT6elzrpOpsxaY8k79i4mNVwVGvsanqDMKACgkZl93oymL/+YuWip5hRME8S1OHjts+mLGqVo7lIHLSfaYAonRftWqEgMT87iERGnpsdxw6j/ayMgcLc1NDVKsCoh4LTt34RKc9ggUNVA44A/KBm9ZveYeyc138zmgChRYaMy/fpkni9P45i1cKmMKxivfE3Lq+BEZnVfoKRvMgdP4nK6PUxt230/cO/CdLavrkguqoJs2yiVrT3bodzhC5ma7OTndX5zaf2RWtPv7V9klW3TyD2XEvUXRAgVDMO3blUfb6H+Bfn/rVMEBBWxitMgSVThAyvWeg3sTGEAwTrzH3+la97mhfL/5+RUJ9+fXXDj9L2PUaHMI5Q+FBEiABEiABEiABEjATaDPzDFSJ9qXW6BE+P5mt8XDgzrxXlEYKbfo38slwVkd1GuMiB9ucZf/hFoPYOVwtf69rhNzJ3nqsDvPKl1pnDxSZxk+gnNYpbTqv10VEytUEQDLjFc1sKWTDLX8CVVAQAlhWXhYfNBfBN5M1pXUdp2TPHukQ07WdUuGrqrmqmLmZK071oVTulP/kT5CgzD+6w9+1ifrU4//Qk6fOOLxd553w3IpGDepTx6nN7u3bxT8YeJfOH6ynNHJsG+MCEzSqysvyhO/dbf/AQ3euEDbmj5noWxd/5ppAgFWX33uKVUUFJtAkfc99EUpmjFXFRPbg+pfY0O9PP7Yo6auD977SZk5b5FaZyw1MTCyc/KNpcOffvWfJv2eBz8nk6fPNsdQPEAmFs2UNrWWaGpokMSkZImPj1fFgtsUO5j+o/3f/9zd/q0fesBYhiDC/o6Nb5r6M7JGy2e++h1z7Psf3D/K9M+yoLhZg1/OU0UErocVGNRufIg5UVNVKX/6df/x+bbl730w47O7Pv7q9D7n9P1E3q1numS+zvMSVUsAS6o5iHfj5Yk1lPsLlJwXVSHw4x3u+8vH9P60Su9N1+f0KoTs2rcrb93fEOPGur98akaULB6j95gxqlRRq4sNatWxLNclU/Q+dLyqu1+MiKF8v/n5dSsBh3J/8f6s+h6njxglD372a+LSeDpQUMLaCfckCgmQAAmQAAmQAAmQgJtAH0VEp67MXW6pbult8URNl6yQSGOm3HvW/gjuCJaU6OohFBEZCaFRqCRER8gp7ZMlz6tLBv6ClaGW31/RJYtzI+X7izXYo670WtYhiboiC9mr5uhj1WLimze4XVgwaXpDFSQwIQ8m3WRy+A+BHi2rBSsrAiheDomJjTVWAJ/7+vdMcy6XewKIAJqWwLUCSgjI8UP75MjBveah30p3eq2vrfFkqaxwm1BDoQCJU6VCpbo7WFJx4ZxMFrci4mL5WXMabhHY+QKR8OFeEatWFpUVF01aMP33bv9s6UmjiEhLH2E1aRQFhw/sNu/TR2TIhCnTPWkn1HpkxtxF8ul//o5+PiJNQDwkxscnevJ41+87vlgdn7c7hvf4PBXYHAQzvqFeH5vme5N6bwG953qOhnJ/iVN3pyhXt/xIXb8g+tZIelyEcSlzv9P/A7RvV94qW+N1/4JlByQ5SIWw0/ffasPfKz+/am0XxvtLV1eXXLpYblyvcFUT9J6C3YG8v2/+rgvPkQAJkAAJkAAJkMC1QiCq+kC7pE1Vm2CVFp3YXna5yrYMvZx8Pq2m4ZiUQMHSqrE0knQ+lKH+8Jb8Q+NkQOlwgyorsFUpdgKYONwl317fJhfVksMp3arH7rWpsV6e+v3P7bKENQ27cVRdqvC0gYd7u4f5vz7+mCfvUA8wmYiK6tH6aGWxcfGeKk8cPmB2E4FyABYQdTXVEjcpQWLi4tRto9aTb6D99xTsOUB5y1JkmW4B6K2IuF0tOBKSkuRc6SmzYwlcO6AMGawEmE/bVjfQ8YXy+th2zEoc4v2lSY0hLvYoCFDlufputTjqkiyv76HVlL/XQOX95R3ouaF8v/n5ddMO1+e3pqpC/ue/f2IaKZo1Xz700U/rTjRFcmjfOwO9zMxPAiRAAiRAAiRAAu9LAlFVe2F2HCFJanJcf8od5PByjjTFa/VvjJpCQ2rVXBmCh3jEZbBkVFKEWXxEUEpL+pZ3u1dY5a08yK3xMAcsHRr4bpiufloCl4/l+rdJ/cWtYJlWmr/XYMv769/i0S4ThG+7Bq/7Rc+uHjANHz+8t6WZqnioVYuSR7e5TcfvmhApt0+MkpX5LnniUKc4pffWFP4jrNjbSi9mT7aOtjYTJNJShIzIyDJxDHwtNDwFQnxQpXEsEIwTQR0vXTgvBepC4i0tqiRAjIrSkmOqLLmg8SESNKhmjFFKIF8w/U9MdltfIP+o7By8SKNaVzgJLCHSho8wsTGe+fN/m+xwXRmjwTSDlfbWVs/OHyiTbqPE8Hf9ghlfsH0JV76+9wf3hyzY+0ObbufbpgZQP93l/n4h+OzYtAiN29AdlCLCrvxAx+vn6zHk7zc/v5fn/tLZ4f5djVCrNgoJkAAJkAAJkAAJkICbQNSKW5dKh674ueo1cNoNIp2dnbJp06bLxidVJ/pfnRetO0J0yTwNtNiiz2xv9MR3OKJB4m5Un+kvzY2SmmaRGRqQ7pIqITae7bXcgKLgKxrZ/mJjl8zJdpmAjVgp9BaUQdDHh3WHiXZNatDgmNgd4z7dEQPB7VLcmx9Inu5O8WBRhDSr9QH8zS+oq0OBBtNE/RdM/ZEmLsO75b3te7fjexxseX/9W68+4gg+iWB2K/JckqbjXJjTN47F7ap4yElxyUaNFwEXlSL1JccCMNqFOKX79neg71et+bBaDER5gkdmjc7TXRzuN0Ej1738jKc6+EfnaFDF2+75uHR2tEuTWhBs6NldA0ES21XhMH7SNHXDUE8hHUCxrhoiBkXlpYsyWoNBIqgc3Aam6spi+vAMefL3j5mJv6eBAAfB9i9AcTl++KAGsyyQ+x/+krF+6NC+ewvcDrBLBuIwnC456tlFA7tXQILpf3LKMLn3k1+UKo2FgfgTWKHdtPZl72b8Hp88ftjkzc7N06CayyQ5dZhMUz4DkfJzZVI4YYrc9bFHNMZFvYybNNVv8UDXL5jx+a0wyJN2389gDR3s7i9WN/x9/3B/gKsEvn+fmRklZ9US4jqNDQGLpP/a3vdzYNXj+2pXvtxLmepbzvv9IQ1E26r3rOl674t04fshsvN8pxzSmBFD/X7z8zu0+4v3dbI7hksGBHFkKCRAAiRAAiRAAiRAAm4CUQtmLVQ/aLdrBk698orzJCiU8M7rA37esAiZkRkl9Rq4cqtaADS5F5A0Cn6nZKoVRNHISBMfAQ/2sEbwFpQv1FXKWVlRgsBvW7S8r2wq7TTuCwgEh90iseUfJhpL8qPMTh1W/iK1MCjK0BVp7QcUEc+oVcHtE8UEspypO1FUarm3ddJ/rmeib5UL9Bps+UD9w1akUK48OD1aXTNETqlJ+MThvatqbyqfOyZGyFINngmLD/R7n7rXINAdxCk9UL895936DM9b34PZCxaru0KPFkcTCydMNn9wVfBWROzZucXEMpg1/3rlH6EBIGs8ighYEmDHh4lFM2Se7lIBMRN7VUS88uxf5M77HzIKCAR9a6irld07NnliQiAQIv4FkmD6512+u7uvgmnjmy9K6cljupPFUrOzRYeubF5340pPcy3NCEo5wgS0bNRdNFqamw0PKFEgTv1HnksXzxtlC8aPce/TrUs9EmB86HNdTZXZqnPStFlyy133G9eM82dKdZeP8Z7iOLAb356dmwXxNhDcE6u25edKzc4gfSrQN4Gun9P4nK6Pbzu+7+2+n+t6gsWq0ZKt2N1frIKBvn9/2t8hj8yONgoILGbXqrIPSr8DqiCdNNxt4WPXvl15q21vhYq/uqCwwJaeM7NUIanfc0idfs8PVXUO+fvNz+/Q7i/WNXR6tXa7QZwICgmQAAmQAAmQAAmQgJtAxAMPf6L7zjV3mQnizp27QqqIGFeYL8XFxQFZ/3RljNl689tvt8tUjW2AB3x/guBwmRp/r1hXBwMJ3BD2XPRfPlCZYM9ju77c5MD9c6pnqOWdxlagLi0jNEDnzgCWGk7pTv1/r9OxO0OyukDAr/29lDvv/5RMm71Anv7zb+Tg7h1BdyWY/o/XIJTHivcFXad3xqGURT35uuNJlVqfQLkxGAlmfIOpd6hlgr2/OLWTq8rQNI3Bsk+Dxw5Ghlreqc1wf7+Dub5D+QwOpSzYXOmfX+xO87FH/lmD3yZIvSpT33zx79xBw+lDzXQSIAESIAESeB8SKCwslJKSkvfhyAY3pIhZc+Z1L1myRHLH5MoTf35CEKAvVDIQRUSo2mQ9JBBKAp/92r9JvLpfuNSSAyuamLA/9ui3Q9kE6woTAW9FRJiaYLUkEBQBbOeJrYqzcsbI1g1vmB1+girITCRAAiRAAiRAAu8bAlRE9L2U6nQssmHDhr5nL9O7o1VdJiDlZWqOzZDAgAlUIgil7hwCN4Pys2WyY9PaAdfBAu8NAd5f3hvubLU/Abigvfni3/on8AwJkAAJkAAJkAAJXKMEjEVEuMbuZBERrnZZLwmQAAmQAAmQAAmQAAmQAAmQAAlcKQRoEdH3SvTdhqFvGt+RAAmQAAmQAAmQAAmQAAmQAAmQAAmQQEgJUBERUpysjARIgARIgARIgARIgARIgARIgARIwI4AFRF2dJhGAiRAAiRAAiRAAiRAAiRAAiRAAiQQUgJURIQUJysjARIgARIgARIgARIgARIgARIgARKwI0BFhB0dppEACZAACZAACZAACZAACZAACZAACYSUABURIcXJykiABEiABEiABEiABEiABEiABEiABOwIUBFhR4dpJEACJEACJEACJEACJEACJEACJEACISVARURIcbIyEiABEiABEiABEiABEiABEiABEiABOwJURNjRYRoJkAAJkAAJkAAJkAAJkAAJkAAJkEBICVAREVKcrIwESIAESIAESIAESIAESIAESIAESMCOABURdnSYRgIkQAIkQAIkQAIkQAIkQAIkQAIkEFICVESEFCcrIwESIAESIAESIAESIAESIAESIAESsCNARYQdHaaRAAmQAAmQAAmQAAmQAAmQAAmQAAmElAAVESHFycpIgARIgARIgARIgARIgARIgARIgATsCFARYUeHaSRAAiRAAiRAAiRAAiRAAiRAAiRAAiElQEVESHGyMhIgARIgARIgARIgARIgARIgARIgATsCVETY0WEaCZAACZAACZAACZAACZAACZAACZBASAlQERFSnKyMBEiABEiABEiABEiABEiABEiABEjAjgAVEXZ0mEYCJEACJEACJEACJEACJEACJEACJBBSAlREhBQnKyMBEiABEiABEiABEiABEiABEiABErAjQEWEHR2mkQAJkAAJkAAJkAAJkAAJkAAJkAAJhJQAFREhxcnKSIAESIAESIAESIAESIAESIAESIAE7AhQEWFHh2kkQAIkQAIkQAIkQAIkQAIkQAIkQAIhJUBFREhxsjISIAESIAESIAESIAESIAESIAESIAE7AlRE2NFhGgmQAAmQAAmQAAmQAAmQAAmQAAmQQEgJUBERUpysjARIgARIgARIgARIgARIgARIgARIwI4AFRF2dJhGAiRAAiRAAiRAAiRAAiRAAiRAAiQQUgJURIQUJysjARIgARIgARIgARIgARIgARIgARKwI0BFhB0dppEACZAACZAACZAACZAACZAACZAACYSUABURIcXJykiABEiABEiABEiABEiABEiABEiABOwIUBFhR4dpJEACJEACJEACJEACJEACJEACJEACISVARURIcbIyEiABEiABEiABEiABEiABEiABEiABOwJURNjRYdpVQyA15r3t6nvd/ns7erZOAiQQTgIpw9JlzYc/IZ/7+vcG1Uxicsqgyl2uQld6/y4XB7YTOgIfeuAz8uDn/kUmFM0MXaWsiQRIgARIIKQEokJaGyvrRyBBCY+Mj5Ca1m6pbeuXPOQToax/ziiXzMtyydtlnVJc2T3kvqGCofYvmPJfmx8tRRkuWX+yU/54sCMk/fatZHV+pBQMi5AITThb3y3/ONHpyRKO9u+ZGCnD9XNjyYnqbnnjdG+b1nm71ykz5spEfQjbtWW9lJ06bpc1LGlzxy6WtKQRnroPn9knZZUnPO+v9YNwX5/Vt98riYnJ/TCXnjwu72xd3+/8YE7ExiXIsPQR0lBfI431dYOp4qoug0lOkX7P9u/eIccP7QvLWIalj9QJ1dckVZURZ0tLPG0Ee33ve/hLMnZikV7zDfLKs0+Y8stvucvUZ1V2RuvduWmd9dbzejmur7/+eTowyINVaz4snZ0dsu7lZ+T65bfIyFFZ8txffifjJk+XabPmy5b1r8uFc6W2td905/3S2twkb736nN98N91xn7S1tsq6V54x6ZOmzZbJ+rf3na1ScuSg3zJDOTlx6iyZMn2O7N6xSQonTAnq+g2lvaGUDcXv11DaR9maqksyftI0uefBz8rbb7woG998cahVsjwJkAAJkECICVAREWKgvtUt0In9J2ZGy2s6cX2iOPST5FDWn5caIQtzI6WsrlsVEQOb9PqO23o/1P4FU76xvVua9a+1MzTKE6vv1uu3F0XL+OEu6egS6dIm0qq7+igiwtH+VFWsZCe7DZZiIkWiIjtVEWH1KLjXrJw8mTZ7gWCS8V4oIgpGTZARKaMk0hUpEREuOXnhaHAdv0Zyhfv6TNKJS0pqmnR19v0uR7hcIVNEFM2cK7fd/YBse/tNef2Fp96XV27lbffIdYtXyCvP/cVM5r0HiYkOvmMlR4u9T4f0+I77Pmmu47pXnpPN61721B3s9W3RyXRrS7O0tbV6yo7ViezIUdnmfVR0tERGRflVRFyO6+uvf56ODvKgcMJkiYmJNYoIKAeyc/Nk37vbJH/sRHO9dm5+y7FmlINyLZAiAoqH5sYGjyLC+j6fP1MaFkVE5ugxpu8Xzp+RYK+f4yDDlCEUv19D7dral56W4r275O4HPiuLlq6W82dLw6YsHGpfWZ4ESIAErlUCVET0XHmsvDfZ6Amc0of6AXKq3yndqX278nZpTvWGKn0offjVbpsL19PBodRfmOaSI5Vd8qMt7X6HG4r2ffv33Y29bf1hTazfdi/XSayKtrY0Dbi5v235nSlz+/yPyejh+XK8PPSrhAPu1PuwgN31qSg/J7/+yfccR21XBwo7pTs24JAh3PU7NG+bnD58pEB5c/pEf0Vaalq6UfQcPrDHto7BJmIFf0zBeDlycG8fJYRVXzDX99knfmtl97z+5qc/9Bz/rx//xnM82AOn62eX7q9/vv2wK+8vrbmpUZKSU001CYmJ0t3dLaOycvRcinS0t8uZ030ts/zV4d0Hp3TvvP6OncrbpftLG+j181eHdz+d0r3z+jse6u+Xb3l/bQzm3Pkzp2WtWqzced/DMm/R0oCKiPS4CKlqCc9CxmD6zTIkQAIkcK0QuKYVEY8ui5GWjm6JjYyQkYn6Q9TcLTvOdsrfjrhXEL++IFpXpSOksqlb8oe5pElX3Q9WdMmv97gnvrlJEXKHmtCP1YlqQnSElNZ2yfazXcaE/t5JkbK8IMqY8uPDtExN+5fk6dK2ylZ1fXj8QIcgrsAX50ZLbqpLYnTxGz+ELx9Tc9JSXXpXydY+3TM5UjARToyJkPP1XbLzXJe8cLxTQlH/tBEuWTNeXQ60fnA4XTOwH+I8ZfPg9CjJ0teEqAip1v4fvuTmE0z/UP6BaVFm/FE6/vMNbv7Bju+bC6MlT6+LJa+d6JBnjvau/trxs8oEes1Qt4jxaW7XiEhtok0v+fXZ7rZqdWHxgComnNrH5wuWGgl67UZofZfw+TrTKX/v6aPd+AP1K5TnMzJHy5LVH5TReYUSFx+vpsplcmDPTs/KaJ6uHi5ZvUZG5xZIe3ubnCs7JbkF43SV8VnZubm/GXegviXGJktLm39Fxsz8hTIua7KxnGhtb5FzVaXy1oEXlbd79XbB+GUyNmuSDEtMl9rGanM+OjJGntj4S9OcU/r0vPkyo2CBJMWl6GSkS8przshz2/9kyuLcRxZ/RirrLkpqYprExyTKpboLsvfkNjl6/kCg4XjOZ48pEJdaevhKXW211NVU+Z4e8PtwX59R2WPk5jvvk8zsXImMjJRLFeVycM8u2bT2JdPXERlZAhP+0WPyJT4hSS5dPK8rjO+Y9JW33i1zFi1RSxf3d2TOwhtl1oIbTLn9726Xl5/+H3Hq/0c//RWzKl9TXWlWrFuamqTk2CFjQn/jqjWyUFcx9+zYLK89/6SH3Ze//ai6gdTJ7372vz3n7A6W3nSHwHIgfUSGVFdWSGtri66Ux8ivfvxvptj8G1bI/BuWS8owWI50qevDSfnTr//TpCEeQ1LKMIlWiwHIJ//p/zKvmMj+v9//F3OcrOlNOukNpKi7bslqNaefLRk6CcbKf2nJcXlJ2Vj5nfpXMH6Saef44f3mdSD/ffzzXxesoluyXa1W1r/2vPXW9jWY64u4DjB7H5WVaxjhc7/5rVc9ViN21xeNO/XvC9/4gXJq0XuTuv+kDRd8Tg7q/cmyULC7PzWppUJsbJwZY6yWR9/g2pKQmKR1NpvzTv1HJpfe/D//rz+QNFVGwdT/oK6wrw/gqmEq9frP6fvlNL5CdadZvOIWc//F5xaT6oGI0/icro9TW0P5fUXdTr9/ds8XVvlAzx/efS/Wz8zKWz+k17DXTdBKhwLkR0tjJDk2wjx7Pe31/GDl4SsJkAAJkED4CPR/ig5fW1dczbGqF7AUDDtVARGvP0rLCtzKAnQW6ek6gcREcpumt+hkFK4LC3smpDeNjZQ5WZFSqRPMgxWdkp0SIXdPiZICfS1v1HMXO+WEmvFDyuq6zHucO60KC8gjs6JlXLpLjuukdosqJ6CMuLco2igokH7buEiZlRkpFVrXrnOdkqo/lqu1TUgo6l+e7zIuB8eruowCoTDdPakwDQTxn6WEOa7xJN461amTbpEFoyNlXqYrqP59pCjKPX5tf7vyTdWF/5U9/IMZH9iC50l9jdNrF+3zabbj5zS8G3Nd8sicaPOHvNM0fob1/k5VMkGc2kefoOSpUwUNFFyJOp9ZogopS+zGb+UJ5ysmSZOmzZJafcAvOXpIRqip9vKb7xSYGEPm6gpSXuEE49px8thhyckbax7uIyN1YAOQ+NhEaWpt7FdiZEqWLJi4RJLiU+XUxWOqZGiTCaOnyvzxS03e7LQ8mT12kcRExcrxc4fMpDczLUc6u93KJqf0SaNnyA1TVpm6jpzdLzWNlZI7olCun+Q+lzdinCofEiQzbbRcrDknZZdKZNSwLJmUM6NfX/2deOAzX5WHdHLq+7dQuYZCwn19Vq+5R3Lzxxq3HSigsII8//plnq5fv/xmjTEyQyfwl+TQvndM+nU3rjTplZcuGHeEM6dLzPsL58+a93BRKFcTaIhT/6PVdB4KgPiEBDmwe6dREkyfc51MnbVA3tm2QVRzJOMmFZm68N8NOinDZPJ82SnPObsDTFRhkh0bF2f673JFSI4qjzo73J+fGXMXycrb7jZVQHmCMWHiD1cMyIVzZ1VxcExjDXRKU0O9OcZ7bzeMxKRkaWzwHxsD3yMo8lJS0+XYof0aT6BFxzZPlnxgjanfqX/INHzEKOnq0vvzgd2mzED+w7VBX6FAxKQc7hfBSjDX9w5dZcY9AW5fe9/ZJlHRMYanFXjS7vqiH079i4mNVwVVvlE8QQEAhcTs6270DMHu/gRlFVxOoCyM0X7hHod+xSUkSkuPdZdT/9EQlGnNTQ3GxD9ey85duMTTPg6giIPCAX9Q5nmL0/fLaXzzFi411jBlp07IqeNHjMLYu36nY6fxOV0fp/qH8vuKup1+/+yeL1DeKR15LGmoq/FYyFjn8Jqiz3ZY5MFCyDC1iqCQAAmQAAlcXgLBP5lc3n5dttYa2rrl+5vdZvAP6sR4RWGk3KJ/L5e4H1YRE+CJ/R1mBXzmSJd8Wa0k5qsiYqtaJkxSiwIoIX7QU/4htQ6A1cMMnbQ+d6xTNpR1yTKd0E7RcseruvvFiMhRhcVFVTL8eIe7/Y9p+6u07etz3O1P1nJYRf9hj0vA7aqYWKET9Zv071UNzDjU+qGEgbXHo9vc7f/TnCiZm933YcruQiTrD3i76lSePdIhJzWuBKwIcnVMJ2u7jXWHU/9OqAICShBrFcLiv0oZIjCjU/mnDruvEfKDla848fPN7/1+n1q+tGqwMwiUS3DN2H/BrUCC5QzEqX3kqdMgpdb1+9SMKFk8Rq/hGJesVasXp/GjfDgF/tK11VXy+5//u2nmtnselNkLFst4NQfH6lt2Tr5ZSfzTr9wrxPc8+DmZrKu7A5EEtTKIi1Fri5qz/YotmLBUHwCj5NX9T8vpimMyMXuarJ51l1ovuAMszhl7vbE42HDgVTl58bAU5c6R5dNvk8aWelOXU/qknOmYy8qbe5+X89Wlkj9yvKyZf7/W7zbZHp6SYeo5cvaArNv/gjl+aMXXJFkVI8HI5nWvSrSurvsKJg2hkFBcnxEapO9ff/CzPt156vFfqJvBEWOeXqYm6tYK780anG+eKiLmqYUAAhcWjJtkJnCPP/aoKb945W0m/bobV2tMiNdl9/aNZmJYOH6ynNHJkm+MCKf+o1KYzL/63FNy8lixCSR430NfNMEfD+zerhPcE4Igi1NmzhOsak6YMt1Y5iAeRTCyaOkHzOfn1eeelCM6kZ+jk8hbP/QxqddJCWT6nIX6f7e88Nc/qJLhqIzX+u976J88QQCf+fN/m3z/948ekwq1Bnnq9z83763/YM4eryvs8Nn3J7A2ioqKlqef/o0xCZ82+zq58/6HBVYUEKf+IQ8mt11dnQEDgdpdX/jIQ3A9cS0HIri2TtcXk/TqyovyxG/dn68PaPDGBdoWuG5d/5ppzu76BtO/RlUAWZ+/D977SZk5b5Fex6Umxond/QmKBwiC9bapNVdTQ4NAaRSvll9w24AE03+0//ufuz//t37oAW37Rpm/eKXs2Oj+DGZkjZbPfPU7pj7f/+D+Yff9Qn678UGRVVNV6bHQGej9N5jx2V0f3/H4vh/K7yvqcvr9s3u+QHmndOSxpKOjw7hXWe+t13J9/nlsV7tkqvUpnqkoJEACJEACl5fANa+IqG7pBX6ipktWSKQxo7fOwmUBZviQPTo53VPeKRU9VuZJOhE/pWUswQo5FBFJ6qYRjMSpO0OUq9uYBiK/vjUCf0UI3D28639eXTLwF6wMtH7sBjE32Mo1316dmI9Vi45v3hBj3FqgVHlDf8yD9bXcrzwXq4XJ9xdrsDRdrURQRkhi/7mdO2GA/w+F31HdpeJotZs1FBFQKHjvlBFsV2q8/E4vqOsJBGagkHCP3zRi81+8+k57m/vCLB2KCKz8QeCuUanm+pZUXDgnk2Vgioj8jAlmMljfXGtV43kdmZqpVgpVRgmBk13QGqi0q2UEJD15pNQ2VRklBN7DtQJS1+SeSDqlY8cOlFk69RZTzr3nidbf6Xb7SElIM+k7jq036fjv1MWj0qkTv2DEcmEIJu9g8oTi+sAdwLJasPqAAHuQE7paDquAT//zd0xAUUupEh/vvv6xev29Px+IOj+QyPNO/UcfYHoPJQQEu04gFgJM4CHYHQCKiJnax3INADhKXUgQCLBKLReCkZGZ2VJdVWGUEMgPywIITPwhwzMyjTvGLaqAMdJz/4UZvCVjJ001yqa6mmrrlOcV1iJQFFj1eRJ6DuAWgb5au2l09Xx+sdMCxKl/PdXYvthdX9uCIUiMiY0147e2FHW53DdwBEi1xO76WnnsXutr3d915KmscF93KBQgdveni+VuxSfcjrDzRYNarcC9IlatLCorLprywfTfu33cH6GISNNdYiyBosCyVoH7D5Rlljh9v5DPu37f8fl+/wZ6/w1mfEO5PkP5fcXYnX7/nJ4vnNLRRjCy52LvM1ww+ZmHBEiABEggdASueUWEzkQGRPNnu9yr5P4KDbAqU0WTGiNc7Jmg4sQ5VQac7HHd8NfGQM+Fs35MzKF0uEGVCdhqEpGyJ+ruEt9e3yYXe6wG7Pr7aXVNwaS8RBU4rarwSVIFRIauTFwrcqWNvxvmP16CiVtUVK9WKDYu3is1uMPhyW6rg8p698O/d6m46ASpbnBPOnF+ZEqmSbbOxUXHS1VDhadIZlquObbqck5PEChAvJUgdc01UlpRYupJjE2SFo1L0dDSa1q/bv8/PO05HTz85W+ZeAO++fapmfrmda/4nh7y+8Fcn6bG+n4r+VZHbtcV5oSkJDlXesrsqAAFFCZr4RLf/vtr56+PP+Y5DXcQxKWA+f+CxSs0DkGMZ9LnyWRzEK+m/BUXexVpOXmFJndFzyQVQQxhEeStSMDEsqRHMYLMaBtSdan/5xeKEUjFhfPm1fc/1F/p1T4mxRBLuefUP+TFSi5cobC6bU2ucd4Su+tr5QnnK+ItVF3q/Y5e0vF6K6982/a+vr5pA31vd386cfiACSIK5QAsIKBIipuUIDHqptNQ36sUHWj/ffuI8pYl0DJ1a/NWRIT6+9X37uzbE//vBzq+UF4f/z3qPev0++f0fOGU3tuSutmqa5Lv7kHe6TwmARIgARJ4bwhc84qIlJ7VaeAfo24FkFpd/Q5G2nXi5u1XmKdBJyFwp/AVf9PrNt1usk0XX3+qpoEQBH8aqwEST+hqPKTDp/7VGl9guf5t0ngSL6oSwFsGUz8m/4g7YUlGQu+xdc7udaYqHmp18dBy7bhrQqTcPjFKVmrsiScO2fdv8WiXCRC6XYM3/qJn1wu4powf7r/FgfXMXcdA+PlvNXxnBzJ+fBo0nmrIpVMnOZaZOCrPHO2eKFkTM6zmYlUXQdMu6WSrQE3wByrJ8W4z9NKK432Kpuj5KJ1gWavUSMxKzzXBKE+qVQKktaNFElRZgLyopzBzorFggBuHUzoCUaJ+KDVeeudJkz93uMa4iNZ4E+XuFXjU3ewndoXJHMR/HWry7eoJ1uidHZPHUEg4rw8sIRC8DbEZLBcEmNaP0WCklvi2j8CO8Mvfu2tLf0WLn8+nb3nfz5fVjt3rseL9smjZB3Tbwuukoa5Wtm14vV92jGX4yEwTKNEKAolMLTpJxC4Jw9JH6t9wY6aPzxviNaRorAm4TWDibLlc4HMep8o2bPlnCXbMgMBNxFewMg7T9pIjB32TTJuov7PHvQsZwBbWFkfV6gNi1z+TQf9D0FPEIRg3eZpfRYSVb6iv2GLXVvxc3462NuMqY/FDcFMEvvW1wLGtdwiJTvcn8EUMEsT1QN44jUUCZZZl3RJM/xOT3dYX6Oao7BzT20AxQbyHEsz3yzu/v+N2tZyxdv5AuvVZ9JfX3/ULZnz+6vI9F+j7Fezvq7/fr2B+/5yeL5zSvceBoLMIYOpP4OqaHidyTJ+7dpbTOsIfI54jARIggXARuOYVEanqBvHVedG6Y0OXzNNAiwhI+YYGXgxGYMmAYIRf0fK1ahkwS4M04tXb1/CQBnJs1eqma9yISPWHV5dk2Xm+Uw5pzAiY6qP8Z2ZGCdwirtPYELAI+K/t7QLfxQvq6lCgcRy+ojtrXGjskjkavwF+ke96/VgOpf7TGssBVgyfnx0l9WotjD4ORG5XxUNOiks2ajwH7JhRpHEaYBWCflsSqH8HlQuCW2L8K/JckqbXYWFO//YDlQe/+3RHkWh16UjRhwgIFEEPFkVIsypYsPNJMPzcJQf3v1P7drUGO37UcUk/Cwhq+rDGIGnXz1KD7sThvTuIXTtIKxg7SUboRM0SRPnfoNHzsco7WoO53fvJL5pVwolTZpjJ3va33zBZjx8+qMHiCuT+h79kVpM6OtwKM6ueYF6bWt0Pf4un3CQNPe4ZZZWnpFxjNnToJG1kapbcqGmJqjjIHJYjx84dlOpGt5WEFVzyo0s+rxP+SB17Wx8LBqf0js52ydDgk9hZI1onhVPHzNG6Kz2KiDgNVGm1FcxYfPP84Rf/4XtqUO/fi+tz8vhhs3tAdm6eKheWSXLqMJk2a36f/ldVVmjE/nzz+cBnZbIGNkVMhCNeW1UiHka7TkjHT5pmVu5xAyhWSwbEoHD6fPVpLMCbjWtfNrtxwFrjkO6o4SsIQHjzXferZUqswJT9lWf+7MlSpSb4CD75ua//m3E9aWtrNTtXWDuaYCcY+OEv0501ELhv9nWL1YLhQh9FhOWmgSCFk6bONDtk4LsDSdZJLhQNiKvhLSYIo1pV4PuC+m9SBQ/4YvcZBF2ElQfEqX/Ic0xX9hGgsUjjZGzRHSkGIqvWfFiVLVEmSCPKZY3O011S7jfKkHUvP+OpCq4wOflj5bZ7Pq6BPNv7jNHu+lb23D8QFBFuA1P185M+PEOe/P1jZuLvaSDAQbD9C1BcnO5PcDvALhmIw3BaY4BYu2hgdxhIMP2Hohb3xyqNhYH4OLAw2KSfSScJ5vvlVEf5uTIpnDBF7vrYIyZY6jh1E/Inga5fMOPzV5/3ObvvV7C/r/5+v9ZrjCSn33+n5wundGsc2JkGCsnDGrPDnyDo+DC16CzfO/DfN3/18RwJkAAJkEDwBK55RcR5VQDkDYuQGZk6GdfAlVt1hb6pZ0ETuvHeKXV/qM9osMQ1E8QErcQOG9h+Eiv83gKFArZsnJmlE27VvEPqtJ1DVZ3yJw2C+cjsaKOA0Pm0UWJgUm/FpHhGrQpunygmEONMVXIgMObbmn7Oa6I/lPphWYFdQeapgqNDB4vtR8cNYOeMNzUexB0TI2Spjgsr9o06rn0aNwKBGC2x6x92ypijgT8fnB6tq9/qn6/tTxzed+nNrvyS/Ciz04nVVpEqVYrUEwD9gCIiGH5WWcdXPx8Ep/ZRJxQzlnh7PsClJZjxo+ym0k7j/oJAl1iAr9bPQVCKiJ62sTOGt9Sp3zUmU2+9+rwsXnmLIKgg4gPAZBwr5JYgHkDpyWMaKX6piRyPlX5r1wQrj9NryYUjxtIhf9R4EysC+Vt1a86SC4fkwOl3dGvOyWZ7zZa2ZjlTeVK2HHnTUyW22ZxdeL1k6U4ZZypP6/FCz7aeyOSUfqhsr0wZM0vmT7jRxJ2AdcQbGrgSgsCVsJiob+p1yzAJl/O/cF8fr8+e77AwGcdWnfhs3KITeUzSEX8hr3C8J+tbrzynuz7cJvnjJhqT81otg7gN1kQaGbHSjB03EC9hnlpLQMzETxURTp8vWBPgn53AwgGfSyjE3t2xsV/WRt0dAYoQrHQjXoK3YBtO7PyRM6ZQTulEdOGSVZ6tG5Fv766tMmve9foduNWMH24Uzz/5e+8qdLJ7QAM9TjScYJmAsVuKiMTEZGNV4auIwJd0/7vbdOePjTJZtw7F9qBwDzipTNZ6KQCc+oeOIL7EKVUaIVbGRzSQJhQIHhcNe3Qm3gt2DLGkcMJkndhONn3xVkTs2bnFxAqZNf967XqEBqh13x9Qzu76vvLsXzT45kNGAeFyuYwSE58PK+aH0/VFPBqn/nl/PqwYMdZ4nO5PLc2NmnWECbiLz0lLc7NpD0oyiFP/kQfXG8pafL7xud6nu6t4JMDnF30O5vuFeuzGt2fnZt1xJc0Eb4V1Ufm5Uo+rkKcPehDo+jmNz+n6oA2771ewv6+Bfr+cfv+cni+c0tF/bAM8//rlJhbNhtfcAYlx3pLJ+rwDq1bsTGZtm26l8ZUESIAESCD8BCJmzZnn8Dgz+E6MK8yX4uLiwVcQ5pI/XRkj2DXj22+3y1SNbWApAAbaLPaizlJLhhNqYTAYyU2KkDRVCGCnBn+Sqm76ucmD759T/VN08l+uz2zBBpn07SO2Kx2hbh2DNWuEiWU4A0YNlZ/veEP9Ptzjd+ovov8PzxilsQJO2ma98/5PqYn8Ann6z7+Rg7t32OYdSGKeKgUsd4tA5SZkTZVVs+6UE+cPyau7/94vW6B07NqRnZ6vVhD9zef7VXKFngj39cFuEceK9wUcPVZFMzJzPBPMgBkDJATbf3/FUfbL3/p33emiWn75H9/1l8W4WcA1w5oA+8uELUHvuO8hObT/XXn6T7/2ZMHYsI0mduUIl4zTXWisgJWB2gjUP+QHg4/obiJQEsE95Sff/5dA1bwn5xG/AtYhiMvwXspg70/B9N/pO2I37qGURb35uuMJrIssSx67tvylBTM+f+Wsc3Bjsvt+DfX31en3z+n5IlA6LEmmqiURlICv/+NvslcVO75i7VS2VndJ++PBnhUo30x8TwIkQAIhJFBYWCglJSUhrPHqroqKiB5FxNV9Gdl7EggPgc9+7d+MOT5iISRotHo8ED/26LfD05hPrR9a+ElJ1Z0tIPGqUGhTS4q/bv6t2UkD55zSkef9Lu/l9bkcbJffcpfcoFYN2zeuldeef3JATX7iC9/wBN9MVBN9uFn87r/+j1nlH1BFYco80P5dt2S1YKtUa7vMMHXrqqr2/f75v6ouxhXW2dW332sspTa++VJAJc63FkXrluO685cG2B7sQswVNmx2hwRI4AonQEVE3wt0TbtmHK3qEuwqQSEBEvBPoBJB3nTnBZjxlp8tkx2b1vrPGIazjS31PVtpdsuluoNysPQdjxICzTmlh6FLV1yV7+X1uRwwYPJfcvSQbPUTpNKp/fq6GnewSDVUO1h+Rt7d+vYVo4RA3wfaPwTq9Bes04nD+zn9/f75fz9fu3CP7fXnn3JsYsfZLtmmrrNUQjiiYgYSIAESCAuBa9oiIixEWSkJkAAJkAAJkAAJkAAJkAAJkAAJeBGgRYQXDD3sv01B33S+IwESIAESIAESIAESIAESIAESIAESIIGQEaAiImQoWREJkAAJkAAJkAAJkAAJkAAJkAAJkIATASoinAgxnQRIgARIgARIgARIgARIgARIgARIIGQEqIgIGUpWRAIkQAIkQAIkQAIkQAIkQAIkQAIk4ESAiggnQkwnARIgARIgARIgARIgARIgARIgARIIGQEqIkKGkhWRAAmQAAmQAAmQAAmQAAmQAAmQAAk4EaAiwokQ00mABEiABEiABEiABEiABEiABEiABEJGgIqIkKFkRSRAAiRAAiRAAiRAAiRAAiRAAiRAAk4EqIhwIsR0EiABEiABEiABEiABEiABEiABEiCBkBGgIiJkKFkRCZAACZAACZAACZAACZAACZAACZCAEwEqIpwIMZ0ESIAESIAESIAESIAESIAESIAESCBkBKiICBlKVkQCJEACJEACJEACJEACJEACJEACJOBEgIoIJ0JMJwESIAESIAESIAESIAESIAESIAESCBkBKiJChpIVkQAJkAAJkAAJkAAJkAAJkAAJkAAJOBGgIsKJENNJgARIgARIgARIgARIgARIgARIgARCRoCKiJChZEUkQAIkQAIkQAIkQAIkQAIkQAIkQAJOBKiIcCLEdBIgARIgARIgARIgARIgARIgARIggZARoCIiZChZEQmQAAmQAAmQAAmQAAmQAAmQAAmQgBMBKiKcCDGdBEiABEiABEiABEiABEiABEiABEggZASoiAgZSlZEAiRAAiRAAiRAAiRAAiRAAiRAAiTgRICKCCdCTCcBEiABEiABEiABEiABEiABEiABEggZASoiQoaSFZEACZAACZAACZAACZAACZAACZAACTgRoCLCiRDTSYAESIAESIAESIAESIAESIAESIAEQkaAioiQoWRFJEACJEACJEACJEACJEACJEACJEACTgSoiHAixHQSIAESIAESIAESIAESIAESIAESIIGQEaAiImQoWREJkAAJkAAJkAAJkAAJkAAJkAAJkIATASoinAgxnQRIgARIgARIgARIgARIgARIgARIIGQEqIgIGUpWRAIkQAIkQAIkQAIkQAIkQAIkQAIk4ESAiggnQkwnARIgARIgARIgARIgARIgARIgARIIGQEqIkKGkhWRAAmQAAmQAAmQAAmQAAmQAAmQAAk4EaAiwokQ00mABEiABEiABEiABEiABEiABEiABEJGgIqIkKFkRSRAAiRAAiRAAiRAAiRAAiRAAiRAAk4EqIhwIhRkempMkBmv0mxX+/gSk1OuUvLvj26T/9V9HRNiEq/uAbD3IScQHf0+/9ELObG+FZJfXx58RwIkQAIkcO0RiLr2hhz6EX9tfrQUZbhk/clO+ePBjpA2kKBXaGR8hNS0dkttW0ir7lPZ6vxIKRgWIRF69mx9t/zjRKcnPRzju2dipAzXcVlyorpb3jjd26Z13u51yoy5MrFopuzasl7KTh0PmPW+h78kYycWyTtbN8grzz4RMJ+/hNi4BBmWPkIa6muksb7OXxbbc8PSR8r8G5abOor37pIDu7fb5vdNHGr7vvWF8v3q2++VxMTkflWWnjyurNd7zvvjv/yWuyR1WLonz5nSEtm5aZ3nvXVwJY/f6qO/14UTVkhSfK/y60LNWdl3eoe/rAHP3TjlZmltb5Htx94KmCdQQjDt3zD5AxIfk9CvivNVZXKgbJfn/Jq598uYjLFy4NQu2VD8ijkfTP3IGBMVKynxadLUWi9NbY2eOq/Fg9FjCiUhMckz9IvlZ6W2utLzPpiDgvFTpL29Tc7Y3O8Chvn8ZwAAQABJREFU1RNM+/njJkt0dHS/Kupqq+XCuTLP+UnTZkv6iFFSfrZUSo4eNOeDqd9TwTV+4I/f1YQkf7x+TqKipUY/vxX6OfaWkZmjZVjacIlSRVVTQ72cLjnincxjEiABEiABEvAQoCLCg2LwB43t3dKsf62d3YOvJEDJBVku+cTMaHlNFQNPFIdWyWE1+e1F0TJ+uEs6ukS6dAhp1V19FBHhGN9UVdxkJ7sNcmIiRaIiO1URYfUouNesnDyZNnuBYBJrp4hoaW6S1pZmaWtrDa5ir1xFM+fKbXc/INveflNef+EprxTnw1kLFstNt39EH8iipaO9XZUmM+S6G1fJb3/2Q+fCPTmG0n7QjQwy46SpsyQlNU26OvsqkCJcrj6KCH/8x06YIiNHZZuWwScyKsqvIuJKHr8dtjEjCyU9eaR7fJHREuWKGrAiYlzWZJ3ANw5KERFM+2MzJ0myKks6u/peP1eEq48iAsqQtvZWae9s9ww5mPqReXxmkSyfsUZ2l2yVTYde95S/Fg/SR46SJLXMilC+ERERUnXp4oAxZI7Olbqaajkz4JIiwbSfmZ0rrshI6e7WHwMv6ejw/e2JMPc0fLctCaZ+5M0bO1GgtDh++IBcPN+r3LDquTZe+/O7GsY9PCNL8gonSHyC20KqrbXvb+rYSdNkVFaO+/OjzxLpIzIkISlZDu3rVWxeDeNkH0mABEiABC4PASoiejjD8qDJ91nL6xrYpf9qt01BrzrsDu3qtytnpQ2lfGGaS45UdsmPtvRONKx68RrM+Jza903/7sbetv6wJta7uZAfP/vEb0NeZ6AKFy27SfBw/u62t42SBBOOv/7hl3Lq+BH58Mc/JwXjJ8kCVUZsf/uNPlVg5b+1pfehvk9iEG/eq/IV5efk1z/5nm0P/fH/zU97lTH/68e/sS0fTKLT+P2l33zXR2Xr+telpqoimCYC5sGqf1tH3wfypzb3jumfbv1uwLLBJvhrw7usb3qw7VfWV8hfNv7Ku6p+x6/vfabfuWDr71cwwAnf/vtmc0r3ze/7Pj1OJ/4toVcU+7Zj937/O1tN8pQZ8yRVV4wrK8rtsvdLSxs+UlyuSGlRpepgxKn9pJRhRiF48fwZOXZon20Th/e/0y/dqX6rQFx8glHE1NVWWaeuuVd//K50CFA0TZgyQxVQbVJdWSH4PDY01Hq6naIWblBCNKjl4LHiveY8rBa9Ld88mXlAAiRAAiRAAkrgmlZEPLosRlo6uiU2MkJGJuqDanO37DjbKX874l4h/PqCaF21j5DKpm7JH+aSJrV6OFjRJb/e41Y8fHNhtOTpeUteO9Ehzxx1l71rQqR8YGyUvHSsQ1443rvi+J8rYqRe3Sz+bVO75GndD0yLktxUl66YipxvcLeP/PdOipTlBVHGVQL1L1PXiSV5ajqgsrWsUx4/0CGI2/DFudGmfIyWx4P2y9reutK+q1mmkM9/GeoWMT7N7RoRqWXbdEjXZ+uBSq3OqQ6oYsJufMgHfrAESYiJkBFa3yXwO9Mpf+9hYDc+lA+3fPzzX5fM0WM8zWxXq4b1rz3veT8qe4zcctf9MmJUlsTFxUt9bY2cOnFEnvvL72TlrXfLnEVLzAMzCsxZeKPMWnCDKbv/3e3y8tP/46kHB1BAzJx3vYzIyJStG9xKhgw1Ua24eF6OHNht8r6z/W3zoG9ZEKD9m++8T7AKGamrkJd0YnJwzy7ZtPaloNpH3IV7HvysPvzlGnNqmE9vfutV44ICdwhYK0BJ8MBnviaZOWPkF//Pd2T+9ct1LEvkx9/9Z7Fr/8ZVa2Th0tWyZ8dmee35Jz1j/fK3HzUPmr/72f/2nAt04MQ/UDmcD4a/3fhRx0c//RVjdQHz4ezcPGlpapKSY4fM9UX69NnXybRZC3Rldr9+Ll7QFeoLOB20ZKflyYIJS2VU2mjpUGuBizXnJCs9V7YcWiv7S3c61pOelKHll0hmWo7ERsVJRV25HDt3sI/lBKwTPrbkC5KakCZ1zTVy9OxBj4XEiORMWTL1ZhmZkmkmqNUNl0z5XSc2OrYdTIa7rvuEjEzN9GTdU7JN217veW93sGjiSpmWP1fvX+57zLS8uVI0ZrYpcuSM8j74kt43EuXm2R+WEamj9P4XLQ0ttbLr+GY5WOae5H5w3seMVUm9jjsjNdu4qZRdKpE39j5r6sH4l069RfOMUBeQOC1fL2crT2r6c56uQQH6o6UxkhwbYe6NT/fcmzwZQnyQmz9ehus9ACvGLc2NAkuCyMgo/R71XpOY2DgzmfPXdFZOvt5DsgSfbUz4amuqpOTIQens7BAoCiAxMbEyT7/HkWoaX1dTqa4RxUb5ibQxBWhf72c62W9ubDDWLsG2b00Ym5r8u9BAeTJpqvsaoi1Yme3ZuQmHfSTQ+GbNXyxIg8UFZMacRea1Sy1ydm5eZ45xv87OLZBYvR/DKgP35IN73C5NMbGxMlPraFRz/3gdX7RyaKyvlbNlp6RS77MQuK5ggozxd3V1SVNjvRw9uMfDB3nG6Io+2oDC2Pu6IG2oYte+E79R+juQP3ZSvy40NNTJwR6XPjs+/Qr6nEBMClie+Qr4+1o2+ObB+4SEJKOAKDl6QMZNmm74Vl7sVaah/xC4DTU3NZhjKM2iYxhLxMDgfyRAAiRAAv0IuGee/U5fGydi9XnIUjDsVAVEvP5GLytwPySBANLTdYKNifY2TW/RyfrC3EhZ2DNhP6EuDAcvdspJfY3TstFeNLed7RLVb8h0dUGwZJUqEkYkRMgZjcEA+UhRlIxLd8nxqi7ZrvWnqmHAyp72yxtV6aF1ow1IWZ27LZw7Xes+98isaHd5VRpsUeUElBH3FkUbBYUpZPPfjbkueWROtPlDtmmjet/fqUoQiN34kI4xF6g1RZ0qQKDASVTX4iWqMLHEbnxWnnC+njldYh7Sz5Wdklh9APZ9CFu6eo3k5BXqg9MJM3nHQ9PUmfNk8vQ5UqmTUjzgow7IhfNnzXucg1+0Jdcvv1m+8I0f6MT5Q8YFY/O6V+WNf/zVJMMaorOj3coqxXt2yuOPPep56F695h7JzR9r3EoOaFpScqoqCpaZ/MG0f8d9D2v/3eX3vrPN+OSuvO1uM4lpbWmRlDR3DAbEuMCD+zg1m4VfNyY1ELv239m2QXQmoGWKTF78d8OKW8zq1nnlGYw48berY6jjR92YqKQMS9NJYYLG5tgpra0tMn3OdTJVlQ+QV5/7i7nOWLX71Je/JXd99NOGj0kM4r/p+fNk9PA8Ka8+I2UVJ41CASv3kbpqHYzMKlwoYzMnS31TrZRWlMhwdeVYOGm5KhayPMWHp2RIc1uTKhiKJTY63kzurcQbpqySrLRcOacxHY6ePSAJsUkyPX++lTzkV4wL/bqgChb3uPQLH6TUNFaasqgDcqnugnmP+ipq3ZPGVTPvVMVNjiAmxeEze9U9K1owJiswJnzQ4ToSp+PG+No7W2VSznSZkDXV1GkpcTD+/ad3qTK1RSZkT5OxoyabdPyXovfuRP2DoneYWkWEU5JV8Zej3+conexdMhPjCKMM7NYJsbfE6MTMn5tYYlKKMXuPjYszSrHOzk6BMjO3YJwpHh/vNodPVFN3KNdadSKdNjzD85nFivRovR9goo/28QplZLDtW+b2dar88CdwKalVxQf+UHeXj/uGVSbQ+DChRln0B+O36qquumSKwlULE3kIrDKaVSGCexdcOSCIt4PJdErqMKmvqzGWTFDOgBFk+MhMyVJFBhQQ58+eNvE3kjUdbiDegvssFL/4C6U4te/EDwpqiwlecZ+G21p7j/uDEx+nsYxXa4Y5C5f2+yua6b4fOpU/c/qEwJIDSgt/yqY4teqDCyIUulAGQaL0O4xzFBIgARIgARLwRyD4J0t/pd8H5xrauuX7m90/lA+qYmBFYaTcon8vl7itGBAz4Yn9HcZCYOZIl3xZrSTmqyJi67kueeqwOw8UDJM1zVvOqSLhbH2XsVaA5QICTc7MdOkKlcjbpe5yJ1QBASWEtUpntY/6ELhxQ1mXLFOFwRSt+3hVd78YETkpEXJR2/nxDnf/P6b9X6V9vz6nt//effI+3qeWHa09E9K7p0QZ14z9F9wPzLAMgdiNz6qrTq07ftjj0vGpGVGyeEykrBjjkrVqleE0PquOcL2ufelpU/U8DRZZMK7/SlO8Bo7rUEUBrCTOnzltHnRHZevESI/xML57+0aZfd2NUqiBuaCs8I0R8ZmvfletCnJ0leiSbHzzJXnr1d6VWO8x5Wvbs+a7rSlwHr7R+9/dpkqOE1Kmf+t7yt185/260rlM0F8EbnRqHw/g1ZUX5Ynf/sw094E77pMFWnb6nIVSpeeL4uaaMSFAHqwlYDabrA/xDXV1Jr9T+2U65rEa5HOKKmegRJkwZboJlId4GZbAmuRff+Bu3zr31OO/kNNqWeLE38rv7xVjH8r4t65/zVTbrcqUV597Sk4eK5Zxk6fLfQ99UYpU8YCgoXt3bTF/09QyAsyhkICyBp+HHZvW+utWn3MZw7J1Fb5Ontv+R3P+5tn3yLgs90SqT8YAb3KG50t9c638fev/Z3Ism7pGpubNlvyM8Wod4Z6sN2uMiKe3/t6kLy261SgiZuQtkL2nt+sE/oz5s4JZLtHgltML5sv0vPl9rCoCNG9OpyeNkEdWf6NPlhd3Pinnqk/LliPu64z6ckcU9Mnj9Kb4zG7BX1HObMnVeBnnq8v6xYgYnpwhNY1V8sLOP5vqFneoVVHhApk4eobsPrnFnMP123DwFTmjlg55I8fLmnn3yfjsIjl6/oDEaaDNzq4O2X50veGVEj9MlTmZenzO071ytWZ7bFe7ZKrF26saTDicAqUglI8n1IIB38uMrFwZP3maUYBZ7WIijSB+mEj7Sq5aM7g0vgosdGp0cg7LiIkahwWTPkiMKijA4+Txw8YCwErHfQyCCTdULSd6ymP1fOzEqUG3DysECBSx3oL7YdnJY2biDzcmWBtAodmmij1fsRufZa5/3ZIPqKVCg05q3+1TPEPvTxC4hdTr/QqKhyK998TGuvuFWAOQi6oUPnHkgDmGZQis2SCIR4D4NGWnjikf90o93AnaVCnrLSgLdlB2hlKc2gc7O34VF84J/iCFE4okdmS8KlOq5GjxHnPOiY/JZPMfXIHgNuErsGwZqEDZBMWut8BipV0VTBOLZhkrQ/wGuPP1dVvzLsNjEiABEiCBa5vANa+IqPb6LT1R0yUrRK0WvHZzgOsG3BQge3Tyvqe8UyqCdOUv1vywuFitVg5w98jTXSnK1f3iqO4QAdmv6YvVwuL7izVYnytCELQRkqiKi2AkLgorfd3G9Bj59a0R+EM7CfpwtNr9YA5FBBQK3jtlOJW30mu8/K4v6NggMIOGDHV8ppIw/nfs0H5jkfDJL3zDrERVXaqQHWoiHGhF0Lcrw4aPMKt2e3ZuVkXEi77JnvdYHZqsUeYxSYFVRntbm1FEnFDrihlzF8mn//k7ZhXdMmG1Vj49FQQ4wIMfVvU+9/XvmRzwH4dgFRR1o71J02bp6qXLmNRidRGrqZd6HtKd2t+9Y5NRRMzUPpafKVWlS64qaUr7uDDAvNmyGjGN638wCb8cYjd+q31YhkAJATmuE5wjB/eaSZ6VjlcoheDzvPK2DxnTdms1zzuPv2O4U8AdwpIqjbcgvcYM1umAr3Ex8erO4VY4INOFmjNGEQELAEvgbmAJdt6YJnMlJcFtol966YRMyZkpH7nhEb3WLomOdN84YqPdE1ernN1riwaitKwWrHwt7QOfmFhlB/IaHRVjXEo+euPnTTFMwiFJce4JJ44RewNKCMjpimNSUn5EXVSqzftTF44Zi5C7F33SKHRqG6tl76kdRjlkMvT8t+ei+/7tfS4cx1D4YRUfSggjPRYD3rFf8NnC97KluT/jpJRUUx5KCEi3/oPAMgIClwx83yw3BCsdlksQfLebNd1Tvud8sO3j+4TVawTD9Bbf3YJwH3GPof8Pod34UGdq2ghzz2rzM/mFQgXuGFB+usX9O2JZcGHFHYoYKBosQcBPWEBA6utqVfmTo8qfGZKbN05ZNMpZtWhrUPcNb8HE+6wGOA61BNu+HT/0CTtSQImE63Bg9zZPN534eDIGOPDe9SRAlqBOB1I24fcLCm/whnUNXGiQF1woJEACJEACJOCPwDWviLAe4vzB8XfuZ7s6/J32e+6NU6rYKBBj0bBKFR7JaiIMFxBLPq2uFZi0l6j7RasqPJJ0HpGhK3cDkSY1hrjYowBAuXPq9nGyx3VjIPWEI28oxheOfll1bl73sll5mz53oXE5wANw3tgJ8qsff8+sXFn5Ar3u2rLexBhYdtPtqlBYKPt0Qvv26//ol91a3cfq5r2fcE+6kOn2ez+pEcWT5FzpKWOqjIe3YCfBViN4qIYCxRIoGbCCiUk3tvmDJQhWH/FQi9VBTJaqdWUO4tT+oX3vGBNvrPQuWLzCPFQe7ol3YbUHH+ynfv9z6+1lfw00/kAd+evjj/VJgr/49RrfI3+c2/z7aPE+2R/kFquYNMGdwBK4LwxFMMkaiKyaeYfZfhMKina17IFiIzUxbSBVSIu6fbz0zpMDKhPKzNiNA1YRllTVX5KLPa4b1jnv15fffcrz9p2STUbpMDlnhiQnpEqebjEKV5kn3v6liafhyXiZDsx2hfp9sASuGpDGhl7FXIK6X0DwvfEVTNq8lXhw1YBY5+Bq1KTuDZZ40lX5ATHlm3qVCNZWoUG3r/Vj8u4USNGywMBE01fsxoe8sMiCQGHjK+g/lCbeShooXizFitsdoL1PPAPLMgJ1las7BtQ3JkaGWknA6gFuGN5bCfu2Gcr3wbZvxw9uKNk5+Wq1VqMK0q19uufEp09mnzcoWzQLblv9ny+glPHdgtOneJ+3/pRN+KwjFgkUv6gPf7gOsFDBNaSQAAmQAAmQgD8C17wiIqVn9R5wxqirA6RWrQNCIQgeidgOYzQY5cxMMdtjrjvlVkQsHu0yATK3a3DHX/TsugHXivHD/bfc//FBVwt1u9A2re6nanoMyVYlxlgNQHmix+LCf02X5+xAxgfakf4GGOaujldXA6zW/M+vf2JaWvqB2+XGVbepmf4yeeOFv/Zt3U//4HqAv5W33WNiSyxd/UETgG3D6y/IPo2Qj0B1eBC2ZLQGSIPU64oRLCHS1KICsQue+fN/m/NwrRjT4w9uTnj/56f9DrWsgLLBUgTgwXt0nsa86IlrAQUE3DHQHlb8xxSON2bVsG4Itv1jxfs1EOcHdAeQ6/ThuFa2bQjPFoyOcRUGMX5vfP6OP/LQPxm3G6TB3H3T2pdNvA5/ef2dq9Y4CBmpWZI7fKxUN1YYFwR/+XDOWu33Tse2mYleq/9WYMg6ddewJCE20TqUESmjzDG29Jyk7gsIYInYCa/tcbsgLZ58k2Snj/Hk9z7w1753+lCPnevvfwER4BN/liIkLXGEjBqWI+VqGRKM5KurRmNrvTy3408m+4LxS2W+Bv+EK8mmw72f05vUIi1djUSO6X1xZ3n4rCMQDwZWC3BxwB+CVkK5VFPVYyGhvbTcH6zJtTVOnAdDa3Uf5xE8slPvIXCzwn0EsSe8lVVIR1wBfLcxCcSkzzs9OTV9QO3Dn9+fu4XVR+vVskyo0XZ9JdD4rHyIVQPByrm3wBoD4/d22UBwR1iQVVW4XShg5g/Tf3+C8cN1A/EJrBg+iAWDuBlIs6wqUBYscd8cjEuCv7ZxbiDtB+IH1xy418B94qC6wnlLMHy88/sex6mSuxt+pj1WNt7pA+XgT9mEMUG8v+WIaYHPIz6fFBIgARIgARLwR+CaV0SkqhvDV+dF644VXTJvtG6NpgYPb/QoC/wB8z533+RIDVCpAcl6LKHzVOHwYFGENKt1g7XzBnbZQEDKSSNcclaVEmU91gsHK7t1xwkxwR5X5LkkTfuxMKdvnAm0dUjztaqyYboGk4x06eXSZ4md5zvlkMaMgCsEgkV+ZmaUxqPolus0NgQsKv5re7vAN3qoEsz4ArUR7PhQ/pL2FYwenq5uCzrWBt2Jw9p9JFD93ucLNNL4CA1UZgmivm9QP/9Vaz5sHt4RgR6SNTpPd6m43/i2rnv5GVU6rNFAZ9lmZwj4bBeoSSwenKoqeicO2HYTrhTjNXYAHjY1gxSrpQD8Xy1588W/Cf6MQmLWPMnKyTOKCJho5+aPk3s/+UWzqgc3CawEom94QMYDIHZzmLtomVkpnGZWrKxa3a927VeqWfLoMQWCoJXwLZ6q5dM1eN2Tv3/MPJDjgXZ0br5GlT8pZ0pPGiULzLzhnoCAeMG0v1En59gtBNYah3THiYGIE3+rLkzKEOTvtns+boJ7WtcP6UMZv1V/oFewGYwCwqrv9MXjkjlstHxwwf06gew0OxRYad6vdbpKnalBJZdPW2MmRM3q+rDj2HqpVUuAUVr+1jkfkabWBikYNVEaWxrUvaDXHBuKCqQjL+JPwIIAlgBJcSnmGHEqpo6Za95PzJnm3aznOFD7ngwBDq6ftFpdvyJNEExkGalKF8ShaOtok61H13pK2dV/puqUfqfbTdwLo2zS78+x88UmBgUsIcBv1Yw7BNuIThw9TS060uXFnX+R2qYqT/2BDqB0QJyJ4tLdZseM3BGF7om3l4UFyt40NlKGqbtd+V63wjZQfUM9bwVXnL3gRqMUwOQXrg7eOxJYE2nca7B6DKmtrjSWWVBCJKt7BkzzEVwXq8z4XrfoPSNbv+cQWEHkj5tsFB5IxyTP2qEAk2vc6/L0fhgXH2/qwr0rmPZhVh/IZQTtjtR4NJZSFZYW6GuO3tsg6L+140yg8VnplpsJ7sUI7og+Y5cF9BFKFQSfxIQcLmeZmgfWIJYiAhYh/iwp0AdYWmBbVNzzsLoPhQhYNanVhrcSAhYHmOxjR5Jg4sCg7mDEqX0nfrCmgeUZ+lpfV2129kC7A+Fj10/E3Ni7a7NdFts0BEWFSwnEsmoBXwQXxWe0tbXZfPeGqevRmMKJRuENywm49dRW97qv2TbCRBIgARIggWuOwDWviDivE3jEbpiRGSX1Grhyq1ooNPV4X2DtzG46vyQ/yuy0YX1qinSHjKIMNcXVeixFxKsa9HJ1oeZTC+7Dl3pX42AtgZ0y5mjgywenR6trhk661KVi4nDvNQUxCgVsiTkzy6VuHu4YAHVa/6GqTvmTBtF8ZHa0UUCoPkRqtc6NGuTSimlh9SuoVz8DDWZ8Oq/wiFlw6XkX7PiQfZMG77xBY2Ug0KW6T0u1BssMShHR0zYm+N5Sp1u+YbI/e8FiM+G20gonTNYgYJPNwywUEQgIuUR3zsB2lliNw0MuAkl6m/LiARo7WkwsmiHzFi01VcEk2VsRYdVvKSQQZA3y1qvPC6wsYPYfEzPdTBrefXeHSUMcCmzVib5jC1FEkUf8hTy1WvAWu/ZfefYvcuf9DxkFBPoPiwXEdbBiImDrO8lVnhpME64amBTB9Brmz/gLpn3kQ5AzbHf3rtcWhKaPXtfeu8/WsRN/K9+enVuMhcas+debyZB1/ZA+lPFDqeTxo7ca83r9jW5BGmw8EK9inkNsk3muqlSm5c2TlvYmEzgRO2H4SnHZHpmcO1Om5M4y40OASygith5ZJ/PG3Sg5I/I1vkO0xpuoNBYO3uXhqpCp24MWZk5UZYWazZ/dZ5JRx9FzB2Rs1mRZNu1Wdc1oMy4NcE3wlUDt++bzfY/Amd7uJmM06CT+Wtqa+ygi7OqHQuGYWm0UaP+xywikqa3RKCI2HHhFVuvOGVBAIMYFlDDFpe96YkK4V/cDf8j2ntxhtk+dqtuEYptT9OvUxWNyoGyXZyiT0yPMbhkVGtQ3mG2NPQUHcYBtJqEwSElJMzFnMOGFRYO3VOrqPmK4INgjJv4QBMzF5xwuVdj+F5ZTmIBCQXf6xGGTx4obg50nslWBBjZQniLgrCWIlwCrKOwEhHsZrBt8dywI1D6sLSDerh9WvXhFYFxrImqdRz8gVv9xHKh+jA8C5SwsHWAtgvHDAgKKCMgF3SkDcWiwBSkUFkizAlzinop7HHY28idgVaMT3tRhwyV5whSjKIFLAIIBewssVtAurNVCKU7tO/FDwE2MD3/ZOfmergXLx1MgTAf4XFrBMq0moHCH4B6K3wgogGAFgZ2goKhCrAjr+lll+EoCJEACJEAC3gQiZs2ZF/hJzzvnII7HFeZLcXHxIEpeniI/XRkj2DXj22+3y9ThrsFN4EPQ1ZmqwBhKQLXcpAhJ0xU/7IRxJcpQxxfuMeGBCg/HvlHcQ9UuVinxgHZKzf/9CVxEjhW7J5j+0p3O4SE3WbepPKFKlMGIXfuxanL75W/9u1ml++V/fHcw1Ye9zFDHH6oOrppxp9le8tV3n9ZV/+CvBSb7w9Qt4WLt2YBdgRvCKQ3W6E/s0vzlv9LOpSdlGIuO0kvuCelA+4ftTpN1x4ySC/0tdqydhNaqQviPB0M7+bTrJ/zjJxbNNDFWjh5073pgl987DRN+TGwDCVaioYjwF2cClgD4G4qCLVC7l+M8YhnAWgwT28EIdvRAeYw/UGwCKDWwe0U4JJj2h9LuUPkMpe1gypr+pSl/3e0DyjQKCZAACZBAXwKFhYVSUlLS9+Q1/I6KiB5FxDX8GeDQSSAggeW33CU3LL9Ztm9cK689/2TAfNdqwn2LP2sCRmKVNT4m0bgU/Gn9z69VHFfcuL+1KFpyU1zyzfVtAiutcMpUjaNixUCAGwEsBfbpFrGBJsTh7AvrJgESIAESIAESuPIIUBHR95pc064ZR6u6BLtOUEiABPwTgKlwydFDsjVMQSr9t3r1nEWcg2bdeUKXqKWirlzjO2y/ejp/DfR0x9ku2aaubeFWQgAlXCG6e7aSbFS/+fJzZVRCXAOfMQ6RBEiABEiABEhgcASuaYuIwSFjKRIgARIgARIgARIgARIgARIgARIIngAtIvqy6r9NQ990viMBEiABEiABEiABEiABEiABEiABEiCBkBGgIiJkKFkRCZAACZAACZAACZAACZAACZAACZCAEwEqIpwIMZ0ESIAESIAESIAESIAESIAESIAESCBkBKIiujtDVpm/imJjY/2d5jkSIAESIAESIAESIAESIAESIAESuGYIcG7ce6lpEdHLgkckQAIkQAIkQAIkQAIkQAIkQAIkQAJhJkBFRJgBs3oSIAESIAESIAESIAESIAESIAESIIFeAlRE9LLgEQmQAAmQAAmQAAmQAAmQAAmQAAmQQJgJUBERZsCsngRIgARIgARIgARIgARIgARIgARIoJcAFRG9LHhEAiRAAiRAAiRAAiRAAiRAAiRAAiQQZgJURIQZMKsnARIgARIgARIgARIgARIgARIgARLoJUBFRC8LHpEACZAACZAACZAACZAACZAACZAACYSZABURYQbM6kmABEiABEiABEiABEiABEiABEiABHoJUBHRy4JHJEACJEACJEACJEACJEACJEACJEACYSZARUSYAbN6EiABEiABEiABEiABEiABEiABEiCBXgJURPSy4BEJkAAJkAAJkAAJkAAJkAAJkAAJkECYCVAREWbArJ4ESIAESIAESIAESIAESIAESIAESKCXABURvSx4RAIkQAIkQAIkQAIkQAIkQAIkQAIkEGYCVESEGTCrJwESIAESIAESIAESIAESIAESIAES6CVARUQvCx6RAAmQAAmQAAmQAAmQAAmQAAmQAAmEmQAVEWEGzOpJgARIgARIgARIgARIgARIgARIgAR6CVAR0cuCRyRAAiRAAiRAAiRAAiRAAiRAAiRAAmEmQEVEmAGzehIgARIgARIgARIgARIgARIgARIggV4CVET0suARCZAACZAACZAACZAACZAACZAACZBAmAlQERFmwKyeBEiABEiABEiABEiABEiABEiABEiglwAVEb0seEQCJEACJEACJEACJEACJEACJEACJBBmAlREhBkwqycBEiABEiABEiABEiABEiABEiABEuglQEVELwsekQAJkAAJkAAJkAAJkAAJkAAJkAAJhJlAVHdEZFibaG1tDWv9rJwESIAESIAESODqIZCamhrWztbW1oa1flZOAiRAAiRwZRIY6u/L5fj94Ny497NDi4heFjwiARIgARIgARIgARIgARIgARIgARIIMwEqIsIMmNWTAAmQAAmQAAmQAAmQAAmQAAmQAAn0EqAiopcFj0iABEiABEiABEiABEiABEiABEiABMJMgIqIMANm9SRAAiRAAiRAAiRAAiRAAiRAAiRAAr0Eoh78+IPS2d4hFZcuyaFDh6SsrKw3lUeXjUBqjEht22Vrrl9DI1OipaKuvd/5K+XEld6/K4XTe9WPlGHpsmT1ByUnr0B++R/fHXA3EpNTpLG+bsDlWCA4AuQbHKcrNdfVeP0+9MBnJDEpWba9/aYcPbhnSGgLCwslKytLkpOT5cCBA3LmzJkh1TfQwu/17/NA+3ul5U/4/9n7EviqqmvvleRmnud5TsgEgUAgzDMICDIoIqhYtU6tbe3g83ttbWv12fpqfbXVVqt96tM6tSKgIqBMMgTCGIYEMhESyDzPc7619s25Obm5w7m5Cck1a+V3c87Z49r/M+y9115rbTtnaOloHmtsMT8mIGCJ3yCpeeaOT6RyLPVoifduOPsPXfdtwYIFYGNjAzU1NXD58mVoa2vTlYzDbgICqsvZl8XNCAsPg/vuuw/yC/Jh+7bt0NrWehOqt+wq7k1SQWtnL/w7p3tQQzbG2YC3o5UmPL+2F766NjgdJfjpDFtI8rOGg1e74f8udWnymHvyn5tiwNPVdlAxZ/Pq4YODJZrw136YDLOSvOHfh67Ds+/nivCfbIiEAC8HTZoLBQ3w7v4bmmvpxM3JBkJ8HKCyrmPEBBm6+JPqH+rxqTujobOrB17adhUeWRUGUYHO8NQ/smFRshesnOEPb+8tgqwiwwOnX26JhaaWLvjT9qs62fjF5lhoae+C/8E6iG6Z6gNLpvrCZ+llcPhSrc485gQuS/GGZdP84NMjpTAr0VPR/TOnPimvh5cvbH3sp+COwogbRQVSMCROToW4pClw6thBKC7M04Rrn2x+8IcQHZcEp9MPwZefvq8dbfDa3sEJPLx8oKmxbkiCDOJ9xtzFooyszFNw8ewJUd/iVRtEe6TKr2O7Th7ZL10qOq5YvwXaW1vgwO7titLLEympf/naTeDs7CrPJs6LruYhlgc14brwVVI+FWAuvhombvKJ0vYZYovvnyF0jMfV1VRBbPwk2Lj1Ufjmq8/h8NefG8+kI4WnpydMnDgRenp6gLyZm+Jt3EkF4Iv9cF177yBBv6H+W87GSPXP8jq0z2dNWAIujm6a4PK6G3D+WobmWsnJ/MSV0N7ZBidyDyhJPiCNkvrnJtwCjnZOA/LRRWlNMVwsPqUJX5O6BcL8ouFi4Sk4lPWlCFdSPiW0U9mDm6Mn9qON3zpBxtwlt4Kvf6AGp8zT6VBw5ZLmeiRO4idNhQT8nTt5DK7mZsEt6zaDk5PzoKq0+5BN9z8OsQmT4MyJw7Drk/dE+tHgfxCjCgL0jU8MZeX+Q43OaPb/w9V/6LvPjY2N4O3tDSTktrOzg4wM076v+srlcNMRUEngp6eng3+AP2zZvAU23bUJ3nnnHejt7VVcYkxUhM60iYmJg8KzsrIGhVliQGqQNTTgAEeXIGIiChaCXNWWL3a4Q6rKphsFEbpb2YzCDBJotHcrx1t3SQNDF6f4gp+nA3RplWtjbTVAENGIk+mm1i5obe8XlMxKxBc0yEUUaG9rjQMCa52CiJWpfvD0vQnw3tdF8PuP9E82B3Jm2pUu/kwrYXDqmQle4GhvIwQRS6b6QWK4G3x+vAymx3nCqrRA+OCA8RU3ylfT0KFXEEHxdU0dGkFEQrirKDu7qHFEBBHxYeryc643oSBC2f0bjIzpIes23w9u7p6w/8vtcHT/Lk0BgSHhMGlqGtAk3pAgog0n6+0o+OzoMH2r36QpqbD6jnvFquvenR9p6lZykpI2D1asvQtUtrbQ1dmJQpPJMHP+Mnjz5ecgekIiDhKDRDEUb6NSmSyIoAEfaXkMRRChpP74iSkC957u/veWGLayth4giNCFr5LyqSxz8KX8o0VK22eIP75/htAxHrfvi0+AhHt33PsozF64HEpvFEFe9nnjGbVS+Pn5gQrfP1q1MnXskBZoDd+ZYgt78rvh/ayBQn5D/bechZHqn+V1aJ+H+UaBl6uvCFbZ2ILKWmWyICImMAEn8M1DEkQoqT86IB5cUVjS3TPw+2NtZT1AEEHCkI7Odujs7te4VFI+NT42IAkWT14DZwvS4Uj2Xm2YLPp6AvY3AYEhYI2rstb4zb6SlTni7YlNSBZ98pU+DaUpqbPBFvs3EvLJifoMOVlZWQGF0eRQIqX8L129EWbOWwJfbv9ALDZI+W/WUd/4xFD93H+o0RnN/n+4+g999/nMmTMias2aNbigM1gYpy8fhw8/AqrbbluDpVpDS0sznM/MhJ07d8Ddd98DMbExkJujXh1XWq2SQYIuwYTS8kcyHa2c4Hx8yKSd/9eH+zvdd9bYGyz3tbPGK9Yu32CBssj8kibY8MxJWcjg0yffHCwY2vhc/4rGxTcWD85kYghpTjS0DBywyIswFK+LP3leOjeUX1dcfXMX+Lir74u7sy0K3QAmhLiAt5sdriL1wNn8xgFV6CpDnsBYvDytrnNj+Q3F64oz9f7pKkPOp774GBzYhEXGwpVLmQOEEPK8xs4/ff9NY0mGLX72ohViQHXm+DdiQEYDrI/f+RsU5l2BO+97DCJj4yENhRFv/Ok5TZ2/evENzflQT2hlob1t4OBOXpZ2vNL6K8tK4PWXnpEXNehcF75Kyx9UmJ4Abf61k+mKX7nhbkg/uBcHt5XayU261lX2aLdPaf2WfP+U3KTS69dg35fbYP3mB2H67IVDEkR0dKhtFmmyNlJkqH9V0j+bwxet+nd0DRTCfnS0/5vzg1t/bU7xIq+uOuSFascrrb+6sRI+OPyavKhB53sztw0KU1r+oIx6ArT5105mLF47/c24/t8/Py+qufvhH0NE1ATIOmd4nDYcPHl4ekNXV5cQEIZGxKDGmwOcP30ctn/wD4PFf/i/fxkUr5R/L29fIRy/lp8zqIyRDlAyPuH+o/9bM9T7oQtDeVnG4uVp5edK+w8vByuoaRv6Qm631mKOnAc+H3kEVGVl5UIaNG/ePOEf4sqVK9CAq3gx0bEmCyJGnt3hreGFRXbQ1tUL9jZW4OuMD3JrL2Tc6IZ/XVFPmP+w2E6E/S5dLVRYEWkD6+NV8FlOF3yOKyxE1jiR+f1CO5G/uqUXTmD+T3SYauji/OezbCHco39wtSe/C7bJ8gYhTxsTbCDK0xqc7aygtLEHTpb0wM48/RN6XfXoC3vnyRSgVXSJ/olaDX/eUShdGjz+7I4o2LgApfnYfqI75gfD+rnqFeRdJ8rgmfdygPw6vPToRJgQ6gr2tjZQXtsGb+0uhA8PlYo8bzwxGbUunKG0ug0SUCOhsaUTTmTXCBMJSmCMv8+fTYPmtm5wxVFkkLcjlFS3wt6T5RoNhbQ4d3hsTRQkRbpBW0c3ZBU2wJQYD/jLp3lCU8HJwV3wQfmJNzJF8XCxFdohFGGMf0pD2iXER7CvI5RWtcGeU2Xw8vZCijJKiWHO8PPNcQIfW3wGC8uaMX85vPZFkchrrH3zkjzhu6siYGKkO+LQBdnXTPOxYKx9xu4PMUkTd6K8yxfE0ZR/933vSQgIDtNkOYG25Af37NBc+weFwaoNW8AH1VcdHByhsb4OCvOviEHT0lvvgGmzFwAJEoimzZoPKWlzxfmFMyc06qMiAP+RAGLK9Dng4xcA6Ye+EsF+AcFQWVEKVy6eFdenT3wjNB+0NQykMrSPlJ/8YgSHR4GDoyOUl6BKMg4m5SYc1jbW8L3/eBY8cTBGq0mXcIX4YJ+pBrVv5frNEBAUKszjqirL4NK5U3Bk3xfaVQ3p2hi+hgpVgi/ZnZLavX9gqFhVa6ivhaMHdmtWve5+6AmhVVJXWw1BoeHQ1tICBbnZmkFv8tSZMCklTTw7B/fshJqqckMsDYoLj45D/NdAcGgkdHZ2QElxIYRGxsD+XZ/CyaPGzWj4/pl3/wy9n/KbRROspbfeju+AjzxY8XlTU5NIS+qzSmlTvA0sjlSB+usAsCjCBhaEo2oiUnpxN7x9US38p+/3f2M/74PmG1XU/1/v1mg4Guufw12tYGuyCgLx6KSyglocCF+u6oHXzxlfWCA+gjzDIW3CQvD3DEatxU6oqCuBQK9QOJa9Dy4UGZ+Uern4Yf4FEOAZAvYqNI9sKIPckksDNCdIO+GeBd8HdydPaGitg5wblzQaEj6uAbBg4krs5wJwRd4GapuqRP5T+YeJPbNpw8zvgK97gKaccwXHse6DmmtDJ7PjlsKkiFS8f+o7OCk8FZLCpoosV65fgIOXvgDyO7Fy6p24oOCPGiPYb7fVw6m8o3Cp+LRId9v0e4RWSSO22889SJipFFcVwFeZn4p4av/CiaswjQ9qfDpg/ka4UX0V45WZ0gWFReL4p3/8JrWHvoMNdTXSpdGjq5s7LgSqn3HtxDMXLIfE5Kngh5oTpJFQVJAHX6BphCTUXrxyA8RPmiJMC6sry/E72CnUzF978TeiKO14Eua1NKvrCkPhBxHl00VRaC55+z0Pa6Iaamt0Cr318f/Yk8+Ai5uH6BuokPt/8P9EWaR9+D+//Zk4nzF3iTCNdPPwhJ7uHjTtvArvvv5HEUd+HR7+8dNQUXZD9J/kb6a85DqcOLxPY0K5Es0fo1B70RPNM2kyWVleAtv++aamLzE0PuH+Q8Cs89/N6P+Ho/8gAfLzOP9ytbeCXbldiude8kaTth29N0yjh4A1mWYUFBQIDrq61DejtqYWPDzUkzRzWBur2g9Sm1AzHyJQENCCZhEnUYDgiA/1IhQ2SOSA12RWIRFaKACFoZWChkLcrKCpA/OXdGPHCDj4kWXQpNJ9kl/bA5cquuEqHqlcKl9Oq2NsICXABiqbe+EUlu+OL9vyaOXly8vSdX6hoB6OZ9WICbozMkDmF0rpWnmLyHseyyDKvdEkrqm8y2h6QPS7BxMhOdoDzuXVwRfHS8HBzhp+fEesmOBTPJlG+KPpiBt+TXafLIMWFCqsmhkIa9L8KBqM8eeMNywpwk2YR+xFAYCbky1sQIGIRJsWhsC0CZ5wEXk8eblG8ELttMV2VqFJBZmcTI50RTtXGxSGtAptCDfUjiCBCJEx/ilNTLALCjU64etTFeDqrELhTCgFa4gENSRwoB8JG+T0s42xMBnxyUR89qAAxRs1NO5a1J/fePuCISUW8+fXwakrNTApyrR31lj7jN0faou3j79Q67zcN5mXt8/Y+fVrBVCQkyUmkPb2DkIIIM+zECeZITjJv16YLya3bWi+MXHKdEhIngbVOGmlvFQGUXnpDXFNYWWoAi7RnMUr4ftPPSsmQmRicXT/bvjqs49FNAkxuvu+eRRAE6a3X31B0SSW0tMgMX5SCtTjRLsgJxsFJkGweOV6IJMUiWiy24qDTFJRd0Rb3NRZC6QoWL5mI4RGRAuzFRJguLi6w4w5izTx5p4Yw9dQ+UrwXYer3CHhav4zcVVNZWsHS1ffASSgILK1Q/tuHGA6OjnhwPEk2va3QfK0mTARhQ9Eu1FVl+ohXyLf/dEvYMPdD4EXPk9KKRVX2MNxME2mP1dzLwtexHNkgx9TBcT3z7z7Z+j91Ia/qaFOPN/a4Uqu3dzUz5MpviHKsM+kvpX6WKLiBnVfS2HX6tVhFB6MQoQ6FEAcQwEEdh+wAAUWEhnrn9fF2UA0LhLkVffCgcJuNK8ESAu2gekByvrR5IjpEOwdDmW116G48qoQKNDKvQ0KBZRQStQsiA5IwP6qHooqC8AbTTlmxS/G/rXf74C3mx+0drSggCEL+ztHMbmXyp6buAwCPUOhBH065Ny4CE72LpAcMUOKNvtI7SK+ylHAom6XsveSKq5rrhZ5qQyiqoZycU3lVdarFzKWTcFvrVeI8Elx+Xommr/aArWJBBREtipbYTrigO2m9nV2t0N8SDJMCJwo4iUhDrX/wrVTqJXSBhOCJkG0f4KIN/bv3kd+Ag/g5Fr7Nwv7BVPI2YUcNQ/UwKT81I+QoNXN3Qtysy9AB34/J6ZMhwW3kBYzLQIkwqwFy3Cibw/Z58+g+ZIthKBwpLtLvVClicfvsBRP5obNTeoFC29f9be26GquKE/7HznyKyrIFT8y3+ju1i1g08d/eckNkZcEBC1NjZqyqI8mmoxmIdRfENHiAfUFJDggUw6imPiJ4OTsgm2KgtLia+IbT5hQH0KUiGOBqTPnCwEE+a64VpCDAu8IseggEuA/Q+MT7j8klAYfb0b/Pxz9hxsu0NIiLU1dPFArYihEGkKmCLmHUgfnMYyA6BkcHdVOCTtw9wwi+ui04UdvPBAJEX57VD3x3IrOJ5dE2cAq/O0qUH/MjWHQiD4injumzv+dSSqglZfl+NuLAxNj9NFldZpluFKT4Dt48EJhtEojlb8WBRNLUNBBmhm70bGlEopEJ4zpL88fkPSJv2bCiSv18OIn6kncvYuDYXq814A0xi7+dbgM6LdpfiCkob+FzPz6QT4ionGSXlzRAo+8fF4U94vNMbB5cRjcNisA/rGnWIT1oE3ECx/lwNGsOuEo8uXHJ8Mt6HfisxMViviraeyAe144I8r6r/vjYe3sINi8MEj4wCAhBWk63P9Htcf2lx9LQmeR6s6XtDCIFk3xwYFaN64GdeLKCEpWUbjR0Ky+n0r4r5XV/5t7J6BmSAhsXRoM//e12rEnCSo+flo98RIVyv6dR8xIiCBpUDyNzi83oSCC7ofkGNRQ+0iLhNrxgI72yarRe6qkfYbuDxVMg5UetBEeyo4XZANINB2dRUbGqDUrREDfP0cchJBwlLQkSEWPnE75B+HAE89pxeksDj5oIBIVmyCEFdo+Ih75ya9F+trqKnSU94VeXw0RWHfKjLmaqvMuX8SB0XHNtb6TCFyRr8dVorde+b1IsnrjVpiKfifIDpd4JGrGAdhbr7wgzm+9/V6huTFj3lLIOPw1ClHyoRh/koYEre5MR0EE4SHXqhCZ9fwjbZH/ePblAbEfvf1XuIaaI8bwHZBJ64KwNYYvCVlqqyvg/TfV9ZPjszTkPXnaLDS52CNKJD9Du7d/JByjkZrs5gcehyQUPJBT0MxTx8RvEmpGUJtJIBGDzg3pfmcc2afF0eDLoJAIoNXHd19Tr6Bt3PoYCqnUq6aDUw8O4ftn3v0z9H5qo02DPfJdopTIZpe0NGkF197eHpqbm03aKeNQcQ/Qb1GoNSRiP5pX0zvIRwTxQj6enu/TePxurwrmYV+8JMwa9hX1gLH+2RUHwGjFB59e6YKrDb3gh1oVobgwcbVemYqwn0cQrsI3wPYT/ydgWTl1I8QEDvappQ+zEO8IaGyth3+n/69IsmjiGpgYPhUi/GJRO0I9WW9FHxGfpL8l4hcm3SoEEZPD0yDz2gmcwF8XP8mZ5QJ0bpkcOQOSw2cM0KrQVz+Fe7n4wMPLnxqQ5POTH0JJ7TU4duVrEU7lhfpEDkhj7CLr+lmgX1LIVAhFfxmltcWDfER4u6IPpuYa2Hnyn6K4eV2o9RaVBnHBk+Hs1WMijL4/hy59CddR0yHcNxbWTN8MsUFJkFN6ERdGnNC/RRecyDko8HJz9EBhTgCelxhjT8STUNtWh5YOmfkpJRLakoCatLm0ibTtSLjwySdvCJMm+k6u3/IguKKWAREJIVAlEL7Y9k8RT9oFK9bdBY0o9BsQ/4k6nr6xK/EbTZqFRORcmohMEuV0Kv0QHPjyU8jNOi9+JByekPgslqtedJKnNcT/tn/+XST9z+dfFZqHH731ijyr6CcAemHnx++gkCIHYhOpf/iBhi/qX4guYF/xGaYh+smvXgR3TzXfE7A/ofHHYdQgvHRW7WiQ+pCGulqRlv4ZGp9w/6GBadDJzej/h6P/KEMt9FdPdUIAao8rnRNpN5Z2YIqMjATyFUH9VGlpKRw6dEg7GV+PIAJCEBEQoJagq1Q24IIDAHIOlZ+fP+Rq5ZoQ0rkS/xFDrtCMjDhP1VB+XQ8sARuhpqkJNHJC6pgSFeDqCwki/JyspCCzjk62qK6PPEm0A00y6GcKkaNHSWtBykcr+DeDnFDjwRZV03c+o15lUeE5kb+n2jcDnZNpBQkhiA6cr4FDmZVwA00clFJlXbsmaRFqaRB59e0U4oJChWto7iBRfkkzCiLUV3mowUEUj2YjhFE1akiEoHkF5SlC4QmREv4rZPVfuNqAggjAXUQcRX76R+Yi+89WiuswP0eYn6x2QEYBR1F7ZN3sQPj309NxNcdKaIxQuBtqVkhkrH3Z1/pXUuTtk/IbOippn7n3x1D9xuJoFYg0Bu7//lNQX1eN6paVkIEq90rVXj1QFbwVfd+cO3nUoMd+Mpsgx4SkIUFOKTvRJl2JIMIRv5WSwIHaQmqlJIiggaVE0qBPiicTElIjJcrHlSFaFXoI1U9pFVQa1Do69ucXCQ38I3VdSStEStbap3orXY/U0Q4niDTQIxVcIlLvJiLHpRK145ZY5J2diBwVki8RucMzCiesa6srcSXsduFvhO6HEiJzmGo0Z5GI1HIToO8FlwINHPn+mXf/zH0/Ddwa4SibvJrTO0lbdpIwwgk1a2jXjOGkOln/XY5aFESk5quEMst7INrLGn4+V23CWYH5v8IFAqW2ymROQeYQEtWgvwVQD8WkIINHBztHNOdQCxwoYXnddSGIIA0AicjcQCLaeWMSpKLmoHoiW1SVD4khU+CuuQ8jztbYV6NKJ5K9rYOUxeixDR1RSloLUuK2zlbpdESPtio78c25e/73RD2SDxEXB1dNveR7g4QQRNcqc6GgDE2PW9UT1cLyXKERcsfs+4VAp765FjILM4RwSFOAgZPhMKGbkDhZCNvIfE2byGyRzNUkB689veqxYEe7eswjCYKleMnOXSpLO55MH4hIg4/IBU1CqH8sRo1DOck1Cik8Oj5JvIe1NepxjDytIf7VeSeKfk0uHJDye6OZJPG0CgXwgvpeO9KcI6LdsMiJ5qG9n4lr+peDYwJJM6MEhf3kDPu2jffBXNR8rKmqQAH4XiHg12QwcML9hwFwFESZ2/8PV/9xrqJ/jqSA7UFJaFcmeneovyETjdbWm/P9GsTIOA5QzZ07F9LS0qAJVxyWLVuGNm+orowqWGfPqleZh4KNJHQgIYR0PpRybkoelJh/m6kOV+wff+XCqDWxCfVViyr7X+wCFAxkySbP2oz94NWL2kFDvu7pQf8fMtsaEjJIdOhirdhNJNTPSWhAkOaEq5MPkOlGVX2HlAz9RZjGvyZj3wntRiLtJvLE+sgBgojn7k8UPikuoe+KFtyxxAPNQkJ8nbSLUHw9lCfZ1PZp3x+SINugKjwNesiWcziJduBoxBXv5NRZYpWEtvgMj54Ar734jCIHh6eOHRQ+CBatWIsT/llwHie838gGNRKvkvQ/Dneh2PQd9aBWijPl2IvPmym0dtP94OTiAiVFhWLHEBJgKJ2ES/W0NDeC9kqTFHczjrTbCQmIJKqqKBsgnJHCpePHb78qnYoj2SnPQf8dETFx4joHV+FoBUwJ0SBVhZMRiezRj4g5xPcPVeBNuH+mvJ9kMqPU9wrdwxb0J3L06FFxO4ODg8UYxd/fX6xWmXOPhzPvZ/lqocPcUPVW3bRTVpy3NfzyYAdUoCajMerFiSWZE0hE5gvmkCm7nFE9y6asE9tvkoCiEzXPSLDh7twvRFTCSxuafXxx+kMlSUckDe3GQVoREjhSFqkAAEAASURBVNU0VkFFn+mGFCY/7jrzkebydMERIXRICJmMfb87hOMWo2Qq8/43fxP+NDQJ9Zw8iOZkulS6yfnj0f1f6sk1MFha9SentdrkhILuanwfJSJfQkSS8JUEqTT5lsg3QO2jq7KvH9YXL/XT5HOBtAV1OaKUyqSjr59aOlaBphbaZIh/Skume0RyPkUA/qP2kUahJDih8LoaNHPsE1yT7wkStMsXHj7/1ztSdqFVSF7GyTySnHDSYkJgcDj8+fn/p0ljaHzC/YcGpiGfmNP/j2T/YUqDSNBdVVWl6W9MyctphwcBlQsOhN979z0hDUqdnipWuE6fPg11dcO78jA87A5/KW6y1Y8wVKskqkd1TSJyFUB+GSTyd7FCRTLsCFAdSKKB+dUr/lJ+KQ2lxgVvk6kLJzZyuycy+ViMvyPobEtylmlyoUPIQPzTir0h0hXb1tGDTiJ7NIKQmEAnSI5yhcyCBkNFDVsc+bEgZ5zk1DGvtEWYkMgLJyEBaWeczW2FovJW4avCAQUXJJQgUsI/mXNIFIe7bhDRlp7GaMNsfwhGzQnyjfGzv6tXjMl0hZxpKiXabtXHvb/+UNTo0EX67p+S9ukqTx5GgwRatYxJmDTsgghS1SR10Pdef0lUufCWtTB/2WpU418EX+38WM4GqqgOvKQrMk2gH9mckm+JhajqOnnabFxh2YmewtOFGh75ZZCInB4SNTYO/vbpstvuRiGMpCZL+QKC1QNF+cDKGTs5icishIhsdEkTgpz3ke8ESYWVTBvC0NmiLtJVv650Qw0zWr4OfLtQc4ScREqCEB8csJLjTm0NDX083YVquGRWQ3Q17zI66dxlcJtX7XJotZBWDcmpWlV5KdoXq8vSTkfXutrH98+8+2fK+0lO6yQnebruj6EwaWtB+s4MlYaeU3+NU1DwUI9dxQvH1RqGGybYwNo4FSyNsIb3s/s1F+ld9/YNEI5cJSeDVGot+kHwcw+EUO9oPK8UJgj6apNW++XxtG2ms2z1X3IM2YDmGhI52fdrV/m4+Ytg2tIzHs0XyIEl+U7Yc+4TET4vYQUEeYVJWQccddU/IIGZF8bLH3wHycEn/SRBiKezD/h7hEAZaoYooQg01Whub4TtGe+K5GmxC2EGOv8kU5Ijl/caLaILv32Ss255Ypr8KiV3nEATkTmgnMgMkcwypNV/iqO+gbQFclCrjHYhoAUA+dapofjtpXeFVpqNxVP5JPjW1oaQ8yCdC80EXDHOvXxeCtIc9fEvJaAdM4i06yFHlNQ+EnxK/Qd9x8kpNflTIiKzD8mfhQiQ/aP2UX9KvqkkM777vvcfQBjId2gwND7h/qMfUF39Y38sng1+/cDc/n+4+g8yVUc/85Bbi776ykzXjqB+xVQh7gBs+MJsBFS7d+/WFHLgwIFhvSFjXhsCW+6ODk5+Mt0WSpt6YDo6msLNB+CrPv8OV6p7YH6YDfwwVYUOrdC5jj/6bEAhxOEb/Q87CQqeSLWFiuYemBZkLRxW0UqJnChPDKpwPogetjsxqgmdY9LuGJtxRwxb9Nrt1qcJGe5uDVuTrKAVd/KgnTtIVTQSnWlS+eWifBsgu9QzQ3jZ5PxI50/dGS0cVNKWlUTx4a5AfgpoB4aXtl2VkkFJVatw9PjsfXG4H3gPrkB0wl92FIr4jCt1wsfC3Ek+8Cv0HE4KJntPVwgfFOQfgnas+P2DCVCAZhErZ/hDCGogPPFqJlzFib8xUsqfvnKOXqoW9b/ywylC+4F4lxO108MF1btRa+RkTp3QhqD4wjK1aYYS/n097OGVxyfBdWzrkql+YseN13YVyavReZ5+uU6kTUI/D1sWBYEflrNyhgl6uVjqleJGmJnoDX98OBFqGjthzkS1yr92hfrun5L2aZelfZ2LAyjy05CEE/1juGOCLoqMjgcfHIhLRFsFH0I/AMvW3ImDEZXGuSGtZpCfBBps7d+1DYUOa1DTIgjOZRwVdq800aQOo6ayfxWI7HHJlCIWfQvQwIwewKzzp4WPBKm+rz//F9BPCCTQ2Rc5vCJBBPk3oC3MNt3/uDAXoJUVUlUl3uREpgQhaCKyGlVAybmlxD+t8gSjczDK34TCizhUs21CwcmJb77SZCdBBcXXYF3kv4BWEGjCTQMxOqfdJFJnLwJXdw/U3pihySc/0Ve/PI2uc2P4SnkMlW8I3+q+9pPTSjKLmIj8e3n7wYdvvYorYOVS8XqPwaERQxJASAXmXb6E+EXClgd/KFbbJWfLUrx01Nc+vn/q53eo90/J+0n3YOGKdeio0g0uoz+UoRCZZBCZ4qxSqicbHUmivBaSse+2sabvA8DJ0m7IRp8RxshY/7wWBQ8hbtZw+Br6GEITjyT0RUH9n2TiQeXTZGol7vxjhw4D7dGU6Eu055foWkUeBHgEw21pW4SfHfmkUkpDx4aWWnRkGQqLJ60RE9NWNH3IyD0I9agJ4I/5b512F2rUNUGkfxz23U1oXnBck50EFRRPacn/BGkQkCaAi4ObOCc/FRPDUsV1XMgkTT75ib765Wl0nc+JX45O5GyEE0yK90WhC/mh6OjqgPScfZoshsq/XlOIY6ZO4fdCTJYQ4NxSdHBce01oQhB+yyavwz68En1DTEKNDi/4/OQHUN/SryWhqUjrhIQO5Gciq+is2DEj1CdK9C9yDQutLAMu3/nrHwZcD+VC8q10y9pNmpV/EsoWF+YJ/0jUV61AATX1DyQop12XqnCnJyIywQvA3TSW3XYneHr6iH6NhH2SBoGheOpzaAJG30ZdNGX6XCxPLZQiIVoXaknPX7paJCX+Ll9Qa0zr41+Kl8wsyElz/MQpmr6TeCQhNrVvEX4fyLHx1JnzUAOkXCOIIEeVdK2LaHck8jdEZiQXzmSAu5c37iyCu2ChQFou7DM0PuH+Q42svv6RYkey/x+u/mNFtA14oH+essyhmZyT4JD8IjKNHgLCNMMZO3ofHx9c3XOD1157bfS4GYWaSxt7cQtNK5gcoIJGdFyZjt6z0WWAoH1o7xmAWhBJvjZi94zypl6hjSBnk/JHeVpBSiA6OURNCvK+rU1HirqB1DfnoVCDFnVqUW2TBBELIlRipw4pfRKusCT54Yop8kGCiG24qrIWNZbJaeUU9MRdjfm+wUFPSZ8tq5RP39HYUGvDvGDN5JvKmJngLX71KGiQCyJ2HiuB29AJ5Lo5wYJ/8osgCSJIoEBbZs6f7AN3LgwVrJCDRXKG+fwHV+D5B5Jwgh2Ag0DcHq2+HbYfKdH4hCBHiIYkkUr4o4GfRN1aqvF/+/wanMmtg00Lg6G+qQvau3rgnqXqzpXykFNK0kqoQA2IyoZOtBPtQjxsgIQrRMb4pzRXS5thEgpbFk72RWFAB+w6oR4kUBy1Tc4fhRFRWGlNO+w9VQ6LUnzh51vigbQbsosaYGqspzpR3395fu327ThaKnYdWZbqj6q1vXAF89MuJdqk7/4Za5+x+0P1kH1qIQ5MyGyCVrhJgCCpfgr1IUxDE3w5NaCzLJrskz8F2sdcoqgJCbgVV4IQBlA55LCRvIZPm7VA2NGSkIBWjk6nH5SyiAkv7TgRlzQZps9eKMLJQSQ5a9QmSSBBq0FEB3bvANKyILMAO7tk4afgDA5qtOncyWNCgyFlxhwxeJP4p/zzlq4CcnpI/h1IZZY0HOREg0YSVhB/xNf5MydENA3EaKtOwoa2KO3oaEeThiLcBSJWnl2c66tfwndQhr4AY/hK+fSWjwlIoKAP3y8//QCdpz0gBBC0oklCmLMZRzQ+IcTzb4DJN17+L82gWeLFlOPhrz8H8vieOmshPjNNQsNl5vylg4rQ1z6+f+bdPyXvJw02Z8xZjJODNnzndw66N0oCpNVy8hNhKpEzM9qSc0qgtXD0TPkbsH/NrlH30/Lvq1b3YbR//hrHB+virGAhrsiRwiD12+fRbwQ5upSIJmokKLXFHWVIzVxOtE1mSU0RTAqfDm2dLcJxIu2EoU1ZxecgIXQKJIamiO8PObgkQUT6lf0wPWY++iSKQP8OtuhvolpoOMjzk6lCAG4PGhUQh8KKZrh8Q72qTWXklFyE6MAEWDTpVuw/0JwETRrINEGb9NWvnU77mhxnys1NwtDpJP3aOloHCCIMlU8ChVzU2ohE/mmXEaKWjmYhiDh08UtYjjtnkACCfFyQECar6IzGJ4R6bCEbIGgxmHk1Q2yfOhG3CaVtOImvwopcuFisXpHXSj4il5cvnUUhdxQ6OJ4k+jiqhHaHoon86eOHIQHNBWegk0nq+66SA2LsFyWiSXYC9h8z0fkx+dih729ra7MUjRoM+uPJyTGRpq/W5FKfkO8FaetLKYocKRNJ/NG5If4pnvrrSOxfqZ8jwQf1h5KgP/NUOqTgltrzlt4q+j8yQ9nx4VuUTTiuJI2JeuwndRGNO0ggQloiy2/biAsEXUA+LGj7aDkZGp9w/6FGSl//SLEj2f8PR/+R4GUltMZpZ8H9su+u/BkwdE5OkcnPldTHGErLcSOHgNX//Pkvva0trVBZWQm5eblw4/pgOzAl1cdERShJJtKMFU2JPy21E1tv/vKbTpiItp0XUQNCF3mh1kMAajhm4eqKPiI1TXOdpugrm7TvQ13186cv31gJjwt2wsGQPZBfhtGk//5uAqxMC4T/fOMifJ7Rv6pujCcl/C9K9hLONo2VpSvenLxU3qx4DxxAtQrhhq7yjYUpaZ+hMkgV8i5cnaBJNA2GXurbI9xQHlPiaNWEVEClVRZT8ipJS6uWtK0ZCVSGQtR+bz9/9PVwVW92UkMkL+S6yFCcrvRjLYzshF1xm858HHSOJq3f8l3hvOyTf76h8aKuhB++f+bdP33v54Z7HhYmUTSJ2vvZvyATncZK5O7ebxIlhek7UlraQUPs5oUCjfPnz8ONG4bHKcPt1FIfbxQeiSadPuigWp9aMGk/0aqy5LRVX1nLJq8X20vuPvMJrvorf5dosu+BZgkV9foxITOEQnTWqIsMxelKP9bCvFz8hEZHUVXekFij7U5dcceMgvLsIeUf6Uy025DkkFK7LhKqk18hfc+WsXjt8m72NfW94SjIp62zh0K0owf5jbqWn6NXC0/p+IT7j6HcARD+wczp/4fSf0ic3oM7HS6LsoF9uMvh/13qW0HGSCX9y/z56DgcHVWSICI7O1v8pHJHuv+IioqCgoICqbpxf7RKmTZd/+zaTHhIODFWhA66miIXROiK5zDLR2D7b2aAu4utsOUkfw5kjrDql/2qq5bfwrHTgpm4fzrZ/EvbOY4dzpiTbysCj/70N0DbgJGtthM6XyNzi1df+OW3tbkW1a7lqG5OmgC0da6kLi41QMlAUUpLR1q5ioiIEAPHnJwcqKgwLEge6YGknDdzzjfPe1Q4jKTVYkc7dN6HGgDvHnzFnCI5LyPACOhAQNf4hPsPHUCNkSBD/YfE4i9m2+KWybhzEToIlu9WpKR/SU1NFcWQUJu27JTTSPcfLIiQo40+CAdejq+rnJoe4ZByfLV6fLWWHFa6NaqA1G7Jp8K7+66PLwBuYmuPH9oL9GNiBG4WAtVoOuKAO4eQGnbZjWKN47KbVT/Xox+BvTs+0h9pYkxzczNcunTJxFxjPzn5I2jFnSfIXq+yoQz9O6hNt8Y+58whI2BZCOgan3D/MXbvoZL+IwP99R1H0zu5EEJpi06dunkmWEp5Gq/pxrVGxHi96dxuRoARYAQYAUZgtBBQsmJlDm8jvaJlDm+clxFgBBgBRmDkEDC3fxnp/oM1Igbee/V+kwPD+IoRYAQYAUaAEWAEGAFGgBFgBBgBRoARYAQYgRFBgAURIwIrF8oIMAKMACPACDACjAAjwAgwAowAI8AIMAK6EGBBhC5UOIwRYAQYAUaAEWAEGAFGgBFgBBgBRoARYARGBIFx7axyRBDlQhkBRoARYAQYAUZALwIjbYOrt2KOYAQYAUaAEfhWI8D9i2XdXtaIsKz7xdwyAowAI8AIMAKMACPACDACjAAjwAgwAhaNAAsiLPr2MfOMACPACDACjAAjwAgwAowAI8AIMAKMgGUhwIIIy7pfzC0jwAgwAowAI8AIMAKMACPACDACjAAjYNEIsCDCom8fM88IMAKMACPACDACjAAjwAgwAowAI8AIWBYCLIiwrPvF3DICjAAjwAgwAowAI8AIMAKMACPACDACFo0ACyIs+vYx84wAI8AIMAKMACPACDACjAAjwAgwAoyAZSHAggjLul/MLSPACDACjAAjwAgwAowAI8AIMAKMACNg0QiwIMKibx8zzwgwAowAI8AIMAKMACPACDACjAAjwAhYFgIsiLCs+8XcMgKMACPACDACjAAjwAgwAowAI8AIMAIWjQALIiz69jHzjAAjwAgwAowAI8AIMAKMACPACDACjIBlIcCCCMu6X8wtI8AIMAKMACPACDACjAAjwAgwAowAI2DRCLAgwqJvHzPPCDACjAAjwAgwAowAI8AIMAKMACPACFgWAiyIsKz7xdwyAowAI8AIMAKMACPACDACjAAjwAgwAhaNAAsiLPr2MfOMACPACDACjAAjwAgwAowAI8AIMAKMgGUhwIIIy7pfzC0jwAgwAowAI8AIMAKMACPACDACjAAjYNEIsCDCom8fM88IMAKMACPACDACjAAjwAgwAowAI8AIWBYCLIiwrPvF3DICjAAjwAgwAowAI8AIMAKMACPACDACFo0ACyIs+vYx84wAI8AIMAKMACPACDACjAAjwAgwAoyAZSHAggjLul/MLSPACDACjAAjwAgwAowAI8AIMAKMACNg0QiwIMKibx8zzwgwAowAI8AIMAKMACPACDACjAAjwAhYFgIsiLCs+8XcMgKMACPACDACjAAjwAgwAowAI8AIMAIWjQALIiz69jHzjAAjwAgwAowAI8AIMAKMACPACDACjIBlIcCCCMu6X8wtI8AIMAKMACPACDACjAAjwAgwAowAI2DRCLAgwqJvHzPPCDACjAAjwAgwAowAI8AIMAKMACPACFgWAiyIsKz7xdwyAowAI8AIMAKMACPACDACjAAjwAgwAhaNAAsiLPr2MfOMACPACDACjAAjwAgwAowAI8AIMAKMgGUhwIIIy7pfzC0jwAgwAowAI8AIMAKMACPACDACjAAjYNEIsCDCom8fM88IMAKMACPACDACjAAjwAgwAowAI8AIWBYCqq33bYXuzi6orKqC7OxsKC4utqwWjBFu3e0A6jvGCDMWyMZo4+fs6gbNjQ0WiNy3g2XGf3Tvo6+bLVQ2dI4uE2bU7ubhBQuW3wYh4ZHwtz/82uSS+PkzGTKTMox3fC2x/bff+wg4u7jC8W++hpxL50y639qJZ8xbCnGJk8HL1w8OfLkdzp9O107C14wAI8AIMALjEAHV5ezLYGNjA2HhYXDfffdBfkE+bN+2HVrbWschHENr8k9n2EKSnzUcvNoN/3epa2iF6MnlpALwdbSCuvbeURF0mFu/kvwjhV/i5FSIS5oCp44dhOLCPD0IA2x+8IcQHZcEp9MPwZefvq83na4Iewcn8PDygabGuiEJMjy8fGHG3MWijKzMU3Dx7Ald1egNM7d+vQUPQ8TytZvA2dl1UElFV/MQ64OacF34L161AdxxcinR9aICOHlkv3SpOY7V9v9kQyQEeDlo+LxQ0ADv7r+huR6Jk2Up3rBsmh98eqQU0i/XwX9uigFPV9tBVZ3Nq4cPDpZowl/7YTLMSvKGfx+6Ds++nyvClfLv5mQDIT4OUFnXMWqCDHqHtj72U/G83MDnRCJLfv+VPv9SW3UdV6zfAu2tLXBg93Zd0QbDlNQ/nt9vbfBmzF0CQaERYGVlBZXlJXBk3y5NEkv9vtXVVEFs/CTYuPVR+Oarz+Hw159r2mTKSWhEDCxZuR66urugovQ6NDWxwN8U/DgtI8AIMALfZgRUGRkZon3p6engH+APWzZvgU13bYJ33nkHent7Fbc9JipCZ9rExMRB4VlZWYPCLDmgubMXWvHX3q0cL6XtTQu0hu9MsYU9+d3wftbwCjmU8GBu/UryjxR+gSHhMGlqGtAk1pAgog0H6+0oeOvoaFcCyYA0SVNSYfUd94pVo707PxoQZ+wiJW0erFh7F6hsbaGrsxOFJpNh5vxl8ObLzxnLqok3p35NISN0Ej8xBdzcPaGnu3tADVbW1gMEEbrwj56QCL7+QSIf4WOjUukURIzV9s9K9IaoIBfBv72tNdiprEdcEBEf5gqr0gIh53qTEEQsTvEFP08HnAAM/C7ZWFsNEEQ0tnRBU2sXtLb33yel/K9M9YOn702A974ugt9/pF/YN+ABGOaLdZvvF8/ZflxpPbq/fwJoye+/0uffEJQJk6YK4ehQBBFK6h/P77cc9+98/ykIi4yB7q4uMWZydfcYIIiw1O/bvi8+ARKO33HvozB74XIovVEEednn5U1XdB45IQFs7ewg48B+oDKZGAFGgBFgBBgBCQHVbbetwXNraGlphvOZmbBz5w64++57ICY2BnJz1KtjUmJjRyUCBl2CCWPl3ox4WrnH8bheMhT/2lkDGfWWODDCUPkDU+q+Mje/7lKVh5pTvxL8zCnfWCs+ff9NY0mGLX72ohVAA9Mzx78RQhJaQfv4nb9BYd4VuPO+xyAyNh7SUBhx4puvBtRJK//tbS0Dwky5GK38lWUl8PpLzxhkVRf+b/ypXxjzqxffMJhfSaSx9uuKX7nhbkg/uBfqaiqVVDEgzcbnTmmuL76xWHM+1BPSPGho6RcUyMsxFJdf0gQbnjkpTz7o/Mk3BwuGbyb/xJChNgxiWBYQk5CMk8BYuHIpc4AQQpbE6Kmu589opiEmUPr+j/bzr7T+8fp+y29/SFgkXCvIhXf++t/yYM25rudLKb6aQoyc6Pp+ybMYi5enlZ+XXr8G+77cBus3PwjTZy8ckiCitblZFGmNmrdMjAAjwAgwAoyAHAFVWVk5qk87w7x584R/iCtXrkAD2srHRMeaLIiQF2wJ5y8ssoO2rl6wt7ECX2crqGnthYwb3fCvK+oB/5NpthDkagXVLb0Q4YHCGtR6uFTZA6+fUwsefj7LFsIxXKI9+V2wLUedd8MEG7glWgVf5HbBzrz+CcQfl9hBI5pZ/OZIJ4Rj2fdOUkGouzXggimUNqnrp/Sb4m1gcaQKrPoKXxRhAwvC1R15enE3vH2xC8ivwuOptiK/HeavaeuFXVjf/qIeiSWDR6p/a7IKAvHopLKCWsx/uUrdPiX1m8u/IfyI8SC8JxsTbCDK0xqc7aygtLEHTpb0DMDTYAONRN73vSchIDhMk+oE2sIe3LNDc+0fFAarNmwBH/9AcHBwhMb6OijMvwLbP/gHLL31Dpg2e4FQxaUM02bNh5S0uSLvhTMnYNcn72nKoROagEyZPgd8/AIg/ZBayOAXEAyVFaVw5eJZkfb0iW/Eyr+kQUD1r1y/GQKCQoX5VFVlGVw6dwpX275QVD/ZJZNarX9gKNiiVkFDfS0cPbBbmKCQujBpK5CQ4N5HfgoBIWHw1/9+GmbMWYxtWQAv/vrHYKj++cvWwCxcJTuXcRT27PhQ09Yf/fIFNFNpgH+8/F+aMH0nxvDXl4/CleBvqP1Uxt0PPSG0Lupqq1GtOhzaWlqgIDdb3F+KT546EyalpEHe5Qv4XOyEmqpyCh42igt2gu/dFgmTojzA1VEFV4obYc/Jco3mRGKYM/x8cxxMCHUFW/xGFZY1w55T5fDaF0WCh3lJnvDdVREwMdIdmtu6IPuaaSrP7zyZAqRFIdE/UavhzzsKpUuDx5/dEQUbF4SANQrSiO6YHwzr56o1WHadKINn3ssB8jvx0qMTBf/2tjZQXtsGb+0uhA8PlYo8bzwxGbVGnKG0ug0Swt2gsaUTTmTXwFP/yBbx1P5fbImDyEBnxMcWKura4OSVWvh/ffGUiAR3RHSPTCVjz99ov//G2kPfD/KLERweBQ6OjlBeUgwXz50coDlkbWMN3/uPZ8HT2xcFalVwCVe4D/aZahh6v43VrSTeGL6Gyhjr7zeZA4VGRIsm0AS7E7XpJuH3goi+f1dzs2Cst9/Q8y0a0vcvC5+ppbfejs+QjzxY8Xl133fTyUmtIaY4IydkBBgBRoAR+NYjYE2mGQUFarvarq5O0eDamlrw8HD/1jfeHuf1koDhJAogcC4AiyL7pfYU74X+GZxwEnwc43GsD7NCbWBWkFr4kF/bA5cquuEqHh0wL2pga+j4jR7AuQMko+8IiZahIMHHyQquN6pVpe9KUkGMlzXk1fTACSzf3R4nWH31lzWj0APLpjqIihvUdVHYtXp12MMptur81T1wDIUTJIzYlGQrBBRSnYaO6+JsIBon+XnVvXCgsBvNSwDSgm1geoA1KKnfXP4N4Ud8r46xgZQAG6hELE6VED5WsDy6//4YapuSuOvXCqAgJwtKigvB3t5BCAHk+RYuX4PO76LgemG+mLy3ofnGxCnTISF5GtDgivJSGUTlpTfENYWVoQqrRHMWr4TvP/WsGMiRicHR/bvhq88+FtGkDdHd985RAA343n71BTh5dL+IX75moxjsklkJTTBcXN1RULBIxCmpfx2uYoWERwuzlMzTx9EExA6Wrr4DaILe3tYGbp5qHwzk48LR0Qli0B7Yy8cfutGWl8hQ/aePHwLUQ8Y8SSIt/Zu7ZJWw0y9FPJWQMfwNlWFu+6lsWzt7cPPwBEcnJ/TNcRLa29sgedpMmIjCB6Ld2z8Q95l8DXz3R7+ADXc/JPARkcPw777lYbA4xR8n4q1wPLtaTMofXx8NE8PVA/afbYyFydEekJlXJwQU3viBuGtRqKbmTQuDISUW4/Pr4NSVGhRomPbNvlBQD8ezaiCrsAGc8QNG5iNK6Vp5i8h7Hssgyr3RJK6pvMtFjSLsdw8mQjLyfw75/+J4KTjgB+rHd8QKAQUlcMQPrD+ajrihutPuk2XQ0tYNq2YGwpo0P5H/e2siIRmFNJn59cJ/BZmPrJgeACum9U+IvPF57enpgct9wjyRUeE/Y8/faL//xpoxc8FyiJ+UAvUoSCvIyUaBaRAsRlt8MkmRiIQVrS1NQsXe0ckZUlHIKJGh91tKY87RGL6Gyh7r73fKjDmwfsuD4kftiImfqLletOI20bSx3n5Dz7f2vWlqqBP9j3a4kms//2CRrKW5SUlyTsMIMAKMACMwjhDA6TMOCB3VTtU6cPcMIlo9bcNB+Xigpo5e+O1RtQBmKwoGlkTZwCr87SpQazH0oMzg/QtdcBEn+1N8reFHqCUxAwUR6bgy/9FldRoSMCRgnJxKcPJ8A1fwSdtB2hFiCk7wu1GG8E2ROl8+CiBICPFJnxaFVD+V99W1bjhU3AOLQq0hEcvOq+kd5CMixM0KKrCeFzPU/N+D/C9D3ueE9PMv50n73BUFLJ3Iz6dXuuBqQy/4odAlFMu8Wt8rtCuM1W8u/4bwI14J0yrUUnnumLp9a1EwsQQFNSvwtxsdg5pLkr3qdHQWGRmjXlmVl+no7AIknCMtCVJRpVUw/6AQcd5QVwNnTxyGqTPnQ1RsghBWaPuIeOQnvxbpa6ur0NHXF3qdxkVg3Skz1NoUVH/e5Ytw4cxxFHLkQzH+pBXMleh8bjoKIohfctxorH6ahNRWV8D7b74smnXLus2QhnmTp82CGgxPckgVbXLCdpK2hH9gCJB9c1ODemXdWP3FKKCJRiefiSicISHKhMRk6OzsEP4yJBxJm+Q/nlXXL4V99PZf4RpqlhjDX0qv60htN6f96Qf3iGLJD87u7R+JFUxS89/8wOOQhIIHchqaeeqY+NFKJ2FOAgkS1tDzkHFkny62TApLjfOE0ppWuPv3Z0S+326Ngw3zcJU72RsuXmuC8zgBJyHDy9sLRfzTW2JhEwoi7l0cLLQmSIuAtAke+KPao/3LjyXBkqn+A3ggbYL0l+cPCHvir5lw4ko9vPhJgQin8qbHq4VSAxIauPjX4TKg36b5gZCW4CWEBdo+IqKDXaC4ogUeefm8KOkXm2Ng8+IwuG1WAPxjT7EI60H8X/goB45m1cGiZC94+fHJcAv6nfjsRAV4uNhBe2c3vLqjQOAR5usAcSHO4lxijRwt9/R0D8lRrLHnb7Tff6mN+o4R0XEohKiBt175vUiyeuNWmIp+Z2LxOabvFVFzUyPGvyDOb739XqG5RTsYZBz+2uj3RWQy8m+8vt/0je7oUG+TtWTVemGaQWFE1DcQGXu+RCI9/27G983Q863NVhf6vyDfPkqJBNpbH/0pWGMeEnyTNo6pjpiV1sXpGAFGgBFgBCwXASGICAgIFC1QqWzABc00/Pz8ID8/f8it0uUHQon/iCFXaEZG1BbWUH5dDywB1FrACblEZLpBQgiic2iWca6sGyoVmupnYXrSuFiOE2cy9wj3sIIyNL/IqVVrRFzA+HmoYfHbeeiMDx3I2fUt9jujyYUSckBzCpV1Lzy/UJ0BLwV5OfTzb6iczPIeiEaNjJ/PtRNmKSTU+Aon+GTioYTM5d9YHU62qI6O90SiHWiyQr+bRbnZF4RGwv3ojKy+rhpV8yshA7UVpIGmMT48UJW1FX2vnDt51KDHcVKbJsdypCFBThk7cYBLgoh81K6YnDobHvrx0/h82AiHX1Sno6OzsapFvJ29vTDpeOzJZ8S1NZZBRCYZVDbVRyuqpL5dW10pdu6g7dqqKspEOmP1n804IgQRU5DHsutFKHQJxQlQ0QATBvKHQSuDcmq9SStjhtov8UOaIaRGTUSO2MjXAA2a5UT3gvBZuvp24Y+A7tdwkLuzLZpTqLUHqLwLV+uFIILCiY6idsG62YHw76engwrVq0ijgMjNWXy2wQVVuOT580uaURAhkmj+kSNKSWtBCqxrUgv2pOuROjqhxoMtPls7n5khqlDhOZG/J6p+9VEzakGQEILowPkaOJRZCTeq1B/lwxeqUKPCHd55KlVojVyvbIUP9hej8MZ0p7J91Zl0GO333xizjthXSwIHSnuj6KoQRJDmg0RkTiYRxZMJmSdqQBEZe7+lfIaO4/X9Ji01yQEyCSKacScIuaNUQ5gNV5y53zdzn29D7SAtJepHqG+h0YQT9iukeSd/Xg3l5zhGgBFgBBiB8YGAau7cuZCWlgZN6FBo2bJlwuaXVLPPnlWv0g0FhrEqdNDZFlyRM4VePqXWGlGS56tCFGxEgtBoWIZja9JAIBMQiR5C0wpXNDcoQPOLdhR44AIg+KFfBFMIzaqhAoUbEpWg2cfVPtMNKUzf8TPciYOEDnNRGOKNwpeJaEYS520NvzzYARWoiWCMhoN/Y3WMZjwNLBtRUyA5dZYwOaDV//DoCfDai88ocmB46thB4WNg0Yq1KFCYBedxQvvN3s8GNUla/YrDXSY2fed7mvi1m+7HAZwLlBQVih09aIJh6iSYdgMhAYpENDikwSBNukl7gTRBSGW2oa4W93j3B9KOqO1zzmis/uzzp3GwWSrMP9LmLUFNKrtBKvItzY3w0VuvSNXf9KO+9utj5OO3Xx0QFRY1Aeagf4+ImDgRnpN1Hi6YuMXqgAINXJD2lZyeuz8RtQJs4RKaTrTgjhYeKKAI8XWSJxlwrpVdxNU1dsDjr5juP2FAwWZcNKG9VxEKECQqQD8XWTLhixQuHX/wqnpVma5f31WEfiXaYc2sQAjErVBpi9FpEzzh9mdOYJlqYQWt1NrYqIC0fyrKbkjFDMtxtN9/UxvRq/0AGSnA2PttJLuI5vdbCUojl8ac75spzzeZLkq+i5S0hhz8vvf3l0TSpJQZcDuatUVPSALqM5gYAUaAEWAEGAEJAZULTnTee/c9aGxshNTpqWIF9fTp01BXp7b9lRIaOtriKi6Ru7s71Nfrz0fxRGT60YnbFY4FckNBgERhaJZAVI/OJIeDaJJPvh3C0DxjSgBAFy7u70dfDETzgq2Fg8wT17vhr327bpBpRay37pr7ueyP78Bt+TqwuD+dUmNJzh2jPa3Qr4Qy/qeg4KEex/MvHFfnJweba+NUsDTCGt7P7heYUI3a9Q8H//0t0X3WhQNrD5l2x3J02LkYf0fQH8bnKEQZaYpFU4PGhnp473X1gGrhLWth/rLVqKa/CL7aqfbzoOFBGyCMINVc+i1dvVH4lliIjuUmT5sNh/buhPOn09Hso2uA3W1waKQorrGxXmhCkHMw8l2w7Z9/F+FkWkHbxOkkHfV3oWYFCRskQYCPX6BwbCdpKJAAgswxqD5a8Q+LikWnd05Cu4E0MZTUn5t1AR1x3iIctTUhVscP7dXJnrmBpBFikIbQfoPlYeRdD/xAmN1Quqt5l8WWfNIqqLG88nh6G0mjQZs68IPg69GvHRCPTimJStDcYsNsfwj2cRS+E372d7XGBpk2TInx0BRD2236kN1XH4X6Okqnw3rUx7+8ksGtA2jr6BE/SRASE+iEPh9cIbNAbfojz6/rnEw1Kuvb4cGX1KYnP1wbAQ+vjoIti4Lh9x/niyyknUSaPTEJk4ZdEDGa7782Hrqef9ou0tWt/3kICA4V2cj5qkTOrv3OSMmsjIhW75W+31I5uuqX4objaLR8HQ+Yse+bMb6G6/02Vo+S+NFovynPtws+Z0P18UDPKZEVan0yMQKMACPACDACcgRUu3fv1lwfOHBA7IOtCVB40okdTVNTsxBEUBZdwggSQtCvAe3Px4oQgnh1x4nuT6bb4o4VPTAdHTWSQ8qv+oQFFG+INuOODrbYubqpXWxAOAoctiZZQStqN0g7b9AuG+SQMt7HGm6gUKK4T3vhEjqIJOeQkegsckm4NXgiH7NCBttgZmM6nG9Asr81quejwAdnBSdLuyEbfUaUY1mU/5EpKvRH0Qsz0TcEaVT8+UQnlOFOH8ZoLQoeQtys4TD6o6AdM5LQJwMpiJSjiYZE+uofDv6N4Ud8RKJpyxO4M0h5cw9MC7IRWiVnyvrNNSQ+DR0jo+PBxxclQX1EW9UeQjv/ZWvuBBUK0ciGlSgwOBx3qdginBbu37UNhQ5rcKU1SOwM0YjOuiLRFwT5FKiprOgrCcS2m2RKEYu+A2hllgDMwlUf8oEg0def/wvoJwQSKdOFMzkSRJD/htCIGNh0/+PCHIDMJMiUg3hz8/BCh5KtYjeH1NmLhO+GSbiypE207ae++qurKiAYt5Yjp5WV5SXohHEGeHn7wYdvvSrMJ8i7e3BoBNwovgrXUW2bhCzd3d3CPMHewUFR/Yf37RK7hZC2RjbuOGEKGcNfKotMJUIiomH1xvuEc0/p/lG8Oe2Xytd3JGzMEUBI5ZZUtQqnjc/eFwcd6JSlrrkT/rKjEP0noPPTSDd49fFJUIUT7gWTfcXx7a+uowaAPZBzxiT0A7FlURD4ocBi5Qy1CZ1ULu2yMTPRG/74cCLUNHbCnIlqlXsp3tjxqTujhYNKbze1MCM+3BXIDwXtwPHStqua7Pr4pwQZV+qgFaWhcyf5wK/QNoy+H3tPVwgfFOQfIgnb9/sHE6AAzUZWzvCHED8neOLVTLha3q8loalI6+RRdFYZHeQCO46WQGVdu/BFQeVfQ9wkykW7fPLTkoR+So7hjjC6yBLff3k79D3/NX3vN30/mlCYGJc4Gf271A/Y+pcEFRRPPmESkqeKd/oIvrNKvy/Eh7765TzqOh8v77eutlPYWG+/kv6N2rFwxToUmLvBZfRXNBQikwyilqamoWTnPIwAI8AIMALfYgSEaYazkxP4+Pjg6oobvPbaa0NqbllFJbi6OKOwQb1CIxdGSEIICpOHD6miYc5UihN48t0wOUAFjei4Mh01FNCsWhBNd/un5IMrXhChEjttSDFJqGGQ5IcrTliOJIjYjU4vl0dhOjT7pq0xJSJtCdopYxo6vtyabIumGTipQpOKOO+BqwYkUMhAnqYEosACfU0QNWD52TXd8C460Xx4qq0QQNBiQz2WSUIFyaeFVJe+49foD2JdnBUsxHJpwZb4Po9+I/bJtv80VL+5/BvDbxtqZaxFjXhyWkmOPqvRXOQbbB85AlVEfclogi+nBrSbpsk+OXajCbdEURMSgH4kDCBBBDmEXIA7Z9B2luR0i8LJIdnp9INSFjGhpx0t4pImi33WKYIcxMkFEVJiSSBBTi+JDuzeAaRlQWr/dnbJQivhzJkMEUcrvbRVJ/FOW4h24PZw5H8hHLUW5ERbSuqr/8tPP0BP7g8IAQTxT5MU8usg+UQQ9uO4iErONMlUowu1lFpbm3Gy0iJ+SuqntNW4rWgQanOcyTgsZ83wy4MpjeEvFXbu5DGxgkue6mn1W7p/FG9O+0moRH/66A3cglSpPxB9ZVD4zmMlcNvsIFg3Jxj5R1MqnFSTIOLVHfnw0KpIIKeVDugg5hqaLezG7TuJyA/CXtyqc1GKL/x8SzyQ9kN2UQNMjfUU8fRvx9FSsevEslR/6ETh5xWMp10qJNLfMnUKcoxJu2VINDPBG+hXj4ISuSBCH/+UjwQKe5Hn+ZN94M6F6hX5GjQHIWeYz39wBZ5/IAkFEAEoRLUSQpbtR0o0PiHIUSXdA330wf7rQMKIO3CbUMpPfB25WAUfHCzRZKHnthC1Vchsila46b3VmGhY8PuvaSCe6Hv+6fsxb+kqIKeVtnZ24j0kDSo5kekUCSPp+0TfpfO4tTCR0u8LpdVXv4FXh7KNm/dbNFbHYzzWv29K+jcSVtCWzuRL5xBuYTwUIoeyROQngokRYAQYAUaAEZAjYPU/f/5Lb2tLK1RWVkJuXi7cuG6enS0JI5ydndC5X50QOoxlIcSfltoB7Zrxy286YSL6RlA6gZcDOBznZCJxrqJfSGFqmaEuVuCJPh7Oo/bFUCgSTVJoW9GTJmoaSHWZy79Ujr4jaZ+Huo7e/aHt8Nw9veHyhTP6WDQrnDQyfHHrPZpQ6SJSoc1F3wRDJbKfd8VtKvP7vLqbWo6h+u0dnOBHv/g9mrDUwt/+8GtTi74p6c1t/0gz6eZkA5H+TpB5td9xpbxOMlEgR476aFa8BxSilsDNcuKojw994XHBThCADioPXazVl8RgOG1nGuztAHvODHQiKmWiZ/Au3O2EhHQkbHvptz+TooblONrvv7FGUPu9/fzRl8xVvUkNvcOG4vQWOIYixvr7PdJQmdt+fc/3hnseFiaFJIDf+9m/IBOdLg+FqPx7Hv6xMPsjU8evP/8376AxFCA5DyPACHwrEIiKioKCgoJvRVuGoxFWKdOm65Dlm1e0JIwglXHyBzEWNSGohXJBhHkt5tyMwPhEYPGqDTB38Uo4cXgf7Nnx4fgEgVs9JhCYuWC58OkhbVc7JphiJhgBC0Vg+dpNwgExbT1trmYYbedJJlSBIWGQfugroYFnobAw24wAI8AImIUACyIGwtevlzsw3KyrRvQXQep4Xp4eUFFRMebMMaTG5dT0AO06wcQIMAJDQ4BMPgpysnFwOTJOKofGFecajwiQo9SRcpY6HvHkNo9vBPbu+GjYACATOjJNZGIEGAFGgBFgBOQIjIgggiqoq28AH28vqKnRr1IsZ2Q0zv96ps8ZxGhUznUyAt8CBEjNlokRYAQYAUaAEWAEGAFGgBFgBBgBUxAYvE2DKbk5LSPACDACjAAjwAgwAowAI8AIMAKMACPACDACJiDAgggTwOKkjAAjwAgwAowAI8AIMAKMACPACDACjAAjYB4CLIgwDz/OzQgwAowAI8AIMAKMACPACDACjAAjwAgwAiYgMO4EES4uLibAw0kZAUaAEWAEGAFGgBFgBBgBRoARYAQYAUZgOBEYd4KI4QSPy2IEGAFGgBFgBBgBRoARYAQYAUaAEWAEGAHTEGBBhGl4cWpGgBFgBBgBRoARYAQYAUaAEWAEGAFGgBEwAwEWRJgBHmdlBBgBRoARYAQYAUaAEWAEGAFGgBFgBBgB0xBgQYRpeHFqRoARYAQYAUaAEWAEGAFGgBFgBBgBRoARMAMBlRl5OSsjMGwIOLu6QXNjw7CVxwUNLwJuHl6wYPltEBIeCX/7w69F4bff+wg4u7jC8W++hpxL54a3wmEuTRf/plTBz6dhtGbMWwpxiZPBy9cPDny5Hc6fTjecgWMZAUaAEWAEGAFGgBFgBMY1AiyIsPDb74R30NfRCurae6G+Y+w2ZsbcJRAUGgFWVlZQWV4CR/bt0jC7+cEfQnRcEpxOPwRffvq+CF+8agO44+RXoutFBXDyyH7pUnO0d3ACDy8faGqss0hBhiXw7+HlC1sf+6m4HzfwPkhUV1MFsfGTYOPWR+Gbrz6Hw19/LkWNqaM+/uVM8vMpR8O089CIGFiycj10dXdBRel1aGpigaJpCHJqRoARYAQYAUaAEWAExh8CwyaIiImK0IleYmLioPCsrKxBYRwwNATSAq3hO1NsYU9+N7yf1TW0QkY413e+/xSERcZAd1cX9Pb2gqu7xwBBRFtrC7S3tUJHR7uGk+gJieDrHySuVba2YKNS6RREJE1JhdV33CtW5ffu/EiT31JOLIH/dZvvBzd3T9iPK91H9/cLkPZ98QlkZZ6CO+59FGYvXA6lN4ogL/v8mINeH/8So/x8SkgM7Rg5IQFs7ewg48B+oGeCiRFgBBgBRoARYAQYAUaAETCGwLAJIqgiJQIGXYIJY0yOh3jSbGgxIEcwFm8uRsbKNxZvqP6QsEi4VpAL7/z1v3Um+/T9NweFv/Gn5zRhv3rxDc35UE9I86C9rUVvdmPxejPepAhj/JkTbyhvTEIyCpFi4cqlzAFCCKnZpdevwb4vt8H6zQ/C9NkLhySIMFS/VI+xNPrijfFP5Y/X53Plhrsh/eBeqKuplGAe0rG1uVnks7axGVJ+zsQIMAKMACPACDACjAAjMP4QGFZBxPiDz7wWP5lmC0GuVlDd0gsRHtbQ0tkLlyp74PVzaomEux3A46m2EOpuDXboVrSmrRd25XbB/qIe2BRvA4sjVWDVx8KiCBtYEK6eCKQXd8PbF7vgD4vtoKa1F36X3ilSrYi0gfXxKvgspws+Rw0KY/W/sMgOWpEnJzsr8EHzjyosK+N6N/w7p9tow0kdPjQiWqSjCUonajtMmjpTXDehL4iruVlw3/eehIDgME1ZJ9DXwME9OzTXhk6W3noHTJu9QJh6ULpps+ZDStpckeXCmROw65P3gOz6yWzAPzAUbFGroqG+Fo4e2C1MQCjh3Q89IbQu6mqr0WwkHNpaWqAgNxu2f/APUY5/UBis2rAFfPwDwcHBERrr66Aw/4omXiQy8M9QfiX8G+PPWPuo/pXrN0NAUCjY4D2oqiyDS+dOoTbKFzBn8SqYu2SlaJMnmrbkXbkEEdEToKuzEw7gPThz/BvRssjYeHHMu3xBb0uzzp2EpbfeDp7ePnrTaEcoqd8Q/1Te9596FoVL7WBnb4d1+0E93seszNOoubFNU50+/r8Nz6emkUM8Scb3cVJKGtC9PbhnJ9RUlQ+ppOq+fE5OLkPKz5kYAUaAEWAEGAFGgBFgBMYfArxrxijec3uUG3jhBJ8m+sdvdEMbyh9mhdrArCD1bXk4xRZivKwhr7oHjqFwgYQRm5JsgQQUZc0otKjohvzaHtGC4oYecU1h1+rVYQ4oZrKTLVLaYn4KU/XddWP1U9pIT2toQAFIBvLnbAuwAAUeSihlxhxYv+VB8aP0MfETNdeLVtwmirh+rQAKcrKgpLgQ7O0dhPmFkrIpDU1+KC+VQVReekNcU1gZmggQrcNV+pDwaCguzIPM08dBZWsHS1ffIQQUFG9rZw9uHp7g6OQEF8+ehPb2NkieNhMm4uSMaOHyNZg/Cq4X5gvhRRuaj0ycMh0SkqeJeGP/DOVXwr8x/oy1b/majUIYRO2/iMICF1d3mDFnkWDbDlXpCfNytOmvrqqAGPTRcfLoQcTIdkD7vH38oaenBy5fPGuwuU0NdaJ8g4lkkUrqN8Q/FWVr56AWILW2ChMRexQWkXBKTvr4/zY8n/J2DuV89/YPxHuUODkVvvujX8CGux8CL7zfppKff7DI0tLcZGpWTs8IMAKMACPACDACjAAjME4RwKkm02gi0NML8P6FLriIwoYpvtbwI9SSmIGCiPSSHghxs4IKFDi8mKHWaLgnSQXLomxgTogN7CrohkPFPbAo1BoSMV9eTe+QfEQYqp9waUAnmM8dU9f/3ckqmBdmA0vCrGEfamUYorzLF9Hng9p75pJV64VpBoURNdTViKNkTz597mKIjFGvvIsIBf/OnjgM9Js6cz5ExSYIYYG2jwi/gGCora6A9998WZR4y7rNkIZ1JU+bhSrpe0QY+azYvf0joaFBavybH3gcknBidvHsCXB0doGurk6hpUEmCLSK7h8UAnSuhAzlJwyM8U91GOLPWPuuX8uHYvwd3L1dsLty/RaYjoIIwlsi0h6h9pIwhjQJ4idNARcXNylaaFL09HQbdQTahf4/rKz7JFya3MZPDNVviH/JcSlNfv/3L78TFUntm7XwFs39JU0QXfx/G55PY+iSEI7eDzmRo1jp2c88dQzoR5pK9EyQQCIGnY+SVlLGkX3ybIPOSWCx9dGfgjXec9LMIcel9M4wMQKMACPACDACjAAjwAgwAkoQGBFBhC4/EEr8Ryhh+NuWpq2rVwghqF3n0CzjXFk3VPa5MnBQWaH2Qi88vxBVIJDwUpCXg2SQob4257+h+qncOtSGkKi8SX3uam+8flqFpx8RCSKa0ZO+3NGhVOZIHu3s7cVE+rEnnxHVWFurtTnI8aJE7W1tQghB1+RokXwh0KSKKDf7gtAouB+dbdbXVaPqeiVkHN2vEaSIRAb+mZufijbEn7H25aN2yOTU2fDQj58GG2w7ORQkcnR0Fsex/k8J/42oiSHRjaKrQtDi4ektBek9fhueT72N64tw9/IWGjzydGRaJAkipPALZ46jwK4StYVuF/5APL19pSi9R9KSqaooA2sba6CvghNu40q71ygV0uktmCMYAUaAEWAEGAFGgBFgBMYFAiMiiGChw9CfnZdPqf1DSCW0oDJCRZ8AgMJKGnvhap/phZRmOI/a9Q9n2aNRFu3GQQIEiWjyZGiy9PHbr0pJheCkEf1KJKfOEltX0haj4ehH4bUXn1Hk4I8EL+bk1zAiO5HzR8GG2rd20/04QXSBkqJCsSOJo5Mz+lIwPsmUVYcaIV0ozFEBaV9UlN2QRw04JzOPnm7jvkMGZDJyoYj/fjmZztKU8q8z800INHT/dFWvff91pZHCLp3NAPoZorCoCTBn0QqIiIkTyXKyzsMFBZoN5ODyvb+/JPIkpcyA29GsI3pCEmSfP22oOo5jBBgBRoARYAQYAUaAEWAEBALDIoiwxa0Vidzd3aG+vl6c6/pH8UTkOLATneIxGUago7sXOnBu96dTaqyCnK0g2tMK/UIMnn3p0lEgIYa7THvB38VKrF6Sc0xLI1rRN0g6AOhC05DOzg746K1XRFYfv0AIDkefD31+JQyWh5GxicnQ2FAP772unnAtvGUtzF+2GtXYF8FXOz/WZCetA2/fAOEIU74zh9L8oiAd/Gsq0HNiqH3EEzmPJN8X2/75d1ECmabQNqqmEJmQWFlZQUzCJIOCCBc3D9DnI0AfPob4UMq/M67ES+QXGCJOyRmqREr5l9IP9Tgaz+dQeZXy3fXAD4RZE11fzbssttSVtJikNEqOtC0vkZX1EB5iJRVwGkaAEWAEGAFGgBFgBBiBbx0CwyKI6MSBaFNTsxBEEEK6hBEkhKBfQ0MDCyEUPkZkCkHOIh+ZooIbqAkxE31D+KEw4s8nOqGsT5iQXd0L7SisSPa3RvV7vJ0oYzhZ2g3Z6DPiCvqdmI8+HX6YqoK6VoDJmKYK8x2+Ydi/g0L2zE62bM2doEIhFtmYEwUGh+MuD1uE08j9u7ZpyidTiRDcgWP1xvugG302tLQ0w6G+3TUK867gjhy8vgJDAABAAElEQVQdEIu27bRyj04VIAtXZa+hCjo5YQzGrUPJqSPZxk/ElVsv3F3hw7deVbRDwPxla1ATIAjOZRxFgUQdRKIvCvLZUFNZoeGNeF+JO2vYoeNLe0dH+HLbPzVxSvIb4l9TkJ4TQ+2jiSWtttNuIKmzF4GruwfukDBDT0n6g3PRrwf5GUhCJ53HcMcRXbRwxTp0VOkGl9EfhTYZwkc7rfxaKf8ubu5AE+rqynL0cTBNPDsZR/ZrilLCvyax1slYfz612DX5Mjg0wiwBhFQhmWQQtTSxs0oJEz4yAowAI8AIMAKMACPACBhGYFgEEVRFWUUluLo4o7DBQ9QoF0ZIQggKk4cbZu3bH0viAEO6Ce+iE8uHp9oKAQQtNtajv4bD17o1PiUIIRJI0JaaUwKtYQluz0nU0NGLgohu2He1GwJQCyLJ10bsnkGCjSO4+4ZExuqndDjv1hA5thwy6cg7NW0e2Ds4aIqMmpAA9GtFQYNcEHHu5DHh64B2OqDV+QbcRlMSRNCWg7QjRFzSZJg+e6Eoq7mpUQgivvz0A9yp4wEhgCCnek2o3XA244jGJwQJFehPH5FDxAW4c8a0WQuEUz7ii5wcnk4/qMnSjKvvJAixxR052lr7nHv0xSrJb4h/Y/wZax9t1Rk/KUVsQdqB26eWXi+C8KhYDe90Qrb+hoj8ZhSiUIPMUmjCT/dFbqJBwpYZcxYLXxaHcAtIbTKED6XVVz9pMijhv6qiFAJDwmACaq+QRsbFMxnIS/99MMa/hl8dj8FYfz41vA/x5I2X/0uxvxNDVZBDUCLyE8HECDACjAAjwAgwAowAI8AIKEHAKmXadB1DcCVZdachYYSzsxM696sTQoexJoRwQZv5JgtbuQtFYYInbvN5Hp1ZDoXIuWUA+ifMQu2J8Ujk38AVt+nM79u1w1QMAkPCwR0dIF6+cEZnVjcPL2GacTU3S2e8sfw6M5kQaKx9ZCKSi7b/QyV7BycUQjwuhBgkzHnptz8TRW2452HhDJEENHs/+xdknjyqswpj+OjMJAvUx/8TT/8BWlH48PpLz6C2SqJGwCTLKk718a+dbrSujd2/0eJLab30fN/z8I/BwdFJmDJ9/fm/eQcNpeBxOkaAEWAEGAFGgBEYNwhERUVBQUHBuGmvsYbaBAYF/8ZYIlPiOzo6xaq1q5srOOGWgPQbS5oQdrhzgLStpCntGs20DbgLZrkZfh1a0YS7Ek0zxiuRhkQtmmkMlWjyTSvv+ohMIMh5nz4yll9fPqXhxtpXg2YL5hCZw5CQob29Xey8QVtuEoWiv4ny0uvog+JNKCrI0VuFMXz0ZuyL0Mf/zAXLoQt9gJxOP2QQf338G6v3ZsUbu383i4+h1kPP9+ULZ6EbnZXaqGyAduYgTR8mRoARYAQYAUaAEWAEGIF+BDw9PaG2trY/YJyfDbtGhISnh7sbeHl6QEVFBdTU1EjBo360RI2IUQeNGWAExiACpJHR3toKX3zy7hjkjlliBBgBRoARYAQYAUaAEWAE+hFgjYh+LOhs2HxEDCwWoK6+AXy8vcaUEEKbR75mBBgBy0Vg23vq3UAstwXMOSPACDACjAAjwAgwAowAIzA+EbAen83mVjMCjAAjwAgwAowAI8AIMAKMACPACDACjMBoIMCCiNFAnetkBBgBRoARYAQYAUaAEWAEGAFGgBFgBMYpAiyIGKc3npvNCDACjAAjwAgwAowAI8AIMAKMACPACIwGAiyIuMmok7NMJkaAEWAEGAFGgBFgBBgBRoARYAQYAUZgvCLAgojxeue53YwAI8AIMAKMACPACDACjAAjwAgwAozAKCDAgohRAJ2rZAQYAUaAEWAEGAFGgBFgBBgBRoARYATGKwIsiBivd57bzQgwAowAI8AIMAKMACPACDACjAAjwAiMAgIsiBgF0LlKRoARYAQYAUaAEWAEGAFGgBFgBBgBRmC8IsCCiPF657ndAxBwdnUbcM0XjMBYQoCfz7F0N8YfL/z8je49d/PwgjV3fgcee/KZITEyFu/f7fc+Alsf+xlMSJoypDZxJkaAEWAEGAHLR0Bl+U3gFpiDgIeXL8yYuxg8vHwgK/MUXDx7wqTi7B2cRN6mxjr4/+y9B3xU55X3f6aod4EQAgkVqhBN9GJ6ccOxsSEE4hLbiUvitHW8ed+UTfNm14k3/3g3duK189qOExySuMbGYBtsejMdRBOig1DvvfzPeUZ3mJFm5o6mSDPi9/CR7r1PPc/3uTPonnvOeWqrq7rV1t+Vl9y5kqKiYroMc+FsPu3b+Zk1f9XD36KhI3M4bzN9+PYalb/gtrspjv/409KlCwW0d9sm7dJ67In533zXKoqMjKLD+3fRmRNHrWN3Phk5JpdGj5tEB/Zso3P5JzoXe3TdE/PzSDA3GwWy/H3l/nRzKYKyGr4fifD96PzW7YnvF7kH73/8SfX/0WX+f8hRmnrTQhqUlkEGg4GKr12hbRvXWasF6vpVlJXQ8FFjacX9j9GWj9+nrZ+8b5UZJyAAAiAAAjcGASgibox1djjL3Gmz6ZY7v0TmkBBqaW6mkTnjafqcxfTyc087rO8oM2fCZFq6/D7ateUT+ui9tY6q9FreKH4wj41LoLbWVjsZDEajnSKiob6OGhvqqamp0Vpv6IjRlJQ8SF0LH5PZ7FAR4e/5y5uwSdPnkJnHb2trc6mIGDh4CI2dOI2uXb3kM0WEv+dnBe6nk0CWvy/cn35atoDoFt+PlmXA96Pz27Envl/uWvWg+n9s04fv0PZN1xUMmlRf+cb3aUjmMGptaaH29naKiYu3U0QE6vpt/OBN9fJj+X2P0cx5S+jq5QuUf/ywNi0cQQAEQAAEbgACUETcAIvsbIry0CpvUP722u/5wfUkffGBxylz+CiaxsqI3Vs+tmsmb34aG+rs8rpz0Vvtiwuv0Iu/cW3O+vaal7tM5aXfXlfG/NuzL3Up726G3vydlY+fPFMpIRrq62lAymCHwzpra1tZr45euW1fjs712uuVO+pTy3OnrTt1tP4cHXurfbDfn45Y+iMvkv+nqmtx3rNeufOWzkvw/Whhg+9HIn9/Pzjrf1j2OFYyDKeTxw45VELICqUOyaTzBafptRd+5fBmDuT1u3rpPG388C1atuphmjJznlNFRGK4gcoa2h3OD5kgAAIgAALBSwCKiOBdO68lHzBwMBUXXaWTRw+ovvbt3qLe/GsWBMmDhtCty1bRwEFpZDKZqKS4kI4d/JzftnxAi25fTpNmzlWKDGk8acYcyp12k+rnyP7dtO7NP5P4pYrZZXJKGoWwVUFVZTlt/3S9coEQc1GxVhAlwX2PPkkDU4fQC7/6MU2dtYD7mkvP/uS75Gr8OYvvoBn8FuXgnu204d2/qnHl17d/9AzVsIvIH5/7d2ues5MHvv4UiRWBlnazVcdnG97VLl0evZ2/dP7lr31HWV1UlJeyWW06NdTVUcHp4/TOG3+0jp2anqUsNa5cPEeDh2RY8+Uki91JZi+8jQanZVJjYwPJH3W2yRU/qfeN7/+ClUuNFBoWSgn9BlAly5F3aB9t4j8Me2p+tvJ2Pk8fOpLmLrlDza+5uYmEQRq/+du07m3au32Ty/vDW/lxf7p3f3ZeM9vrQfyAZDR0DUMk3wNVFWW2VR2ePzM/lOqb2yky1ED9IwxUUt9Oey610j9OWSyc4kKJnpgcQmlxRgrlYeRBZd3pFtp0oY3+ZUoIJUYQ/WhLM31/egilxxvo/25qosUZJpqfaaJvbGhyOKZtJr4f8f3Y29+P8mJAUv6JI7a3JrtDJlFaxlCVZ+T/m5vZmm/sxOnqWv7/O3s6j4Lh/zcROO/gXv7/5h7+P6i/kt/2lygYfzkvlGLCDOqz/WbHZ9+2Ds5BAARAAASCl0DXvxKDdy6QvJsExBqitaXZ2kr+IHj1+WfUQ55kLrljhfpj5+K5fDrKZdExcawomK/ql5Zco4JTeXTpvMVn9drVy+pa8grZxFLSXfyWIzV9KEn7Q/t2sQtIKC1aulwpKBobGig2wRKDQeJTRERE0jD2F03sn0ytrZZXn67G37drM7EdKrfJUWPJr5v4oVziOlzlB1Z3ksgu8soDblhYuFLCuNNO6ng7f+kjJDSMYuMTKCIykmNz7FXKhHGTptOY3GlSrFL/ASkkvrTCNCw8giaym4aWpsyYp96WXTx3Rlm0DGalhW1yxU/qhYSGWxQgbG0h8UGkf1EuSeqp+anBnPyazG/I0rNGkMTnOHv6hLqX1DqZ+K9TTq7m5638uD/duz+dLJ3Kvu/Rf6GHvvl/uvzMmLvEVTNrWTgvc2aCkapYwbDncitFhRDNZUWClh7JDaFhiUbKL22jHRdblTJiZU4IiYKioaWdEiMNqmoSH6NCDDRugJGSow3U0qb14PqI70d8PyoFcS9+P/bj/w/FJe9Ex8sC7Y7NnTqLlq1+WP1I3rBRY6zX82/5gqoWDP+/afOpqapQf19o19oxlpWQUfxj5r9U49kqAgkEQAAEQKBvEbD8Rd+35oTZdJNAxrBRlDvVYs0gTfM5IOIRDox46fwZusg/n61/R/V467LVNIUVEVM4uKUEbjywe6t6MM4ank2X+GG4c4wIeaNYXlpEa15+TrWXoIvTuO24STOojPNzwierNzuRUdHKWiI5JVX5t9ZUWYJe6o0vD+BD2Spg9IQp6q3KiNHjSN6cS7wKLfVPTqF//YVlfC1v7asv0PkzJ0l8VCXJfDKZQXeSzN2b+e/8bIMaTnx617+zVr3BEjPcVQ89QTnjJ6ugocIvjhUVJ44epLwj+5QFiKzV/l1bVNuU1HRWUpTS6y/+l7pecf/jlD1uonUaevykYl1tDf2///kP1UZb3xnzbiaRz9/zswrq5GRQaoa6L17/g2fz80Z+3J/696eTZbNmb9+0npVdrBXolMQNzN1U1dhOT++wKEu/Ot5Ms4eYaOEQI21kq4fUWAMV1bbTs3ss5ffmmGlxlolmpZroGudPMRtoAFtSRPPb1DK2pkiLNVICP8xUdtPEG9+P+H6U+7U3vh/FErGtrbVLIGj5P7qpyWLVs/C2Zco1Q/IkadZGgf7/mxK241cLx7eQ2E2dU2FdOz3/eTMNjDLQ+rP2sZ4618U1CIAACIBA8BGAIiL41sznEif0S6LssROVm4UEZWzmP3BEEXGGrQUkRsHXvvtjMhlN1oeKiIgot2QIDQtTLh3almNG7kOSuGRI3/LGcdTYXDKajKywKFa7b0RFx1BJUaGqpze+7A4hiogJLGPhpQtsqp/G7gkXqIytNbQkgbo0qw0tr54fvnsiuZq/Nr68eRczWkkSqEt8gcUCQtIYjuEhZrcX2KLkyoWzVF1ZQQMGWgJoSnlYRISdO4ZES8+m64oIPX7SRzW/idLSZR5DFE3xCf20LJdHb+fnsnMuDOf5lbI7kJY8mZ/W1tHRlfy4Py3EXN2fjpja5okLl7epwkZpcK3G4iMuZtqSwlnRYDa2K9NtueZLlcSf/GhxG7uFsMvYQCOZ+FjMiomkSFIm3lc7+rHU1v+N70d9Rp7UcPX50/pzdf/dyN+PYmUoP5JEEVFbU+U0hoTG0tdHb9fPXXkOFrlpwuRuh6gHAiAAAiAQMASgiAiYpeg9QbS3+7L948qvfN0qyJ0rH6TI6Gh+CD6n4hRE8BaS8kd5d5LsRlFWUmxtIkoGiWUgD91ivSCWCPJWvqqinBKTkkmsI8rLLPX1xj9+eB8rLa4qk/1psxdyHIrQLiasdbXVtPaV31nH7+kTZ/N3JsffXn3eWiSxHyQtZncW+ZG3YxFNUU4Dp3UO5aXHT3XeuZHKdP+XN/PTG0VMks3m62/UxXXENrk1P9sGDs6dyY/70wEszrK9Px3XuJ778Ld/SKEOLCIOs5vW9k0fXq/oxVkdG0MU2SgWrlS309nKNjrIiogmfoE6OslI1U3tKn5EMr9VjebbSZQS3Un4fuwOre7Vdfb5c9aL7f13I3w/iqWAiV3RxDquqPCyMyy9lu/N+tkKLS53Wmwq23ycgwAIgAAI9G0CUET07fV1OTv5I0fiPmhJ+8OuurpSWUJI8CiJXfDWX/5XVRHXCtkmzGHqeBtpW9bClhWibNAUARLvQOIYaBYKooAQdwwZTywihmQN57fgkcq6QSwx3Bn/dN4Rmjn/ZhWoq6aqknZt/shWBJ+di0WIy+TB/F32x4X9WDEjgSyPH9mvqiZyQEnZYlXcaHZt+YiaGxvt1i/RRknkLj+xQNHSAF4LSRLsrEvyw/y6jNEpQyxbJJioBOUsuXaVd3TJttZwd37WBh7Ij/vTSs+jkxb+7BvZ6qlzku8dX6Sm1nalbPgtm25LGsSKhqEJBjpTblE0iAJC3DfEqkJcOEb0M1Ikx4o4x4oKdxK+H92hZKmD78eurPT+/+vaomuOuFmI5eCw7LF+VUT0xvrZzjY6Nl69kLDN085v4eCyieFEp/lzvbfQvc+u1hZHEAABEACBwCYARURgr49fpZP4DWkZw2jlg08odwBxk6ivq6XNvHNELAd9lLcdEqxr8sz5KnbD2NypXeQRf29x5RjOgSblzY0EkMxjSwWJwVBaUsQ7PWSqoJViVj+G28vD9F9feV65T8gD7+C0DLp88SwHJDxLcxYv5UCVrco9ISw83K3xt25cp3brEGuN47zjRHfS4ju+qLbGlN09JKUMTld+wLIDxaZ1b1m7EleJVI5QvnTFAyq4Z10HI6ngzfytAzg4GcJBGmU/eHHV+Pi9v6kaEvhT4mCIMkgUEYVXLlLWiNF0972PUF1NtQpYpnV1Nv+EW/yiY+PoSw99k10grtHo8ZNUwMw9HP9DS/6an9a/q2P+iWN8/2XSat5hRd6WtdgEVnV3ft7Ij/vT1erol732wq/1K3lRQ1w1JJjloxPMdJktIaZzbIgBrIz4793NJL7lEgsii8vPlrdRAT/E3DnSEqjywDX3Hmbw/Yjvx97+fjzNcR8kQHEOx0HawTtOdScF8v9vtvOYd8tdrFCPpRMcj8pRumWoieI51kvhIYvC0VEd5IEACIAACAQnASgignPdfCL1p+vfpXk330kZw0ayCfU4ZZWwf/8e1be8iZGtOkU5cdvdq5VrhsRfSGerBdskb61lRw15Uy/7gEuq5YdiUUR8+PYbHMn7IaWAMHIgKrFYkLgOWkwEiXlAacTjlihXjZbmZqqvr+UH6Dr14874UlfiCMgD6/49W9X41l86FtgTp81mNwd+1dKRskZk84N9tlLG2CoiDu7doSxEJFK5vJ2qYrlFWSPJm/lLoEr55yiNYjcZGUsCTmpJzquZYf/kgSrr4N7tKt6GBLds5bfMhVcuKDcVKXR3/cS1JYW3ThUFh1gAHOX1F6Za8tf8tP5dHbd+8j5dOHuaJs+Yx2tSw4qIFpo+Z5Fq4u78vJEf96fz+9PVuvmyjD8i1tRmcy6Zrx9poUcmhigFhMSDEMXD1vOtdJR30ZCkxZcoZqWE5qpRx9uB1rlpkIHvR3w/9vb3o7iInWOlssRCEoWx/L/k0EWj02dD7v9A/v9N5JMk23DLlt0SC2TzhvcsmTa/sxMNarcMcaeSbXmRQAAEQAAE+hYBQ+6kKQ7+C/PNJIdlZVBeniUQn2969L6XaI55UFPTM8EKHUnb2+M7kkksApKSB6k/eByVD+eH1NN5hx0VuZUn/q0xvPvDmY6o3m41sqnkavyw8Ej69g//kx/Qy+n3v/6JTavAOfV2/nozkaj+ZWx9Ig/njpIzft/58a9JAne++JufsdvDaKuCyFEfrvL8PT9t7GWrv8ouONPozb+8RMcOWBRmUuZsflo7vaO38rsaH/enHn3vy9N4S84EfmN6mONC+CPh+9EfVK/36e3n73pPjs+C/ftRvkO+xLspyUsAUeb/5uffczzRXsr1dP3Ekm8MW3qIFeZH//w7HWLFeuek7YSzsaCV/nTMTQ1i505wDQIgAAIBRCArK4sKCgoCSKLeFQUWEb3LPyBGr2UXCflxlrxRQkif8gbH4VscZwN2ync1/qwFt6jdFQ59vqNTq8C59Hb+ejORN2aukit+WjvNSkW77s7Rn/N77MmfUgQHMJVYA5Ecz0JcSGyVECKnO/NzNR9v5Xc1Pu5PV+R9U3aRXTTkx18J34/+Imvp19vPn550wf79KBZqr73wK5o+dwnJVtmBljxdvxqODbWPt6Le+skHTpXo6XEGqmePjPfPcORZJBAAARAAgT5HAIqIPrekN9aExOWj4NRx2umnIJV9maa4PTTW1wf0FEvZ9Secdz4RN5bCyxdpz7aNAS1vZ+Fwf3YmguueJID7z3Pagfb9KIGY/RWM2XNKnrf86N21uo33XG6jXZda1a43upVRAQRAAARAIOgIwDWjh5csEF0zehgBhgMBEAABEAABEAABEAABEACBG4oAXDPsl9tof4krEAABEAABEAABEAABEAABEAABEAABEPAfASgi/McWPYMACIAACIAACIAACIAACIAACIAACHQiAEVEJyC4BAEQAAEQAAEQAAEQAAEQAAEQAAEQ8B8BKCL8xxY9gwAIgAAIgAAIgAAIgAAIgAAIgAAIdCIARUQnILgEARAAARAAARAAARAAARAAARAAARDwHwEoIvzHFj2DAAiAAAiAAAiAAAiAAAiAAAiAAAh0IgBFRCcguAQBEAABEAABEAABEAABEAABEAABEPAfASgi/McWPYMACIAACIAACIAACIAACIAACIAACHQiYO50jcsblEBcKFFlk/8mHxufSHOXfIFS0zPp97/+SbcHioqJpdrqqm63C5QG/uYbKPOEHL4jcM99j1JUdAzt2vIJnTp20KuOp85eRCNHj6fEpAH06Yfv0OF9O73qD41BAARAAARAAARAAARAwBsCUER4Q6+PtH1yagjlDDDSZ2db6U/HWhzOakmGiTLjDWTg0svV7fTPM60O6znKjE9Movsff5LiWBlx+UKBoyo09aaFNCgtgwwGAxVfu0LbNq6z1lv18Ldo6Mgc2rdzM3349hqVv+C2u1V/WqVL3O/ebZu0S+sxLDyS4hP7U011Ra8pMtzhaxW4myeR/AlOijBQRWO7XxVJ3RSr29U9vb8S+yfzvbOAYuLi6djBvZR36PNuj601GDkml0aPm0QH9myjc/kntOweO3Yev6KshIaPGksr7n+Mtnz8Pm395H2PZEnLGEYLb11GLa0tVHT1EtXUBK9CzyMAaAQCIAACIAACIAACIBBwBHymiBiWleFwcqNHj+6Sn5eX1yUPGb1HoLa5ner5p7G13aEQP5oZQsP7GamljaiNqySUt3VLEXHXqgcpNi6BNvGb2O2brisYtMG+8o3v05DMYdTa0kLt7e3qodJWEdFQX0eNDfXU1NSoNaGhI0ZTUvIgdW0OCSGT2exQEZEzYTItXX6feqv80Xtrre178kSPrzeyTEsx0lcmhNAGVgytyXOsRPKm/55o6+n9NXH6HLr5zpVkNodQS0szjWJFwoQps2jNy895JPbAwUNo7MRpdI0f1ntDEdF5/I0fvKkUK8vve4xmzltCVy9foPzjh7s9t8wR2RQSGkp7Pt1E0icSCIAACIAACIAACIAACPQ2AZ8pImQi7igYHCkmehvCjT7+Hw64foDNSjDSydI2+uWO5m6jGpY9jpUMw+nksUMOlRDSYeqQTDpfcJpee+FXDvt/e83LXfJf+u3T1rx/e/Yl67mnJ2I50dhQ57S5XrnThlygx1faimVDnetlcDWEbple//4udyWgp/fXmAlTVbdrX32BCvkhfTlbDgzJGk7iBlRVUWY3pKv1c1WmdaJXx5tyV22vXjpPGz98i5atepimzJznkSKivrZWTcNoMmnTwREEQAAEQAAEQAAEQAAEepWATxURvToTDN5tAj+YEULp8dfjlW4400JvnbK4XAxgc//hCeKIQWTiKk38kDxrkKVuJRsmHGXFhDspc/goVS3/xBG76uKukZYxVOXJA1IzWzuMnThdXddwLIizp/Poga8/RfKWWEu72Vf+sw3vapcuj4tuX06TZs5Vrh5ScdKMOZQ77SbV5sj+3bTuzT+TxJ0Qs/fklDQKYauKqspy2v7peuUCIhW//LXvKKuLivJSdhtJp4a6Oio4fZzeeeOPqh+9X674Sttn5ocqS5TIUAP1Z94l9e2051Ir/aNjDdJjDHT/ODOl8DHSbKDyhnY6UdJGLx5soZWjTLQg06xcZaSv+ew6Mzfd8qC582IrvXq0haT9fWPNlBZnJDMv3dUa7v9yK72Xb1ljvfEHRRloRbaJRFEQxTJerW6jvVfarO0l7sUTk0NU/6HcfxnLt+50C226YLk30qINdNdIEw3l9pEhBrpQ2Ua7L7fRx+dbyRf3V9LAQVRSVGiNnyD3mCi1xCpiy8f/1F2/LHb3mb3wNhqclkmNjQ0kD/22ydv7Q6+93viaLHnscrLo9nsooV9/Latbx9KSa6p+ZGR0t9qhMgiAAAiAAAiAAAiAAAj4iwAUEf4iGwT9nmEXi5qmdvWQmJ1kpBCLnkFJPifNSHeMvH57jE02kvxIyi9ro6Pb3VNE9GMf/ra2Njpx9IBqq/3KnTqLZi+6XbukYaPGqB/JuHT+jFJEXDpfQHW1NRQeEUmZw0Yp9wtrA50TefgqOJVHYeERlDU8m83tL1M1KxokydtzSXfxW+bU9KGqXnVVJQ3PHkuLli5XskpgzJDQMH67nsAPqfV09MBepTgZN2k65Z84yte7VR+ufrniK+3CGe/AaCOdZqVOATMVvnNZoaApIrSH+MPX2qi0vo1GsnvMtMEm2l/YRoW17XSsqJUi+AF/NK/dxao2qmBFhqTz/MAv6Us5ZhqWaKRjxW1UyTEkxnIckEWZJqsiQW/8pcNMlDvQpNb7OCtARvc30pKh19s/khti6b+Ix2YlxDiWf2VOCO0rbFTxKm7hupNSTCQczlaw/Nx+eZyZ8vl60kDv7y+j0cjuPNetdBobGtS8xVVDkt76TZkxT1nrnMs/qe6zrJH2bmTe3h967fXGV5Po+FVTVUH9B6TYZrl9PiB5sKornyUkEAABEAABEAABEAABEAgEAtefNANBGsjQowTWnrC8GV/Mb9JFEWGbDvPDayMHt5O0fLRZuWYc4QdiSWUdD7zqQueXia0d2tpauwSKlIf5pibLNh0Lb1umXDMkT5JmVq/5s0/hYISiiOhOOrB7K8mPxBEQRcSlc2eoc4yIAQMHU3lpkTWmwM13raJpPNa4STNo52cb1HASs2L9O2uVYkTcTFY99ATljJ/sliLCFV9tLlWsIHi6w+Xlq+PNNHuIiRYOMdJGtiqIYSuEZkb+9skWOlvVrqwI0mINdLayXVkfbL7YRvNZYSSKiPyy9i4xIs6wckOURm92WFjcz4qJhVkmkvUWqwRJrsaXe0KsNDT57mTFxEJWZNzCP+s5sGkqy1LECpFn91iUAfdy/4u5/1mpJlpX0EqjWPFQyu1/sd1S/hBbd4jVxnhWWPjq/tI4Oju6Wr+U1HSqKCul11/8L9V8xf2PU/a4idauvL0/9NrrjW8VhE9aOH6KgRUv7iYJ4nn/Y0+SKGvEMkMCX7qjPHO3f9QDARAAARAAARAAARAAAW8I+EUR4SgOhDvxI7yZCNr6lsCp8nY6VW55WBVFhDywdmenDD1pLp7LJ/mRJIqIWo7k7yiQpV4/3pSHhoWRKEoef+pnqhuj0eLaIIE1tSRv2cVNRJIECpRYF/JQ56sklgRausauE5JiwiwuMYdY8TOULRp+cFOoUv7IQ//HrAAQFwh30hFWJs1OM9HPZ3MwT6OBQjtCBESxS4WWXI0v7hTn2JJBS++yS4f8aCmc3UXMxnb65TxLh3ypUmK45SSaFSm27cUyQhQR0dyvv+8vTUZX6xcWEWHnjiG7tWTTdUWEt/eHXnu98bU5eHIUKyRxWzGyX5XcLZG8DajsHtPZ/cSTvtEGBEAABEAABEAABEAABLwl4BdFBJQO3i5L32kvb3JNJjPJ2+GiwssBNzHZjaOspNgqlzy8uXpY+9urz1vr+vtEFD+idLiJlQn9OIbEGHatEPeMH33WREVuWKV8jV0nRKlRwAqAxpZ2imZ9wQCO++DLVMfGDkUdChTp9wpv7Xq2wzWk8zhsXNLrydX6ORLP2/ujO+0dja8BCwsLp7bW60ogLd/ZsaKsmP78v79RxTm5U+meL3+Nd5rJoeOH9zlrgnwQAAEQAAEQAAEQAAEQ6DECPlFEhPDWiZLi4uKosrLSqfBSLkkCAzY3W8y1nVZGQZ8gIG4WBoOBhnH8BX8qIkwd1gxOoTl4/m5h15Dm5iZa+8rvVDPxwR+cnsUxKgqcdtOTBRNY8VDJYQ+e2WX5rNw9wkR3ctyORRlGWnPc/qG08/RmDzZSEisddnPwyxc6dkUR14nh/dyfQQvv1RrfYd0grZZw/IoF/LONg2G+z0qSJt7utYnF+O3nFvkkuOVQDnB6hq1pJDV3ap/OQTMlibuHL1JDfT1FRVu+U6S//kkDVbcV5e5ZrDQ3NlJ0zPX2if2S7MTy9v7Qa683vq0w0bHxKo6FbZ6757ItriQDW8UggQAIgAAIgAAIgAAIgEAgEPCJIqKZ/9CtqalVigiZlCNlhCgh5KeqqgpKiEBYeZZhFe+IEMIPJ7HhFoHkQfH+HAPV89vzv5+0f9D1VOTTHPdB4jTkTJhCO3hHiu6kxXd8kcys5BIfd0kpg9Pp1mWr1Q4Hm9a9Ze1KXCVSeQeOpSseUMEL6+pqaXPH7hoSiLCZFQ7DR41VlhnEr+Xz+K3w+TMnqbSkiAbzLgsSVFDM8sfwm+PEfgPor688z1YSlp0GrIN4cOIt3ztZ8ZAaa6StHM9BdszI4ZgNYlVwjV00tHS8tJ1jeZAKFGky8seZi/ZebaVjnF/P+oFM3rFiYbqRElihMCPV/RgD0r+Mk8m7qnyHd8a4VssBJgeZVNwKCZapytkSQvp/dIKZLrMlxHSODSEWF/+9u5kK69qVpYSUf2dKCCtU2jnwpShWOOYGu5f4Il04e5rjeUynlQ8+QdUczHHkmAlq55P9u7a41X3hlYuUNWI03X3vI1RXU20Nlqo19vb+0GuvN74mx7xb7mKFSSyd4CCuniRxyZBUV4NglZ7wQxsQAAEQAAEQAAEQAAHfE/CJIkLEKiwqppjoKFY2xCspbZURmhJC8mzzfT8d9NgdAnMzzBRhcwfk8Bv4nAFEtbyTRhdFxPVn3+4MoeIqnMs/QUN5q8QvPfRNEgWCQ8sIB/1PnDabd73o0JLwqFkjstVPPSsabBURB/fuoPGTZ5LsxCHWF1WVFVZFhCgUjvL2hyNzxtOUmfOU7LX80CmKiA/ffoOWrX5IKSAkqF8N75xxYM82a0wICXQo/zxN7vC1dVdgAwK79Ak/sN810kDzODikiV9my7rIDhoSyFJL8sAvW35OSGGFA9eTVMX1jpe18laZraw8YOXSuBB2zSA6xy4TI/vZvxV3Nf5bbHVx50hSgUwnsBJBAk9uYaXIlQ5FyOtHWuiRiSFKASEv20XJIEoTbWvXtzgY6h0jSAWtDGPRZPtQsdBwmDrN3WGdTpl7d3zKW1omkWwRGxLCcTRYsSRbs2pJb/0O7t1OEg9Ego+K1UDhlQtqFxWtvbf3h157vfFFjjmL76CpsxaQxLrYvOE9TbRuHSUOiiSJE4EEAiAAAiAAAiAAAiAAAoFAwJA7aYoHjwDORRdlRFRUJFVWVCilQ6ApIaKjo9l6o/feDPb2+M5Xzn8lYeGRrIR4gtKzhquH/d/8/Hv+G8yDniV+RQxv03mmY9cOD7rwa5NM3p2if6SB9nZYInR3MHHxOMhbbHqa4ji2RFqM0apg6NxPWrSBEjiGheyE4ShFsrIrhS0lzvBuH/5IsfGJ1I/dMrSgot0dI4N3ZBElhrZbS+f23t4feu2djS+WGmPYkkgUbx/98+90iBUnniTZnePeR76rtsGVbWo/ef8f2EHDE5BoAwIgAAIgAAIgAAJeEMjKyqKCggIveuhbTX2uiBA8mjJCTOIlHkQgWUL0tiKgt8fvzdt3+twlaivNNS8/15tiYGwQCAoCS+5cqSw9tn7ygVMlibsTke08xUUqJXUI7dz8sbJUcrct6oEACIAACIAACIAACHhPAIoIe4Z+UUTIEPFxsZSYEE9FRUVUVlZmP2ovXvW2IqC3x+9F9BgaBEAABEAABEAABEAABEAABG5IAlBE2C9796LX2bd1eVVRWUXidx9ISgiXAqMQBEAABEAABEAABEAABEAABEAABEDA7wT8pojwu+QYAARAAARAAARAAARAAARAAARAAARAIOgIQBERdEsGgUEABEAABEAABEAABEAABEAABEAgeAlAERG8awfJQQAEQAAEQAAEQAAEQAAEQAAEQCDoCEAREXRL5p3AEiwTCQRAAARAAARAAARAAARAAARAAAR6iwAUEb1FHuOCAAiAAAiAAAiAAAiAAAiAAAiAwA1IAIqIG3DRMWUQAAEQAAEQAAEQAAEQAAEQAAEQ6C0CUET0FnmMCwIgAAIgAAIgAAIgAAIgAAIgAAI3IAEoIm7ARceUQQAEQAAEQAAEQAAEQAAEQAAEQKC3CJh7a2CMCwK2BOJCiSqbbHNw3pMEYuMTae6SL1Bqeib9/tc/6TK0XnmXBn0g4577HqWo6BjateUTOnXsoF9nFBUTS7XVVX4do7ud9+T8uytbsNV39PkB32BbRcgLAiAAAiAAAiDgSwKmlEGDf+rLDm37SkyIp+LiYtusXj8PDQ2lpqbee+K90cd3dAM8OTWE7hsXQnEhBjpU3OaoitO8SFalDYoyqPLGVqfVeqRg5JhcmrNoKTXU11FFWUmPjOmLQeITk+iBrz9FGUNHUHlpMR3Ys82uW1flif2TlQIjd9ps1ab42hW7tt256G1+nccflJZBo3JyaUzuVDWNCwWnujMdu7pTb1pIU2YtoOxxk6j/gIF04expa/mqh79Ft939ZVZ6xFL+iSMqf8Ftd9OEKbMoe+xE9RMTF09XLpy1ttFOwsIjub8Uvmyn5qZGLdsnR1/O31OB9OYXDPefs89PIPD1dF3QDgRAAARAAARAoPsEEhISqLy8vPsN+2gLWET00YUNpmnVNrdTPf80trZ3W+xpKUb6yoQQ2nCmldbktXS7vS8bDBw8hMZOnEbXrl6ic/knfNm1X/u6a9WDFBuXQJs+fIe2b1rXZSxn5ROnz6Gb71xJZnMItbQ00yhWxMjD85qXn+vShzsZvc2v8/gbP3iT8g59Tsvve4xmzltCVy9foPzjh92Zil2dr3zj+zQkcxi1trRQe3s7iVJh28brnEVx1dhQzwrS64qEoSNGU1LyINWPOSSETGYz7d22ya5fuciZMJmWLr9PWW189N7aLuXeZPhq/t7I4Gp+wXL/Ofv8BAJfb9YGbUEABEAABEAABEDAGwJQRHhDD219QuAPB/QVCGL5UKdfzSfyOOpE3sw2NtQ5KiJXZVoDvTp65Vo/vj4Oyx7HD8nD6eSxQw6VEK7Kx0ywWAqsffUFKuSH9OX3P0ZDsoaTmKFXVZTZiepqfq7KtE706nhT7qrt1UvnaeOHb9GyVQ/TlJnzPFJEpA7JpPMFp+m1F36lTcfu+Paal+2u5eKl3z5tzfu3Z1+ynnt64mqO0qezcl/M31nftnNxp45tfTkPhvvP1edH5uAu38RwA5U1dF9RK2MggQAIgAAIgAAIgEAgEoAiIhBX5QaR6QczQig9/nq81A1nWuitU9f9K56ZH6osJSJDDdQ/wkAl9e2051Ir/YPrrBxlogWZZrI4ZRDNzzDR3HSTIrfzYiu9elRfazFg4GDlVjA4PYvCIyLo2pWLdPTgXuub5y9/7TvqrXRFeSkNSkunhro6Kjh9nN55449qnKyROTR74W00OC2TGhsb1EOF7dKJ3/8KfjhPTkmjEH6rXVVZTts/XU/7dm5W1fT6t+3L0fkgfsA1Gq7z0+rIOJ0VAVpZ52Pm8FEqS3MJ6E550sBBVFJUaI2fIH3IQ7dYRWz5+J+kNz9/89Pjrze+xiKP74lFt99DCf36a1m6RzHHT8sYquoZTSblNjF24nR1XcOxIM6ezlPuMGKFoaXdHIvisw3vapcuj4tuX06TZs4lg8HyCZg0Yw7lTrtJtTmyfzete/PPpDd/vfXRBPBk/tI2fehI/nzdoT4fzc1NdOXiOUpjy5BN696mvds3uZTPnfkF+v0nDPQ+X1LHFV9RwP5yXijFhBlo3ekWetPm+1HaIoEACIAACIAACIBAsBKAIiJYV64PyH2mvI1qmtopkmNDZCcZKaTTM3U4350Do410urSNCsraaGyykeaywkEUEYW17XSsqJUiuO1obnuxqo0qWFEh6Xyle3Emps9dQqPG5tKl8wX8kFTND04jaMGty+jSuTNKqRASGsZv9xNYyVBPRw/sVQ+W4yZNZz/+o3y9m6bMmKesCc7ln6S62hrKGjnablXu4rfoqelDqeBUHlVXVdLw7LG0aOlyOnH0gApMqNe/XWcOLu579F8oLCy8S8nurRtpw7t/7ZLvKKMfx3hoa2tTMnW33Gg0srtBs7VZY0ODOhdXDUl68/M3Pz3+euOrSXT8qqmq6IjFYJvr/Dx36iyaveh2a4Vho8aQ/Ei6dP6MUkTIfSf3TXhEJGUOG6XcL6wNdE5KS66p+yosPIKyhmezO9BlqmYFlCSxTpGkN3+99VGddPzq7vyl2WS2IEnPGkHnzvDno6aGhrLiTu5Xk8ny344r+dyZX6Dff8JA7/MldSQ54xvLStgo/jHzd2M8W0UggQAIgAAIgAAIgEBfIQBFRF9ZySCcx9oTFuuHxWzJIIoIR6mqsZ2e3mF52P3qeDPNHmKihUOMtPFCG22+2Ebz04xKEZFf1t7tGBEZ/Ma2sryMXvndf6qhl664nyZy0MXh7K4gJtOSxKd//Ttr1YOjmFmveugJyhk/WSkiUlLTOShlKb3+4n+puivuf5yDEU5U5/JLLC7KS4usMRNuvmsVTbtpAY2bNIN2frZB1XPVv7UjJyfbN63nh33ebqRTEsWIu8nEb+vb2lqd7tigV643jqv5+ZufHn+98W3n1sLxHQyseHE3ibJKC4q78LZlyjVD8iRp1ioSI0DSFL4nRBHRnXRg91aSH4mTIIoIUZ51jhGhN38Zz9X62MrT3flL20GpGcoK6PU/ePb50JufrXzOzl3NT2/9fcHP3c+PM76Fde30/OfNNJAD8q4/e91azNl8kQ8CIAACIAACIAACwUIAiohgWakbVM4KG7/oazUWiwcxU/ZFioiKsiocpL/LvCuBKCIiIqOs3ctbfjGjlySBCiWWgrYjRhi7c2gKCymXHSOy6boiIjQsjN/+mujxp34mxWQ0WlxHJDCkllz1r9Vxdty28QNnRQGT72p+/uanx19vfG8gXjyXT/IjSRQRtTVVDmNweDOGXlu9+Ut7V+uj179eubg7lRYXWqt58vmwNvbwxNX89Na/t/lpUz5Y5J6Fl1YfRxAAARAAARAAARAIBgJQRATDKkHGHiHQ3qYfDO5vrz7vVBZHrWU3hLKS61vYSkwFW+VF585c9d+57sPf/iHJdrCd0+F9u/ih98PO2Q6v5U2smMrL29+iwstd6uiVd2mgk+Fqfv7g1x3+jsbXpiMuBW2twfdGujvzl7k6Wx9P5i8uP2bz9ftT3Eg6p+7K17l9d6+dzU/6cbT+3ZWvc//ufn484dvduaM+CIAACIAACIAACAQSASgiAmk1IIvHBDyxkZDtFGNi461jDhycps4lOKU7qbmxkaJj4qxVE/slWc/lpKWpiSRI39pXfqfy+w9IIQmMKbEBfJFauG9jR7BC2/7k4cfdJG4CEvBwGMevcKSIcFXeUF9PUdHX598/aaAatqK8xK3h/c1Pj7/e+LaTiOb7ROI59FYydVjTOB3fwQdAb/5O+3JQ4Gr+4yfPpH689hKI1XZnmTKOYyHBOCUoaMm1qxy4Mduu527J52B+gX7/yWRdfX5sYbjie0umiRLDiU6Xt9PeQlhH2HLDOQiAAAiAAAiAQPASgCIieNcu6CVflW3iAJUGiuU/siWlxxnp/hwD1be0099Puvf2+XhpOzVy1XEcyNJk5NuZX2vuvdpKxzlmhF4qKymiwbzLw8oHn6Ca6koaOXo8B42rpN1bPtZrqsoLeZeNrBGj6e57H+FgfNXWYIRa49KO/iUon5ilj8mdSon9BtBfX3merSSuadU8Pr72wq89bqs1PM1xCyTOQM6EKbSDHyQ7J1flF86e5ngX0xW/ag7mOHLMBBUTYP+uLZ27cXjtb356/PXG14Sed8tdrHCKpRMcZNKXafEdX2SLAbPaPUL6TRmcTrcuW612YNm07i3rUOIKlMo7cCxd8YAKDlpXV0ubO3bXkHggzazwGj5qrCUIJMc0yTu8j85zgEi9+VsH0DlxNX/ZmePWu1ezZU4YiavDh2/9xdpb/oljvNtMJq1++FvKmqTFJrCpVHJHPlfzC/T7T+bo6vMj5ZJc8ZXyW4aaKJ53DSo8dD0wrOQjgQAIgAAIgAAIgEAwE4AiIphXL8hln5thpgibOzBngJFyBhDV8k4amiKCn6usyZHnhARzky09J6QYaSG/OZRUxe2Pl+krMj5d/y7vbHAbSdBKCfoo/uyyO4aWJNCd/HOWDu7dThLvQYJXinVF4ZULapcMrf6Hb79By1Y/pBQQEuFflBwH9myzxpzQ61/rx59HiXtxLv+E2tHgSw99k7dWfMvOMsJV+d4dn/KWlklqi8KQkFBWrhSRbB2pJb35+ZufHn+98WUecxbfQVNnLVCxFDZveE+bWvePDm4jiUcSFt6hheMes0Zkq596VjTYKiIO7t1BYnUgO3GI9UpVZYVVESEKLdlydmTOeJrCu1RIqmWlmCgi9Oavtz7Sl978a3krUlGEyPo31NdJE2va+sn7JMqCyTPmUX1dDYmlzvQ5i6zlevJJRVfzC/T7T+R39fmRcj2+2YkGtVtGMe8StIkD9CKBAAiAAAiAAAiAQF8hYMidNMXBn8i+md6wrAzKy7ME+vNNj973Eh0dTTW8lVxvpRt9/N7i7mrcsPBI6jcgma5wsEpPUgbveCAP4dpuCJ37kPgLMbwN6JmOXRM6l/f2tcz/S7wbSHrWcKUs+c3Pv2cnkl55bHyiMs3XgnraNXbjwt/89Pg7G18sXcawpYgoBj7659/pECuegjHpzd/ZnNydv7vrv2z1V2nsxGn05l9eomMH9liH9VQ+rQN3x9fqdz46W3+tnrfyOfv8uMP33hwzLc4y0caCVvrTMfddrjTZcQQBEAABEAABEAgcAllZWVRQ4BsX7cCZleeSQBHhOTuPWkIR4RE2NOoBAtPnLlFbQa55+TmHo+mVO2wUxJlL7lyp3vRv/eQDp0qmIJ6erui+mP9jT/6UIqKiVSyTyOgYpbB7/pkf6Y7dFyt0/vy4w/eHM0MoLdZIP/isicpsdhDqi3wwJxAAARAAARDo6wSgiLBfYSgi7Hn4/QqKCL8jxgAgAAIBQmDFA49TeEQkiRtI4eWLtGfbxhtSqePpcixON1Ebs9sItwxPEaIdCIAACIAACAQMASgi7JfCxkPfvgBXIAACIAACIOANgb+/9ntvmt/wbT8+rx/r5oaHBAAgAAIgAAIgAAJBScAYlFJDaBAAARAAARAAARAAARAAARAAARAAgaAkAEVEUC4bhAYBEAABEAABEAABEAABEAABEACB4CQARURwrhukBgEQAAEQAAEQAAEQAAEQAAEQAIGgJABFRFAuG4QGARAAARAAARAAARAAARAAARAAgeAkAEVEcK4bpAYBEAABEAABEAABEAABEAABEACBoCQARURQLhuEBgEQAAEQAAEQAAEQAAEQAAEQAIHgJABFRHCuG6QGARAAARAAARAAARAAARAAARAAgaAkAEVEUC4bhAYBEAABEAABEAABEAABEAABEACB4CQARURwrhukBgEQAAErgaiYWOt5IJ7ExifSHV/8Cj3+1M8CUbxelynQ16/XAflBgHvue5Tuf/x7NCJngh96R5cgAAIgAAIgAAJ6BMx6FVAOAoFMIJLv4KQIA1U0tlNlUyBL2juyJfZPpqk3LaCYuHg6dnAv5R363GNBRo7JpdHjJtGBPdvoXP4Jj/vxtKGj8eMTk9T84hP7q7kdPbC7W92HhUeStK2prqDa6qputfV35SV3rqSoqJguw1w4m0/7dn5mzV/18Ldo6MgczttMH769RuUvuO1uiuOHfy1dulBAe7dt0i6tx56Yv6zR/Y8/qeS5zHL4MvWE/J7K21fWz9P5+7qdo8+/N2NUlJXQ8FFjacX9j9GWj9+nrZ+87013aAsCIAACIAACINBNAlBEdBMYqgcWgWkpRvrKhBDacKaV1uS1BJZwvSzNxOlz6GZ+mDWbQ6ilpZlGsSJhwpRZtObl5zySbODgITR24jS6dvVSrygiOo+fO2023XLnl8gcwvNrbqaROeNp+pzF9PJzT7s9v5wJk2np8vto15ZP6KP31rrdricqynrFxiVQW2ur3XAGo9FOEdFQX0eNDfXU1NRorTd0xGhKSh6kroWPyWx2qIjoifnftepBNY9NH75D2zets8roi5OekN9TOfvK+nk6f1+36/z597b/jR+8qZSXy+97jGbOW0JXL1+g/OOHve0W7UEABEAABEAABNwkAEWEm6BQzb8ExLKhzoUeQa/cW+n0+tcr1xtfr71euV7/jsrHTJiqste++gIV8h/Zy/nN35Cs4SRm8lUVZXZN5M1yY0OdXZ524arM3Tp6fbgqd1YmShGDwUB/e+33rBg5SV984HHKHD6KprEyYveWjzXR1NFZH3aVXFz0Vvviwiv04m9cuzO8veblLpK/9Nvryph/e/alLuXdzdCbv7PyYdnjaEjmcDp57JBTJYSztrYyulPHtn7n895qH+zr15mjv65drY+rMk0evTrOyq9eOk8bP3yLlq16mKbMnOdUEZEYbqCyhnZtOBxBAARAAARAAAR8QACKCB9ARBeeEXhqWggNijFQaV07ZcQbqa65nY4Vt9GLBy0aibhQoicmh1BanJFCOZqJ/CG47nQLbbrQRitHmWhBppkMHUPPzzDR3HSTutp5sZVePdpCv14QSmX17fQfO5tV/i2ZJlo2ykz/PNVC77MFhd74z8wPpXqWKTLUQP3Z/aOE+9pzqZX+ccr+DbWz2eu1dzW/f5kSQokRRD/a0kzfnx5C6fEG+r+bmmgxz3M+z+MbG/T9UJIGDqKSokI6deygEjH/xBFKHZKprCK2fPxP+vLXvqPemleUl9KgtHRqqKujgtPH6Z03/qjqZ7G5/+yFt9HgtExqbGwg+aPdNolfu5g1J6ekUQi/da+qLKftn65XLgJST69/vfZ64w8YOJiKi67SyaMHlFj7dm9Rb/41C4LkQUPo1mWraOCgNDKZTFRSXMjuKZ/Tto0f0KLbl9OkmXOVIkMaT5oxh3Kn3aT6ObJ/N61788/kSj5xhxBrBVES3PfokzQwdQi98Ksf09RZC7ivufTsT75Lrsafs/gOmsFvYQ/u2U4b3v2rGld+fftHz7CbSBX98bl/t+Y5O3ng60+RvCXW0m626vhsw7vapcujt/OXzvXWV+qIYkiS3HudU/rQkTR3yR3q/mpubqIrF89RWuYw2rTubdq7fZNLft7Kj/Vzb/06r1l3ruXzOXfJF2hwehaFR0TQtSsX6Si7h2kuQnr3j97n39XnU+TU61+bSx7LtOj2eyihX38ty3oUBfEv54VSTJhB/d/zppvf/dYOcAICIAACIAACIOCUAIJVOkWDAn8TCGO9QSI/4MuD/q7LrdTA+ocZaSaaMchyWz6SG0LDEo2UX9pGO1i5IMqIlTkhJA/whbWstChq/Tmy6QAAOCJJREFUpTPlbUrMi1Vt6lryzlda8sL5j8hQi25C1Qnh9pJn7rjr9caXupkJRqpiBcgeli8qhGguKwLcTXrtXc2voaWdEiMtapYkPkaFGGjcACMlRxuoxTI9XTGMbMLfyi4ZWmpsaFCn4qohKSQ0jK0jEigiMpKOHtirlA3jJk2nMbnTVPmUGfPU2+yL584oiwN5oLBNd/FbxNT0oXTxXD4d2reLXSRCadHS5eoBXurp9a/XXm98sYawnZ88ULz6/DPqIVbGX3LHCkrLsMgnD0DRMXGsKJgvRVRaco0KTuXRpfMF6vra1cvqWvLEekSSK/mEZWyCJQaDxJiIiIikYexvLjE5WlstijRX4+/btZmovZ3b5Kix5NdNrPSRuA5XL56z5rk6EdlFXnmADwsLV0oYV/Vty7ydv/Slt75Spx/zaGtroxMdyiLJ09JkfgOdnjWCJH7F2dMn1L2k5mHiDx4nV/y8lR/r5976aWvlyXH63CU0amwuVbKis+DUcerPrkILbl1GKanpqju9+0fv8+/q8ykD6PVvO6eaqgr1/WCbJ+ex/H9TFP/I/xnxbBWBBAIgAAIgAAIg4DsClr/4fNcfegKBbhFoY2vXNUda6CgrGyYkGenbbCUxlRURO6+0UWqsgYpY4fDsHsvD9L05ZlqcZaJZqSZaV9BKmy+20fw0I43mdvll7R7FiHA1vkykioNgPr3DMv5Xx5tp9hATLRxipI1sleFOctXe1fyu8bynmA00gBU10fw2Tiw70mKNlMB/DFf60ES4nR+G17+zlh8E80jM6Fc99ATljJ/Miond6oGhoqyUXn/xv9RUV9z/OGWPm2idtrzxLC8tssacuPmuVTSNA2OOmzSDdn62QdVz1b9ee3lgcTW+JkjGsFGUO9VizSB5+SeO0pH9u1jJcIYu8s9n699RVW9dtpqmsCJiCssob2UP7N5KEkcja3g2XWJlS+cYEa7kK+N554RP5kCXSRQZFa2sQZJTUlVQ0JqqKjWe3vii4JEgk6MnTCFRoowYPY7EMkDiVWipf3IK/esv7GN6iKvN+TMnSXzcJcl8MplBd5LM3Zv5u7O+Io9YorS1tToMBDooNUNxe/0Pju8vPX7eyI/10/98dud+clQ3gy1eKsvL6JXf/acqXrrifprIcV2G8/eMZl3l6vtB7/Pv6vPp7v2pyd3S0kISe6VzKmRrvec/b6aBUQZaf9Y9S7jOfeAaBEAABEAABEDAMQEoIhxzQW4PEZA3/6KEkHSQ3TIOFrZScUeognB+EDcb25VprJTzpUrir+ur5Gp8GaPC5qH/Wo3FR1jMdN1Nrtq7mt9RZmHkYSYNNJKJj8WsmEiKJGUifLVDDndlcFVP3gyLEkKSBGoTX36JJi8pjM2ptQcGuS6+doWy6boiIjQsTD1oalsyGo0WaxFxWdCSq/712uuNr42R0C+JssdOVG4WEpSxualJKSLOsLXA+Mkz6Wvf/TGZWLaQUDal4RQREaU1dXl0JZ/0LRYZ8sbXaDKyQqZY7b4RFR2j3GGkY73xZfcRUURMYBkLL11gV4Q05n2BythaQ0sSiFKz2tDy6mtrtFO/Hl3NXxvY1fpqdZwdxVy/lN1ltNT5/tLjp7VzdnQlP9bPQs2b9XPGXcuPiIqy+/64fOGsUkRERF7//LkaX+/z72p9NRlc9a/V0TseLHJP6azXD8pBAARAAARAAATsCUARYc8DV71M4LnPLWbtmhh1bIxQZPPgfaW6nc52uF5odXx57Dy+L/t21Jez+YlSpolfwIm1R3VTu4qPkcxv5aL5WVqUEv5Kf3v1eaddOxpVdmsoKym2tpGYFLbKC2tBx0nn/rvT3tH40q32dl+291v5la9bh7xz5YMUGR1NVy6cUztKyAOQKC26k5zJJ0obsV4QS4Q6VgxUVZRTYlKyso4oL7Pw0Bv/+OF9rLS4qlwSps1eyHE2Qru4MNTVVtPaV37XHZF9WtfZ/J0N0nl95U2ziV0t5O11UeFlu2bismE2W5RDUhAWzkFRbJIeP5uqTk+dyY/1c4ys8/o5ruVZbruYn+kkV+M7au1sfZ0N46x/cQnSYss4a4t8EAABEAABEAAB3xKAIsK3PNGbDwk0tbarh/HfsmmspEH8ID40wcBxIbr+SerIRkEe8uNsrBckvoK0lOCYgZD05icKCHHfEKsKcVEZ0c9IkRwr4pybipiG+nqKio6zTrV/0kB1XlFusXiwFjg5aW5stPObTuz0EN/ClgfyMK49KPcfkKIC03V+g++ke9Jrrzs+P+RK3ActSVBNSdXVlcoSQoLPSeyLt/7yvypfXEeGcDBEh8nBDaQnnyggxB1DxhOLCNmRJJxjRYh1g1hiuDP+6bwjNHP+zbwt6nSqqaqkXZs/ciiet5liEeIyeTB/l/11FMruLGI5Mix7bBdFhFh+SLBNCUpYcu0qB7bMtnbpLj9rAw/kx/pZ6bk8uZ3d4eLCiPJK2pXVmsvKNoWt/PmMiY235gwcnKbOJTiuO0n38+/l94+tDNEsp9wPjpIEOU4MJzrN/+/sLYR1hCNGyAMBEAABEAABTwhAEeEJNbTpEQLiCiHBIh+dYKbLbAkxnWNDDGBlxH/vbibx3ZV0vLSdGtlyYFwyuzAY+Xbm7L1XW+k4x4w4yS4fczimw7cmm6minmg81ynhdlsvB8Yfk3rzk1gQWTz/sxyQs4D/CL5zpCVQ5YFr7sl/4expjtcwnVY++ARVczC2kWMmKJ/8/bu2uLV+hRzlPmvEaLr73keorqaaAyuOsWtXWlJEg3kXDgkaJ2b1Y3KnUmK/AfTXV563cy+wa2Rzoddeb3yJT5GWMUzNT9xJxE2ivq6WNvPOEbJFqbwtld1AJs+cr2I3jGX5OifZ9lNcOYZzoEl5cy8BJPPYUkFiMOjJJ7tbDE7LoMsXz3LAxbM0Z/FSDlTZqtxbwsLD3Rp/68Z1arcOsdY4zjuWdCctvuOLbFFgtgYHTRmczruErFZBRzete8valbBJ5aCdS1c8oIJ71nUwkgrezN86gIuT0xyvQ+Jw5HAcjB28o4ptyj9xjNcnk1bzDiTyNrrFJrDq2fwTbvHzRn6sn+1qOD+/fbiJIlgBerrcohB2XtO+pKzj+0G+f2pYWTdy9HilbOu8ta59q+tXep9/vc/n9Z5cn8275S5WaMbSCY4n4yjdMtRE8Ryrp/BQ9+bvqC/kgQAIgAAIgAAIXCcARcR1FjjrYQLyOO3KNuF1DmL5yMQQpYCQeAnyYL71fKs1poSIKwoJ2VJzQoqRFvKbK0lVbElwvKyVNnJwsYFsBZGTZFK7Z8iD/zbefUNLeuNLPX4utSY3LIutdbUTV+315qfFlyjmOWquGrLFaZ2994o2VJfj3h2fKlcE2UJRzP7lwUC2ptSSBIqTf87Swb3b1RaVErxS3m4WXrmg3Ai0+h++/QYtW/2QUkDIDh3yRl/iHmgxJ/T612uvN/6n69+leTffSRnDRlJo6DhllbB//x4lnryJl606RTlx292rlWuGxF9IZ6sF2yRv5WVHjZE542kK7+IgqZaVLqKI0JOvurKCiF/ylpeWqPgaLc3NVF9fyw/QderHnfGlrsRJkAfy/Xu2qvGtv5wvjaoigf9E4aGlrBHZrDjKVsoYW0XEwb07lIVG7tRZyjqhiuUWZY0kb+avt77Sv7hAnGOlgsTC+NJD3+StOd+yWkZs/eR9EmXZ5BnzWOYaVkS00PQ5i6QZu7pg/RQI/tWb6yc7GMmuEZequm8NIJ/P2YtuIwlaKfFZ5D4XCyUt6d0/ep9/vc+nXv8ih2yjK1vuSiyJzRve00SzHrMTDWq3DHGHk22jkUAABEAABEAABHxHwJA7aYrOn7ueDzYsK4Py8iyB8Dzvxbcto9lnvKbGsQmmb0dy3NuNPr5jKq5z01iZkMBvpA5z3ARPkgS3HMjx0fLYeiIQk7fz05uTWAf0Y7cMTUGgV79zuexKIUoMeTh0lMT/P4a3AT3Db789SXrt9caP4reZSbw1oDzwOkrDeTeK03mHHRW5lacnn14nrsYPC4+kb//wP9lipZx+/+uf6HXVK+Xezl/m+CXejUWUQKKs+s3Pv+dwHstWf5VdVKbRm395iY4dsCiUpKIrfg476pTprfyuxu/r6/cI7xQ0i63K3jvZQm+euq7E7YTY5aUw6jcgmWO1nHVZz1mh3uff0/UVS68xbKkjVlQf/fPvdIgVr52TtlPTRt6l6U/H3NQAd+4E1yAAAiAAAiDQQSArK4sKCgrAo4MALCJwKwQ8gYtsySA/nqYytqQoa/C0tf/beTs/PQlFgeBMiaDXVsqdPeBrbSUIYedAhFqZO0e99nrj17KLhPw4S94oIaRPPfmcjavluxp/1oJbOK5EBB36fIdWPeCO3s5frD5ee+FXNH3uErVVqu0EH3vypxTB258aOY5EJO84Ulp8zU4JIXVd8bPty9m5t/K7Gr+vr5/EqJEtiD1VQsiayPp7qoSQ9nqff0/XV9xF9rGb2tZPPnD6/ZgeZ6B69sh4/4xnShiRHwkEQAAEQAAEQMAxASgiHHNBLgiAAAj4nYC4tBScOk47/RSk0u8T6MYAEoizczDOUnaNCeedQcSMvvDyRdqzbWM3euz9qn19/XZcaqN63mK5L6aP3l2rO609HE9oF7v+iTIbCQRAAARAAARAwLcE4JrhW566vcE1QxcRKoAACIAACIAACIAACIAACIBAnyIA1wz75TTaX+IKBEAABEAABEAABEAABEAABEAABEAABPxHAIoI/7FFzyAAAiAAAiAAAiAAAiAAAiAAAiAAAp0IQBHRCQguQQAEQAAEQAAEQAAEQAAEQAAEQAAE/EcAigj/sQ3Inntz69KABAKhQAAEQAAEQAAEQAAEQAAEQAAEepQAFBE9ihuDgQAIgAAIgAAIgAAIgAAIgAAIgMCNTQCKiBt7/TF7EAABEAABEAABEAABEAABEAABEOhRAlBE9ChuDAYCIAACIAACIAACIAACIAACIAACNzYBKCJu7PXH7EEABEAABEAABEAABEAABEAABECgRwmY/TVaQnw8tbW1Uf/+/amkpMRfw6BfLwg89K0fUIg5hC5fOEtbPnmfqirKvOgNTUEABEAABEAABEAABEAABEAABEBAn4DPLSJMJhMlJsRTWKiZysrKKDIykgYMGECSjxRYBMqKr5E5xEwTp8+mm+9cGVjCQRoQAAEQAAEQAAEQAAEQAAEQAIE+ScCnFhFhoaEUFxtD7e1tVFRURA0NDRQeHk79+vWjgQMHUmlpqcrrkySDcFLvvPFHJfX3n/4fik/oF4QzgMggAAIgAAIgAAIgAAIgAAIgAALBRsBnFhFRbPmQkBBHTU2NVFhYaFU4iDJCrpubm5VlRExMTLAxugHkbVfrcwNMFFMEARAAARAAARAAARAAARAAARDoZQI+UUSYzWaKCA+l6qoqZQnR2tpqNy25FguJ6upqEkVESEiIXTkuepdASGgYNTbU964QGB0EQAAEQAAEQAAEQAAEQAAEQOCGIOATRURLSwvFc3DK8vJyl9CkXOqJdQRS4BBoamykiMiowBEIkoAACIAACIAACIAACIAACIAACPRZAj6NEdFnKfXxiR0/sp9yp86if/3FfyvXmvwTR+j9v/+pj88a0wMBEAABEAABEAABEAABEAABEOgNAn5RRIwePbrLXPLy8rrkISMwCAxKTacWtlIpK7lGDfX1vI2na8uWwJAaUoAACIAACIAACIAACIAACIAACAQjAb8oIqB0CK5bod+AZLpwNp/+/OJvgktwSAsCIAACIAACIAACIAACIAACIBB0BHwSIyLoZg2B7QgYyEDtbW12ebgAARAAARAAARAAARAAARAAARAAAX8QgCLCH1SDrM+m5iYKC48IMqkhLgiAAAiAAAiAAAiAAAiAAAiAQDASgCIiGFfNhzIn9k+mEHMImUx+8dLxoaToCgRAAARAAARAAARAAARAAARAoC8Q8OnTp6MglX0BUl+dw1e+8X1KSR1C5pAQOnPyWF+dJuYFAiAAAiAAAiAAAiAAAiAAAiAQQAR8pojILzjXZVrDsjIIgSu7YAmYjKrKcrVDxvEj++j44X0BIxcEAQEQAAEQAAEQAAEQAAEQAAEQ6LsEfKaI6LuI+u7M3vrz//bdyWFmIAACIAACIAACIAACIAACIAACAUkAMSICclkgFAiAAAiAAAiAAAiAAAiAAAiAAAj0TQJQRPTNdcWsQAAEQAAEQAAEQAAEQAAEQAAEQCAgCUAREZDLAqFAAARAAARAAARAAARAAARAAARAoG8SgCKib64rZgUCIAACIAACIAACIAACIAACIAACAUkAioiAXBYIBQIgAAIgAAIgAAIgAAIgAAIgAAJ9kwAUEX1zXTErEAABEAABEAABEAABEAABEAABEAhIAlBEBOSyQCgQAAEQAAEQAAEQAAEQAAEQAAEQ6JsEoIjom+uKWYEACIAACIAACIAACIAACIAACIBAQBKAIiIglwVCgQAIgAAIgAAIgAAIgAAIgAAIgEDfJABFRN9cV8wKBOwIRMXE2l3jAgRAAARAAARAAARAAARAAAR6i4C5twbGuH2DQCTfQUkRBqpobKfKpr4xJ9tZhIVHUnxif6qprqDa6irbol4/X3LnSoqKiukix4Wz+bRv52fW/FUPf4uGjszhvM304dtrVP6C2+6muPhEa51LFwpo77ZN1mvtJJDnr8mIIwiAAAiAAAiAAAiAAAiAQHARgCIiuNYr4KSdlmKkr0wIoQ1nWmlNXkvAyeetQDkTJtPS5ffRri2f0EfvrfW2O5+2HzUml2LjEqittdWuX4PRaKeIaKivo8aGempqarTWGzpiNCUlD1LX5pAQMpnNDhURgTx/62RwAgIgAAIgAAIgAAIgAAIgEFQEoIgIquXyn7Bi2VDnQo+gV+6tZHr965W7Gl/e6jc21LmqQu7UcdVBb7UvLrxCL/7mZ65Eo7fXvNyl/KXfPm3N+7dnX7Kee3qiN3+98sRwA5U1tHs6PNqBAAiAAAiAAAiAAAiAAAgEEQEoIoJosXwt6lPTQmhQjIFK69opI95Idc3tdKy4jV48aNFIxIUSPTE5hNLijBTK0UTkQXHd6RbadKGNVo4y0YJMMxk6hJqfYaK56SZ1tfNiK716tIV+vSCUyurb6T92Nqv8WzJNtGyUmf55qoXeZwsKvfGfmR9K9SxTZKiB+rP7Rwn3tedSK/3jlL0FgDMu6UNH0twld9DgtExqbm6iKxfPUVrmMNq07m3au30TJQ8aQrcuW0UDB6WRyWSikuJCOnbwc9q28QNadPtymjRzLhkMlhlOmjGHcqfdpIY6sn83rXvzzyRxF1bc/xglp6RRCFsVVFWW0/ZP1ysXCHGHEGsFURLc9+iTNDB1CL3wqx/T1FkLaNKMufTsT77rcvw5i++gGfOW0ME922nDu3+1TvHbP3qG3USq6I/P/bs1z9nJA19/igYOHmIt3s1WHZ9teNd67erE2/lL31/+2neU1UVFeSkNSkunhro6Kjh9nN5544/WoUXB9Mt5oRQTZlD31pturq21A5yAAAiAAAiAAAiAAAiAAAgEHQEEqwy6JfOdwGGsN0jkB3x50N91uZUaWP8wI81EMwZZbotHckNoWKKR8kvbaAcrF0QZsTInhERBUVjLSouiVjpT3qYEuljVpq4l73ylJS+cHzJDLboJVSeE20ueueOu0xtf6mYmGKmKFSB7WL6oEKK5rPBwN02eOY/Ss0aQxD84e/oEpaYPpbCwcFY6cMecltyxgtIyhtLFc/l09OBeio6JY0XBfFVWWnKNCk7l0aXzBer62tXL6lryCi9fUHl3rXpY9SntD+3bReaQUFq0dLlSUDQ2NFBsgiUGg8SYiIiIpGGjxlJi/2RqbbUoelyNv2/XZqL2dm6To8aSXzctvE3Fdbh68Zw1z9WJyC7yigJGzZvdL9xN3s5fxgkJDaPY+ASKiIykowf2UmNjA42bNJ3G5E6zihHL914U/8g9Ec9WEUggAAIgAAIgAAIgAAIgAAJ9n4D7TyZ9n8UNOcM2toZfc6SFjrKyYUKSkb7NVhJTWRGx80obpcYaqIgVDs/usVg03JtjpsVZJpqVaqJ1Ba20+WIbzU8z0mhul1/W7lGMCFfjy4JUcRDMp3dYxv/qeDPNHmKihUOMtJGtMvTSoNQMZaXw+h/+S1Vdcf/jlD1uorXZpfNn6CL/fLb+HZV367LVNIUVEVNuWqDiJRzYvZUmTp9DWcOz6dK5M11iRAwYOJjKS4tozcvPqfY337WKpnHbcZNmUBnn54RP5kCXSRQZFa3kSE5JpZi4eKqpsgS91Bv/Io8pQSZHT5hCeawoGTF6nLLskHgVWuqfnEL/+gvL+Fre2ldfoPNnTtLGD95UWTKfzGGjtGK3jjJ3b+a/87MNapx2Vqasf2ctK4LyaFj2OFr10BOUM34yKyZ2q/JCtsZ5/vNmGhhloPVn3bN0cWsCqAQCIAACIAACIAACIAACIBCwBKCICNil6RnBGlralRJCRjvIbhkHC1upuCOcQrhZ3lS3K9N5KedLlcSf31fJ1fgyRoVN3IBrNZYYAmLG704Kj4igUna30FLxtSuUTdcVEWfYWmD85Jn0te/+mExGE7/BZ1MPThERUVoTl8fQsDDl0vH4Uz9T9YzchyRxyZC+xa1j1NhcMpqMrLAoVrtvREXHUEmRRSa98Q/s2aYUERNYxsJLF9iVI42u8rGMrTW0JIEoNasNLa++tkY79evR1fy1gcUyRJQQkvKPH6aTxw5RRVmJVqyOB4v0lUp2DXABAiAAAiAAAiAAAiAAAiAQ1ASgiAjq5fO98M99bnEb0HquY2OEog4FgORdqW6nsx2uF1odXx47j+9N321tbWQ2W5QL0k9YeIRdd3eufJAio6PpyoVzakeJiMgoSuiXZFdH70J2oygrKbZWEyXD1Uvn1UO3xKUQS4Q6VgxUVZRTYlKyso4oL7PU1xv/+OF9rLS4qtw/ps1eyHEoQunE0QPWseSkrraa1r7yO7u8nrxwNn9nMvzt1eedFSEfBEAABEAABEAABEAABEDgBiEARcQNstCeTLOptZ2a2Fr+t2w6L2kQm88PTTBwXIiuuxs4slEQJUacjfVCcrSBpKUEx+yJJJYDEqwxi90bSq5dpUx2sdCSWEIk9OuvYhe89Zf/VdniWjGEg1k6TA4m2NLUpFwlNEVA/wEpNDg9y2qhIAoIcceorq5UFhFDsoZTOMeKEOsGd8c/nXeEZs6/mcZOnM4uHZW0a/NHDsXzNlMsQlwmD+bvsj+bQglimhhOdJrvq72FsI6wQYNTEAABEAABEAABEAABEOiTBKCI6JPL6ptJiSuEBIt8dIKZLrMlxHSODTGAlRH/vbuZxLdf0vHSdmpkZcW4ZCO7N/DtxNl7r7bScY4ZcZLjTszhmA7fmmyminqi8VynhNttvdwzD5v5J47xbg2ZtJp3sGhrbaWWFotCReQ+m3+Ct/SsV7s5TJ45X8VuGJs7VYrs0rn8k9TMCofhHGhSBbnkmAd5bKkgMRhKS4po8JBMkqCV4vYxhtsn9htAf33leeU+IbtbDE7LoMsXz3LAzLM0Z/FSDlTZqtwTwsLD3Rp/68Z1arcOsdY4zjtOdCctvuOLbBFiVsEzpV3K4HTeJWS1Chq5ad1b1q7EVSKVg3YuXfEAtTKjurpa2tyxu4Y387cOoHNyy1ATxXPQ1MJD19dHpwmKQQAEQAAEQAAEQAAEQAAEgpgAFBFBvHjeii7qAFe2Ca9zEMtHJoYoBYSR34hXcryGredbrTElZHxRSMiWmhNSjLSQ32xLqmpqZ0VEK23k4IMD2QoiJ8mkds8QxcY23n1DS3rjSz1+7rcmCWzZnbT1k/fpwtnTNHnGPKqvq2FFRAtNn7NIdVFVUaa26pQYDrfdvVq5Zkj8hXS2WrBNYlUhO2qMzBlPU3gXDkm1NdVKEfHh22/QstUPKQWE0WhUFgsS10GLiVBdWUGURmwNUaJcNVqam6m+vpYVEHXqR7YK1Rtf6kqcC1Go7N+zVY1v/aXDY+K02eyOwqYGHSlrRDbJTz0rGmwVEQf37lAWGrlTZ6m4FlUst6aI8Gb+EqhS/rlK2YkGtVtGMQdFlW1hkUAABEAABEAABEAABEAABPo+AUPupCmunxS8YDAsK4Py8iyB6rzoxqdNozkmQE1NzwTzcyR4b4/vSCa9vDRWJiTwG+vDHMzSkyTBLQdy/Mc8tp7ozbRs9VfZxWEavfmXl+jYgT1WUYbzbhSn8w5br7t7IrtnxPA2lWdOHO1uU1Xf1fhh4ZH07R/+J1VXldPvf/0Tj/r3dyNv5q/txLKRd2H50zH7+CT+lhv9gwAIgAAIgAAIgAAIgEBPEcjKyqKCgoKeGi7gx4FFRMAvUe8LeJEtGeTH01TGlhRlDZ629q7dY0/+lCJ4+0wj72ARyTtWlBZfs1NCSO/eKCGkfVHhZfUj554kV+PPWnALx5WIoEOf7/Ck6x5p48380+MMVM8eGe+fuW4p0yNCYxAQAAEQAAEQAAEQAAEQAIFeIwBFRK+hx8A9QaCUXSvCeWcJcRMovHyR9mzb2BPD+mwMcfkoOHWcdvopSKXPBPWwoz0cL2QXu/aIsgoJBEAABEAABEAABEAABEDgxiAARcSNsc437Cz//trvg3run7z/j6CWX0/4jznmCBIIgAAIgAAIgAAIgAAIgMCNRcB4Y00XswUBEAABEAABEAABEAABEAABEAABEOhNAlBE9CZ9jA0CIAACIAACIAACIAACIAACIAACNxgBKCJusAXHdEEABEAABEAABEAABEAABEAABECgNwlAEdHD9Htz69AeniqGAwEQAAEQAAEQAAEQAAEQAAEQAIEuBKCI6IIEGSAAAiAAAiAAAiAAAiAAAiAAAiAAAv4iAEWEv8iiXxAAARAAARAAARAAARAAARAAARAAgS4EoIjoggQZIAACIAACIAACIAACIAACIAACIAAC/iIARYS/yKJfEAABEAABEAABEAABEAABEAABEACBLgRMKYMG/7RLrg8yEuLjKTwsVPVUV1fngx5900VoaCg1NTX5pjMve3noWz+gqbMWUMrgdCq8cpEaG+rterznvkdpyqz5VF9fR6XFhXZluLAnEBufSEu+sJIW3raMPt/xmX0hrvoEgaiYWGpuavTLXBzdP3qfP71yvwiKTkEABEAABEAABEAABIKSQEJCApWXlwel7P4Q2ueKCJPJRAnxcRQWaqbq6mqKiIigsLAwamhooPb2dn/MoVt9BpIiIj1rBMUnJtLQkTkUl9CP8g59bjeXQWkZNConl8bkTlX5FwpO2ZX782LBbXfThCmzKHvsRPUTExdPVy6ctQ6pV26t6OVJWHgk9R+Qwr20O30IjU9Moge+/hRlDB1B5aXFdGDPNuuoUjZn8R00acY8MhiMVFR42Vrm6kRvfnrlrvruTpk78+9Of4FWd0TOBF6fpdTS0kJlJdecirfywSfo9nvupejYeDp9/LDTep4UOLt/9D5/euWeyII2IAACIAACIAACIAACfZMAFBH26+pTRUQYWxuIEsJgICopKaHKykpqbGyk6Oho9dPc3KweOOxF6NmrQFJEnDh6gPZu/5Smz1nCSpo22r9rix2Ms6eP05lTx1hRMYayRmTTtauXXT6s2TX28mLR7feQKEqSklMoJXUIKwGa7BQleuVeDm9tPn7yDFr98DfJaDTRmZPHrPm2J1966AmWcxB9uv5dem/tK9ai3GmzaRWXDckcRvGs6MmZMJlGjB5P+3fbc7Y2sDnRm59euU1XXp26M3+vBvBB40VLV/AafYtqa6vp6qXz3epx+pzFNGHqLCo4lUfX2CrIWRo7cRpFRkWzEuIIXTyX76yaw3w9+ZzdP3qfP71yh8IgEwRAAARAAARAAARA4IYkAEWE/bKb7S89v4qKjKSYmChqqK+n0tJSam1tVZ2JJURhYSH169ePBgwYoMxRxFICyZYAv+1nJY2jJA92Gz98i5atepimzJxH+R6+DZY3640N7rvIvPTbp63i/NuzL1nPtRO9cq2edtQbX69c66fzcVj2OFY0DKeTxw7R9k3r7Irl4dXAWrG/vfZ7Opd/kr74wOOUOXwUTeOH391bPrar2/lCb3565Z3705ufXnnn/rp77c/+E/slkcFopPNnum+xE5eQSG38XXHi6EGXU/rr//sfl+WuCl3J5+r+kT71Pn965ZpcieEGKmvofYswTR4cQQAEQAAEQAAEQAAEQKA3CfhEEWE2mykiPJSqq6oc+r2IUqKoqIhECxQTE6PcNJw9ePcmjN4aOyQ0rEt8CFtZ8g7uJXkDn9Cvv2227rm4NIgLweAhGRQRGU0lRVfZqmEfbdv4gWo7YOBgmrvkCzQ4PYvC2YVG3kgf5bH2btuk27c7FcSnf8X9j1FyShqFhIRQVWU5bf90Pe3buVk1dyXfotuX06SZc5UiQSpPmjGHcqfdpNod2b+b1r35Z3UuigVJ+SeOqKPtL5lfMc/5JFueSNrHlhAmvlflwVdSsM9fT/4vf+07ylKkoryUBqWlUwPHailgK5t33vijmn/yoCF0292rqT9bvYSHR1B1ZQWdO3PSWq4qufj1+FM/U64SsraSHvzm/1HHFlaq/X8//546nz53CY0eN5EGpKSykrKOLhTk0we8dppSLIZdLerqaq3XqlHHryx2Wbrn3kesWVXlZfTib35mvZaTW5etZmuh0ZSQ2F8pP4uvXaG3/vKyshxyRz5X9482kN7nz1V5JH/D/nJeKMWEGWjd6RZ685Tl3tP6xhEEQAAEQAAEQAAEQAAEbkQCPtk1Q/y74zk4pV7wDSmXelBC2N9qTey+EhEZZZ/Z6aqmqoKiY+I65bq+nLXgVhqZM57jJpTQ8cP7VPvpcxZZG8lD4qixuVTJD6oFp47zA+kgWnDrMnbFSLfW8ebkLrbiSE0fqkzpD+3bReaQUFq0dDmJgkKSK/lKOV6AmOtfOl+g6opbilzLT+HlCypPfvXrn0xtbW38Rt2ibLAW8IlYQ7S2XLc0kQfGV59/ht1hLIqWYJ+/nvyi4Ir9/9u79+CoqjuA47+YTQKBkAcQwhsCUQgIgqAoL6kidKrVdsbRdpz66Ez/qG3/6ujU/tPWjtM/Os7Uyky1DzuO1tfI+KCDItYHlSovwUhAeQmKQkI2IQmSd/r7nXDjLtnNLmZzs8n9npmwu/fevefczz3LzP3dc3+noFD7Vq589MF2fUyqSeZdvkRzjlzpmK65/kY9P6Xy+aeHXHCoSZOlzr1sscyed3kkY9z3J784roGFAy4A8FVjg3tvn+0cWbF+tFLrGJVf5B6paNH65y5YLCvX3Ni9zxEj8+RMY33358g3lm/G9md/Fuxob2+LXC3l2taFS1a4+ne9v0WOag4Vy9tw9aq1brtE7bONeus/kZUl+v3FWz8qO0NG6F9I/6ct0FERFAQQQAABBBBAAAEEEBBJyYgIIPsmsK9ilyzQ5+TvfeBhndGj2d3d3/D8E1E7tWCPDX+/kDJ95iwXZLCLbyvLr7vBzcJhOSnee2eTJne8RNeH5fFH/uDW33DLj2Sh5lUo08cdbMh5X4vdsa+tqZJ//e1Pbldrbv6BXLnsW3oxfJX8763XJFH7PtCLS7vQLC2b7S6WN738bI8m2cVqR0e7nGmIfTHb4wsRCwb78SfTfksQ++qLz8qRA5VijyFYzow58xdpYOJ9Ga45F9o0UPPWay+5821JG8dNmJT0uV//1GNO81cPrnMjT559/JEIXXGjbUKhLHnhhb+6R4ouXbhEvvfDH4uNgrBij4tYG05++XnU97wPByo/FPsr0mDTxeUP6Iir094q93qxHo+d/y06wmfvB9vcsnI9tvq6rmzEidpnX0i2/yT6/cVbf+KrTlm3o1VKRmTIq0cYDeFOEv8ggAACCCCAAAIIBF6gXwIR5eXlPWArK7vukvZYwQKZoHeObTi7zRpgOTa8C6m+0uTo4xaRAYUtmzeI/Xll+IgRUeuP66wYFohINDrD+36i12ydLcUu9GyIvBVLOGllVH6he03UPrdRP/4z2I8/mfY3a44WC0JYsfwilkujLnzKfbbEj5OnzZC77rlPTtfVaP+rlm06WqS+LuzWJ/PPjFlzJUuT1MbqsyUTp7g+7eU16dCErFZsBJAVG61j/cMeHemtzJg1x41uqQ1XR232hQbLLA/Id2+5Q5bp6J/wqSoNcG3SUTSHurfrrX3dG/Xzm91VXcfdz9WwewQQQAABBBBAAAEEBo1AvwQiCDpc2PkfXTxOjh05KE8++lDcL+bkDOvObRB3oz6u6OxIfTK9Zh3ubxe4XjlVdSIq+OEt/6avdic6MzPk8j0kOzVnvLoG4/FHHksy7X/un+u6v2LJPRs0b8c8nZkkv6BrGtmpOgXqX/74Ww1WfH3Our8Q4409emPFggDnl1wNdNXo+fZKyYTJ7m1Nddeycec+V5/80tsk5utYN32rSJU+ChJZtm3ZrLO6drrHi2xWFJtqdvzEqfLwg125Kmzb3tpn65PtP4l+f4nWW10UBBBAAAEEEEAAAQQQ6BLol0AEuBcmkCEZ0ql5DnorIy2p35nGmJvMX3S1jB5b4hJBekkAbcN2vUj3hsHb5yuWXSuLdOaNPTu26gwTG3usL5nYdaEY6w515rnRDLafWCXW+jad8rO1tUW8IfuWnNISY3p5HxK1L6qeOI/X2917ywUxc/alcn4gwi4yI/NqrNL8F0s1f8Dbm15xI0POr3+wHf+FtD/K8tyHsvJ57nEHLwB2zZqbZMVqfXxn2Sp5/eXnur8Sr3/ZBjYjhZXPNM9EZLHHPOyxjMi8DjaNquWp+ERHZVixBJP26MjhONOyevsr0O0sweiB/R96i9xjHfYYieUG2fbfN9zyO356r0zW/hU5Q0i89nk76q3/eNvYa2+/v0Tr107PlKJhIgdqO2X7id5/55F18h4BBBBAAAEEEEAAgaEqQCAiDc5si16s5+isBfHKNWtv1gvqUbI/Ysi5t60lfvy2znyQrYkJ7VGHjeuf8lZJuKZaJmryvlvv+pm7Yz1bE1PaM/kfn5sq0e5iT5wy3a1vbDgtl5TPl0Z9Dv/8qS1tKP8kHcJ/gw6Bt+SPNsvB25pXwCvx1tec278lrbTZDOYuuEIvXIvlmcfXaXtOJmyf7d+m3WzVgEbZrEvdyAe7A16piTeP6uwOVg7s/8jlkZijiQu36owckcXyU0yeNlNuu/vnbvj/rDmXudlJvMdTBvvxJ9v+SJPI9ytW36gjSSbI7m3vakCiTqc2ne0CA+Hqr0c39Na/bF8WWLCy6KqVMmvuZd19o7W12eWfsISVazU3SF5+gfbF6bJ3zw43e4t9J08TaVqgYvHSVfaxu1igyka5jJ80xS2zIFubbrdCc5xYOXJwvxvJYPkuLHFpxa5tkl+k0wOP11lSdHRFZDAuXvvcjvSf3vqPt01vvz/bJtH6tTMypWB4hpzY83XiVG/fvCKAAAIIIIAAAgggEESBzPETJv4mFQdeVFgg1dWJh3OPHTs2qe1S0aZY+8jW59lb9MI2XYol4rMEjmd1asVd773To1l2sXjl8uvc6IWXnv6HzjDQELVNqya3tPVZOiOFTc34qV6keaUuXOOm/LSZEaaWXuwuGj/SpH4Vu95zm9Rposr8wiK9izzDBSRses3d27fqLAWfeLtwr3aHeazOqDF95iVuu6IxxZrs8vXubeKt//L4ZzJ1RplM06SZM3SKRQsi2NSbO7a+2VV/gvbZRmc16FGowQsbrTBNHxuwwIkFPmyGBCsW0LA77VOml+mF6zSp0tk1PKNa3c6+a8c/RQMSX51pkIqd72vOhH3uu4P9+BO1f/7ipTpDSV6PAI07eP3HRlRYfhILQNgUmBbMsuk7I5OC9ta/bD+WQNUCBpP1HNi5Gan1bX/3TQ0eNUvuyFFuVgrbtwXSPtNA2qsvPuOCQfbd5dd+R3I1MGbfi/xr1MSjlsjUgku23Gb9sMCEt40F2HbpFLBTSsvctKRlOhpmvD7mUX86rFPTbowaGROvfVa/ld76j61P9PtLtH52UYZcNz0k1Zq08rHd0bN+2P4pCCCAAAIIIIAAAsEQKCwsTDjLZDAkuo4yY8Hli1OSGGBm6bSk3QYyh8TIkSOlsTH2Iw5JH0CKNrxTkwTaRZwFEewC6j8b10ft+fu3/8RNp2gX45teeV72bH83ar33YZQ+3293jb2khN5y79XuaheXTIq73gIJlqfiC01W2R/FZs+wu9+HdPRCrJKofbG+E7nM2n+b3h2fqhemNqLjod/9MnK1my7UAimRQZrIDYbC8ffl/NmohXzNsbBfZ2+JVRL1r1jfiVxms3V4CSsjl6fivQXyLK/F0UOfuKDCN9lnvP6T6PeXaL215fY5IVldmilvHG6XJ/YSiPgm54fvIIAAAggggAACQ0GgtLRUDh8+PBQOJSXHkLJARKzWWHBiIIMOsdqUToEIu5ARDQPtq9gp+/Rxg/PL9Tfd6oIUWzb/+4JmMjh/P0H5vGTl9W6qT2+60KAcN8eZGoHz+0+i31+i9daqX1+dJZNHXST3v9Ui4aaUxHxTc7DsBQEEEEAAAQQQQMBXAQIR0dwEIqI9+IQAAgikTGD11Ezp0EeS3jhGksqUobIjBBBAAAEEEEBgEAoQiIg+aSSrjPbgEwIIIJAygdePtqdsX+wIAQQQQAABBBBAAIGhInDRUDkQjgMBBBBAAAEEEEAAAQQQQAABBNJfgEBE+p8jWogAAggggAACCCCAAAIIIIDAkBEgEDFkTiUHggACCCCAAAIIIIAAAggggED6CwQuEJEuU3emf9eghQgggAACCCCAAAIIIIAAAgikXiBwgYjUE7JHBBBAAAEEEEAAAQQQQAABBBBIVoBARLJSbIcAAggggAACCCCAAAIIIIAAAn0WIBDRZ0J2gAACCCCAAAIIIIAAAggggAACyQoQiEhWiu0QQAABBBBAAAEEEEAAAQQQQKDPAqE+7yHODgoLCqSjo0PGjBkjp06dirPVwC6++xf3S1YoS44fOyLvbN4g9XXhgW0QtSOAAAIIIIAAAggggAACCCAwxAVSPiIiMzNTigoLJCc7JOFwWHJzc6W4uFhsebqVcPVJCWWFZOGS5bLmplvTrXm0BwEEEEAAAQQQQAABBBBAAIEhJ5DSERE52dmSPypPOjs7pKqqSpqammTYsGEyevRoKSkpkZqaGrcsXRRffPrvrin3/f7PUlA4Ol2aRTsQQAABBBBAAAEEEEAAAQQQGLICKRsRMUJHPhQW5ktLS7OcOHGiO+BgwQj73Nra6kZG5OXlpSFmp2tfGjaMJiGAAAIIIIAAAggggAACCCAwpARSEogIhUIyfFi2NNTXu5EQ7e3tUUj22UZINDQ0iAUisrKyotYP9Ies7Bxpbjo70M2gfgQQQAABBBBAAAEEEEAAAQSGvEBKAhFtbW1SoMkpa2trewWz9badjY5Ip9LS3CzDc0ekU5NoCwIIIIAAAggggAACCCCAAAJDUiClOSIGq9C+il2y4Iqlcu8DD7tHSw7ur5ANzz8xWA+HdiOAAAIIIIAAAggggAACCCCQtgL9EogoLy/vccCVlZU9lqXLggmTpkqbjtIInzopTWfP6jSevY/sSJd20w4EEEAAAQQQQAABBBBAAAEEBptAvwQi0jnoEOsEjS4eJ8eOHJQnH30o1mqWIYAAAggggAACCCCAAAIIIIBAigRSkiMiRW0ZsN1kSIZ0dnQMWP1UjAACCCCAAAIIIIAAAggggEBQBAhE6JluaW2RnGHDg3LOOU4EEEAAAQQQQAABBBBAAAEEBkwg8IGIojHjJCuUJZmZ/fKUyoCdWCpGAAEEEEAAAQQQQAABBBBAIB0FUnr1HStJZToetNemO++5T8ZPmiKhrCw59PFebzGvCCCAAAIIIIAAAggggAACCCDQTwIpC0QcPPxpjybOLJ0m6Zy4sv50rZshY1/FTtn34c4e7WcBAggggAACCCCAAAIIIIAAAgikViBlgYjUNsufva1/8jF/KqIWBBBAAAEEEEAAAQQQQAABBBBwAoHPEUE/QAABBBBAAAEEEEAAAQQQQAAB/wQIRPhnTU0IIIAAAggggAACCCCAAAIIBF6AQETguwAACCCAAAIIIIAAAggggAACCPgnQCDCP2tqQgABBBBAAAEEEEAAAQQQQCDwAgQiAt8FAEAAAQQQQAABBBBAAAEEEEDAPwECEf5ZUxMCCCCAAAIIIIAAAggggAACgRcgEBH4LgAAAggggAACCCCAAAIIIIAAAv4JEIjwz5qaEEAAAQQQQAABBBBAAAEEEAi8AIGIwHcBABBAAAEEEEAAAQQQQAABBBDwT4BAhH/W1IQAAggggAACCCCAAAIIIIBA4AUIRAS+CwCAAAIIIIAAAggggAACCCCAgH8CBCL8s6YmBBBAAAEEEEAAAQQQQAABBAIvQCAi8F0AAAQQQAABBBBAAAEEEEAAAQT8EyAQ4Z81NSGAAAIIIIAAAggggAACCCAQeAECEYHvAgAggAACCCCAAAIIIIAAAggg4J8AgQj/rKkJAQQQQAABBBBAAAEEEEAAgcALEIgIfBcAAAEEEEAAAQQQQAABBBBAAAH/BAhE+GdNTQgggAACCCCAAAIIIIAAAggEXoBAROC7AAAIIIAAAggggAACCCCAAAII+CdAIMI/a2pCAAEEEEAAAQQQQAABBBBAIPACBCIC3wUAQAABBBBAAAEEEEAAAQQQQMA/AQIR/llTEwIIIIAAAggggAACCCCAAAKBFyAQEfguAAACCCCAAAIIIIAAAggggAAC/gkQiPDPmpoQQAABBBBAAAEEEEAAAQQQCLwAgYjAdwEAEEAAAQQQQAABBBBAAAEEEPBPgECEf9bUhAACCCCAAAIIIIAAAggggEDgBQhEBL4LAIAAAggggAACCCCAAAIIIICAfwIEIvyzpiYEEEAAAQQQQAABBBBAAAEEAi9AICLwXQAABBBAAAEEEEAAAQQQQAABBPwTIBDhnzU1IYAAAggggAACCCCAAAIIIBB4AQIRge8CACCAAAIIIIAAAggggAACCCDgnwCBCP+sqQkBBBBAAAEEEEAAAQQQQACBwAsQiAh8FwAAAQQQQAABBBBAAAEEEEAAAf8E/g80W8iJWO9f0gAAAABJRU5ErkJggg==;" vertex="1" parent="1">
          <mxGeometry x="2440" y="2040" width="1058" height="472" as="geometry" />
        </mxCell>
        <mxCell id="tno-QMCIabjcAEofRb9Y-33" value="若未实现Ordered结果，则为 GatewayFilterAdapter 对象&lt;div&gt;若实现了Ordered接口，则为OrderedGatewayFilter 对象&lt;/div&gt;" style="text;html=1;align=center;verticalAlign=middle;resizable=0;points=[];autosize=1;strokeColor=none;fillColor=none;" vertex="1" parent="1">
          <mxGeometry x="2064" y="2024" width="320" height="48" as="geometry" />
        </mxCell>
        <mxCell id="tno-QMCIabjcAEofRb9Y-35" value="&lt;font color=&quot;#ff1434&quot;&gt;通过适配器模式，将路由过滤器与全局过滤串在一起&lt;/font&gt;" style="text;html=1;align=center;verticalAlign=middle;resizable=0;points=[];autosize=1;strokeColor=none;fillColor=none;" vertex="1" parent="1">
          <mxGeometry x="1416" y="1856" width="296" height="32" as="geometry" />
        </mxCell>
        <mxCell id="tno-QMCIabjcAEofRb9Y-40" style="edgeStyle=orthogonalEdgeStyle;rounded=0;orthogonalLoop=1;jettySize=auto;html=1;exitX=0.5;exitY=1;exitDx=0;exitDy=0;dashed=1;dashPattern=8 8;" edge="1" parent="1" source="tno-QMCIabjcAEofRb9Y-36" target="tno-QMCIabjcAEofRb9Y-39">
          <mxGeometry relative="1" as="geometry" />
        </mxCell>
        <UserObject label="执行过滤器链&lt;div&gt;new DefaultGatewayFilterChain(combined).filter(exchange);&lt;br&gt;&lt;/div&gt;" link="SimpleHandlerAdapter.handle" id="tno-QMCIabjcAEofRb9Y-36">
          <mxCell style="rounded=0;whiteSpace=wrap;html=1;align=center;" vertex="1" parent="1">
            <mxGeometry x="1560" y="2280" width="328" height="80" as="geometry" />
          </mxCell>
        </UserObject>
        <mxCell id="tno-QMCIabjcAEofRb9Y-38" value="在请求具体服务端之后，再经过调用链返回" style="text;html=1;align=center;verticalAlign=middle;resizable=0;points=[];autosize=1;strokeColor=none;fillColor=none;" vertex="1" parent="1">
          <mxGeometry x="1896" y="2296" width="248" height="32" as="geometry" />
        </mxCell>
        <UserObject label="一系列过滤器的调用中&lt;div&gt;NettyRoutingFilter是最终调用服务端的过滤器&lt;/div&gt;" link="SimpleHandlerAdapter.handle" id="tno-QMCIabjcAEofRb9Y-39">
          <mxCell style="rounded=0;whiteSpace=wrap;html=1;align=center;" vertex="1" parent="1">
            <mxGeometry x="1560" y="2472" width="328" height="80" as="geometry" />
          </mxCell>
        </UserObject>
        <mxCell id="tno-QMCIabjcAEofRb9Y-43" value="处理响应结果，实则没执行该部分代码" style="text;html=1;align=center;verticalAlign=middle;resizable=0;points=[];autosize=1;strokeColor=none;fillColor=none;" vertex="1" parent="1">
          <mxGeometry x="2836" y="1400" width="224" height="32" as="geometry" />
        </mxCell>
      </root>
    </mxGraphModel>
  </diagram>
</mxfile>
